<svg xmlns="http://www.w3.org/2000/svg" version="1.1" xmlns:xlink="http://www.w3.org/1999/xlink" xmlns:svgjs="http://svgjs.com/svgjs" width="512" height="512"><svg width="512" height="512" viewBox="0 0 512 512" xmlns="http://www.w3.org/2000/svg" xmlns:xlink="http://www.w3.org/1999/xlink">
  <path id="SvgjsPath1000" fill="#000000" stroke="none" d="M 23.743 415.924011 L 23.743 217.429993 C 23.743 175.325989 34.112 144.746002 54.84 125.694 C 75.568001 106.645996 107.054001 97.131012 149.289001 97.131012 L 234.990997 97.131012 L 234.990997 151.260986 L 166.880997 151.260986 C 139.899994 151.260986 120.733002 158.080994 109.393997 171.71701 C 98.050003 185.347992 92.382004 206.803986 92.382004 236.078979 L 92.382004 415.924011 Z M 278.931 415.924011 C 227.307999 415.924011 201.490005 382.838013 201.490005 316.673004 C 201.490005 285.796997 207.947998 261.542999 220.852997 243.898987 C 233.757996 226.255005 253.121994 217.429993 278.931 217.429993 L 419.725006 217.429993 L 419.725006 196.975006 C 419.725006 166.497986 405.251007 151.260986 376.309998 151.260986 L 285.596008 151.260986 L 285.596008 97.127014 L 400.951996 97.127014 C 429.498993 97.127014 451.207001 105.744995 466.06601 122.98999 C 480.929993 140.234985 488.359985 162.888 488.359985 190.957001 L 488.359985 361.786011 C 488.359985 397.877014 470.759003 415.924011 435.559998 415.924011 Z M 305.326996 361.786011 L 402.119995 361.786011 C 413.85199 361.786011 419.725006 355.777008 419.725006 343.742004 L 419.725006 271.565002 L 305.326996 271.565002 C 283.423004 271.565002 272.47699 286.598999 272.47699 316.673004 C 272.47699 346.751007 283.423004 361.781006 305.326996 361.781006 Z"></path>
</svg><style>@media (prefers-color-scheme: light) { :root { filter: none; } }
@media (prefers-color-scheme: dark) { :root { filter: invert(1); } }
</style></svg>
