<svg width="150" height="150" viewBox="0 0 150 150" fill="none"
     xmlns="http://www.w3.org/2000/svg">
  <path
    d="M103.664 11.9531C101.325 11.8745 98.8767 12.2823 96.4219 13.0781C91.5123 14.6698 86.3676 17.7717 81.0879 22.0664C79.0188 23.7495 76.9309 25.6735 74.8359 27.7149C72.7872 25.7253 70.7422 23.8471 68.7188 22.2012C63.4433 17.9099 58.3125 14.8127 53.4141 13.2246C48.5156 11.6365 43.6417 11.5873 39.6387 13.8984C35.6357 16.2096 33.2419 20.4521 32.168 25.4883C31.0941 30.5245 31.2065 36.522 32.2852 43.2363C32.6598 45.5685 33.2 48.0152 33.8086 50.5078C31.5213 51.201 29.3 51.9299 27.2402 52.7344C21.0239 55.1623 15.8803 58.067 12.1348 61.5234C8.38919 64.9799 5.9707 69.1749 5.9707 73.7813C5.9707 78.3876 8.38919 82.5768 12.1348 86.0332C15.8803 89.4897 21.0239 92.4002 27.2402 94.8281C29.4428 95.6884 31.8274 96.463 34.2891 97.1953C33.4036 100.504 32.6862 103.714 32.1973 106.758C31.1178 113.478 31.0038 119.476 32.0801 124.523C33.1564 129.571 35.5514 133.838 39.5742 136.16C43.597 138.483 48.4928 138.426 53.4023 136.834C58.3119 135.242 63.4508 132.146 68.7305 127.852C70.7805 126.184 72.8543 124.282 74.9297 122.262C77.015 124.293 79.099 126.206 81.1582 127.881C86.4337 132.172 91.5703 135.269 96.4688 136.857C101.367 138.446 106.235 138.495 110.238 136.184C114.241 133.872 116.635 129.63 117.709 124.594C118.783 119.558 118.665 113.56 117.586 106.846C117.096 103.794 116.378 100.579 115.488 97.2598C118.031 96.5096 120.491 95.7142 122.76 94.8281C128.976 92.4002 134.12 89.4897 137.865 86.0332C141.611 82.5768 144.029 78.3876 144.029 73.7813C144.029 69.1749 141.611 64.9799 137.865 61.5234C134.12 58.067 128.976 55.1623 122.76 52.7344C120.67 51.9183 118.415 51.18 116.092 50.4785C116.705 47.9707 117.25 45.5064 117.627 43.1602C118.706 36.4404 118.82 30.4363 117.744 25.3887C116.668 20.341 114.267 16.0804 110.244 13.7578C108.233 12.5965 106.003 12.0318 103.664 11.9531ZM103.389 18.0586C104.856 18.0987 106.109 18.448 107.18 19.0664C109.322 20.3032 110.905 22.7103 111.75 26.6719C112.595 30.6335 112.566 35.986 111.568 42.1934C111.227 44.3186 110.731 46.5711 110.168 48.8789C104.033 47.4025 97.3109 46.3063 90.1465 45.6621C86.5473 40.6754 82.8479 36.1391 79.1191 32.1094C81.0905 30.185 83.0492 28.3852 84.9609 26.8301C89.8381 22.8628 94.4554 20.1633 98.3086 18.9141C100.235 18.2895 101.921 18.0185 103.389 18.0586ZM46.459 18.0762C47.9353 18.035 49.6245 18.3052 51.5566 18.9316C55.421 20.1845 60.0464 22.8828 64.9277 26.8535C66.8007 28.3771 68.7164 30.1376 70.6465 32.0156C66.8909 36.0774 63.1655 40.6611 59.543 45.6914C52.404 46.3475 45.7058 47.4541 39.5977 48.9375C39.0381 46.6407 38.5489 44.3973 38.209 42.2813C37.2109 36.0685 37.186 30.7094 38.0332 26.7363C38.8804 22.7633 40.4767 20.3439 42.6387 19.0957C43.7196 18.4716 44.9827 18.1174 46.459 18.0762ZM74.9297 36.4277C77.3732 39.0869 79.8182 41.9979 82.2422 45.1289C79.8601 45.0296 77.4489 44.9707 75 44.9707C72.5024 44.9707 70.0452 45.0315 67.6172 45.1348C70.0421 42.0009 72.4853 39.0892 74.9297 36.4277ZM75 51.0293C79.0797 51.0293 83.056 51.1969 86.9238 51.4805C89.5852 55.3029 92.1859 59.3582 94.6641 63.6504C96.8415 67.4219 98.812 71.1875 100.605 74.9063C98.7931 78.6744 96.7896 82.4909 94.582 86.3145C92.6388 89.6802 90.6096 92.8769 88.5469 95.959C84.1779 96.3242 79.6509 96.5274 75 96.5274C70.2371 96.5274 65.6084 96.3121 61.1426 95.9297C59.1142 92.8919 57.1192 89.7378 55.207 86.4258C53.0046 82.611 51.0107 78.8072 49.2012 75.0469C51.0183 71.2653 53.0211 67.4345 55.2363 63.5977C57.7015 59.3279 60.2946 55.2962 62.9414 51.4922C66.8508 51.2023 70.8734 51.0293 75 51.0293ZM94.6523 52.2305C99.5956 52.8475 104.237 53.7046 108.557 54.7324C107.274 58.9359 105.695 63.3264 103.781 67.8574C102.539 65.4622 101.252 63.0588 99.8613 60.6504C98.1772 57.7334 96.4261 54.9479 94.6523 52.2305ZM55.0312 52.2774C53.294 54.9453 51.5845 57.6737 49.9336 60.5332C48.5253 62.9725 47.2117 65.4082 45.9551 67.834C44.0579 63.3302 42.488 58.9646 41.2148 54.7852C45.504 53.7551 50.1203 52.9014 55.0312 52.2774ZM114.492 56.3262C116.619 56.9696 118.673 57.6411 120.557 58.377C126.287 60.6151 130.82 63.2655 133.758 65.9766C136.696 68.6877 137.971 71.2731 137.971 73.7813C137.971 76.2894 136.696 78.8749 133.758 81.5859C130.82 84.297 126.287 86.9474 120.557 89.1856C118.463 90.0032 116.163 90.7447 113.771 91.4473C112.066 86.1709 109.888 80.6663 107.297 75.0469C110.276 68.5953 112.683 62.3049 114.492 56.3262ZM35.4082 56.3555C37.1964 62.2743 39.5726 68.5026 42.5098 74.8887C39.9014 80.5409 37.7133 86.0768 36 91.3828C33.6929 90.6988 31.4706 89.9774 29.4434 89.1856C23.7129 86.9474 19.18 84.297 16.2422 81.5859C13.3043 78.8749 12.0293 76.2894 12.0293 73.7813C12.0293 71.2731 13.3043 68.6877 16.2422 65.9766C19.18 63.2655 23.7129 60.6151 29.4434 58.377C31.2983 57.6525 33.3177 56.9905 35.4082 56.3555ZM75 60C66.7513 60 60 66.7513 60 75C60 83.2487 66.7513 90 75 90C83.2487 90 90 83.2487 90 75C90 66.7513 83.2487 60 75 60ZM75 66C80.0061 66 84 69.9939 84 75C84 80.0061 80.0061 84 75 84C69.9939 84 66 80.0061 66 75C66 69.9939 69.9939 66 75 66ZM103.857 82.0899C105.431 85.8135 106.798 89.4572 107.947 92.9707C104.339 93.8073 100.498 94.5122 96.457 95.0684C97.6202 93.2123 98.7689 91.3217 99.8906 89.3789C101.297 86.9436 102.603 84.5115 103.857 82.0899ZM46.0254 82.0957C47.2869 84.5323 48.6008 86.9753 50.0156 89.4258C51.1232 91.3442 52.2542 93.2171 53.4023 95.0508C49.3735 94.4921 45.5437 93.7848 41.9473 92.9473C43.091 89.4444 44.4592 85.8084 46.0254 82.0957ZM40.2188 98.7715C45.6482 100.058 51.5331 101.046 57.7734 101.689C61.94 107.716 66.278 113.128 70.6465 117.861C68.6934 119.766 66.7577 121.553 64.8633 123.094C59.9861 127.061 55.363 129.755 51.5098 131.004C47.6565 132.253 44.7808 132.088 42.6387 130.852C40.4965 129.615 38.919 127.208 38.0742 123.246C37.2295 119.285 37.2528 113.938 38.25 107.73C38.7024 104.914 39.3784 101.899 40.2188 98.7715ZM109.682 98.7949C110.528 101.94 111.207 104.969 111.662 107.801C112.66 114.014 112.685 119.367 111.838 123.34C110.991 127.313 109.4 129.738 107.238 130.986C105.076 132.235 102.179 132.403 98.3145 131.15C94.4501 129.898 89.8247 127.193 84.9434 123.223C83.0353 121.671 81.0862 119.875 79.1191 117.955C83.516 113.204 87.8864 107.762 92.0801 101.701C98.3361 101.062 104.237 100.08 109.682 98.7949ZM65.6016 102.305C68.6819 102.473 71.8027 102.586 75 102.586C78.0915 102.586 81.1112 102.479 84.0938 102.322C81.0449 106.436 77.9371 110.175 74.8418 113.543C71.7484 110.168 68.6464 106.422 65.6016 102.305Z"
    fill="black"/>
</svg>
