<svg width="137" height="34" viewBox="0 0 137 34" fill="none" xmlns="http://www.w3.org/2000/svg">
  <path fill-rule="evenodd" clip-rule="evenodd"
        d="M15.1355 33.802C6.33484 32.0575 -2.66217e-05 24.3999 0 15.5055V9.44443C0 4.22842 4.26675 0 9.53005 0H24.7781C30.0413 0 34.3083 4.22842 34.3083 9.44443V15.5054C34.3081 24.3996 27.9731 32.0573 19.1727 33.8017C17.8402 34.0661 16.468 34.0661 15.1355 33.802ZM11.4359 14.0558C12.0241 14.0558 12.5008 14.5282 12.5008 15.1111V20.7777C12.5008 21.3605 12.0241 21.833 11.4359 21.833C10.8478 21.833 10.3711 21.3605 10.3711 20.7777V15.1111C10.3711 14.5282 10.8478 14.0558 11.4359 14.0558ZM18.2192 14.9539C18.2192 14.3711 17.7424 13.8986 17.1543 13.8986C16.5662 13.8986 16.0894 14.3711 16.0894 14.9539V20.778C16.0894 21.3608 16.5662 21.8333 17.1543 21.8333C17.7424 21.8333 18.2192 21.3608 18.2192 20.778V14.9539ZM17.1504 8.38912L17.1544 8.38911C20.9005 8.38911 23.9372 11.3987 23.9372 15.1111V20.7778C23.9372 21.3606 23.4605 21.8331 22.8723 21.8331C22.2842 21.8331 21.8075 21.3606 21.8075 20.7778V15.1111C21.8075 12.565 19.7253 10.5008 17.1564 10.4997C16.3068 10.5033 15.4747 10.7398 14.7523 11.1832C14.2524 11.4901 13.596 11.3372 13.2863 10.8417C12.9766 10.3462 13.1309 9.69577 13.6309 9.38887C14.6883 8.73981 15.9066 8.39375 17.1504 8.38912Z"
        fill="#1F2124"/>
  <path d="M85.409 3.37752H88.9677V0.122088H85.409V3.37752Z" fill="#1F2124"/>
  <path d="M85.409 5.48752V21.4633H88.9677V5.48752H85.409Z" fill="#1F2124"/>
  <path
    d="M48.1908 21.4633V11.5161C48.1908 9.4061 48.7282 7.87886 49.8029 6.93438C50.8776 5.96981 52.5099 5.48752 54.6999 5.48752H57.1028V8.20038H55.6124C54.2132 8.20038 53.2196 8.542 52.6316 9.22524C52.0435 9.90848 51.7495 10.9836 51.7495 12.4505V21.4633H48.1908Z"
    fill="#1F2124"/>
  <path fill-rule="evenodd" clip-rule="evenodd"
        d="M67.7586 5.48752H58.6034V8.20038H66.4811C67.9817 8.20038 68.7319 8.964 68.7319 10.4912V11.5161H61.4321C60.0938 11.5161 59.09 11.9582 58.4209 12.8424C57.7517 13.7266 57.4171 14.9423 57.4171 16.4897C57.4171 19.8054 58.7554 21.4633 61.4321 21.4633H69.5532C71.3781 21.4633 72.2906 20.559 72.2906 18.7504V10.1898C72.2906 8.78314 71.9054 7.64776 71.1348 6.78367C70.3643 5.91957 69.2389 5.48752 67.7586 5.48752ZM62.8008 14.229H68.7319V17.8461C68.7319 18.449 68.4278 18.7504 67.8195 18.7504H62.8008C61.6653 18.7504 61.0975 17.9968 61.0975 16.4897C61.0975 14.9825 61.6653 14.229 62.8008 14.229Z"
        fill="#1F2124"/>
  <path
    d="M76.714 6.93438C75.6393 7.87886 75.102 9.4061 75.102 11.5161V21.4633H78.6607V12.4505C78.6607 10.9836 78.9547 9.90848 79.5427 9.22524C80.1308 8.542 81.1244 8.20038 82.5235 8.20038H84.0139V5.48752H81.611C79.4211 5.48752 77.7887 5.96981 76.714 6.93438Z"
    fill="#1F2124"/>
  <path
    d="M113.939 5.09566L108.494 19.1724C108.129 20.0767 107.744 20.7298 107.339 21.1317C106.933 21.5135 106.304 21.7044 105.453 21.7044C104.601 21.7044 103.973 21.5135 103.567 21.1317C103.161 20.7298 102.776 20.0767 102.411 19.1724L96.9667 5.09566C96.7842 4.63347 96.6118 4.40238 96.4496 4.40238C96.2265 4.40238 96.115 4.61338 96.115 5.03538L96.2063 21.4633H92.1913V2.89523C92.1913 1.04647 93.337 0.122088 95.6284 0.122088C96.7233 0.122088 97.5344 0.353183 98.0617 0.815373C98.5889 1.27756 99.0248 1.95076 99.3695 2.83495L104.875 16.9117C105.118 17.4342 105.311 17.6954 105.453 17.6954C105.595 17.6954 105.787 17.4342 106.031 16.9117L111.536 2.83495C111.881 1.95076 112.317 1.27756 112.844 0.815373C113.371 0.353183 114.182 0.122088 115.277 0.122088C117.569 0.122088 118.714 1.04647 118.714 2.89523V21.4633H114.699L114.821 5.03538C114.821 4.61338 114.699 4.40238 114.456 4.40238C114.294 4.40238 114.121 4.63347 113.939 5.09566Z"
    fill="#1F2124"/>
  <path fill-rule="evenodd" clip-rule="evenodd"
        d="M136.483 21.4633H127.541C126.283 21.4633 125.239 21.2924 124.408 20.9508C123.597 20.6092 122.978 20.0767 122.552 19.3533C122.127 18.6097 121.832 17.7858 121.67 16.8815C121.528 15.9772 121.457 14.8318 121.457 13.4452C121.457 10.3506 122.045 8.22048 123.221 7.05495C124.418 5.88943 126.425 5.30666 129.244 5.30666C131.758 5.30666 133.674 5.76886 134.993 6.69324C136.331 7.59752 137 9.24534 137 11.6367C137 13.6462 136.169 14.651 134.506 14.651H125.138C125.138 16.0375 125.361 17.0724 125.807 17.7557C126.273 18.4188 127.206 18.7504 128.605 18.7504H136.483V21.4633ZM125.138 11.9381H132.529C133.056 11.9381 133.32 11.6266 133.32 11.0037C133.32 10.019 132.924 9.27548 132.133 8.7731C131.363 8.27072 130.4 8.01953 129.244 8.01953C127.743 8.01953 126.679 8.331 126.05 8.95395C125.442 9.55681 125.138 10.5515 125.138 11.9381Z"
        fill="#1F2124"/>
  <path
    d="M110.49 26.5705C110.619 26.6924 110.771 26.7534 110.947 26.7534C111.129 26.7534 111.281 26.6924 111.404 26.5705C111.527 26.4427 111.588 26.2889 111.588 26.1089C111.588 25.9347 111.527 25.7866 111.404 25.6647C111.281 25.5369 111.129 25.4731 110.947 25.4731C110.771 25.4731 110.619 25.5369 110.49 25.6647C110.361 25.7866 110.297 25.9347 110.297 26.1089C110.297 26.2889 110.361 26.4427 110.49 26.5705Z"
    fill="#1F2124"/>
  <path fill-rule="evenodd" clip-rule="evenodd"
        d="M80.5435 32.1447C79.9458 32.1447 79.442 31.9241 79.0318 31.4828C78.6275 31.0415 78.4254 30.5073 78.4254 29.8802C78.4254 29.2531 78.6275 28.7189 79.0318 28.2776C79.442 27.8363 79.9458 27.6157 80.5435 27.6157C80.8423 27.6157 81.1177 27.6824 81.3696 27.816C81.6216 27.9437 81.8149 28.1005 81.9497 28.2863V25.5253H82.9164V32.0576H81.9497V31.4741C81.8149 31.6599 81.6216 31.8196 81.3696 31.9531C81.1177 32.0808 80.8423 32.1447 80.5435 32.1447ZM79.7789 30.8731C80.0249 31.1402 80.3384 31.2737 80.7192 31.2737C81.1001 31.2737 81.4136 31.1402 81.6596 30.8731C81.9057 30.606 82.0288 30.275 82.0288 29.8802C82.0288 29.4853 81.9057 29.1544 81.6596 28.8873C81.4136 28.6202 81.1001 28.4866 80.7192 28.4866C80.3384 28.4866 80.0249 28.6202 79.7789 28.8873C79.5328 29.1544 79.4097 29.4853 79.4097 29.8802C79.4097 30.275 79.5328 30.606 79.7789 30.8731Z"
        fill="#1F2124"/>
  <path fill-rule="evenodd" clip-rule="evenodd"
        d="M51.955 26.4573C52.3593 26.8405 52.5614 27.3195 52.5614 27.8944C52.5614 28.4692 52.3593 28.9511 51.955 29.3402C51.5507 29.7234 51.0322 29.915 50.3994 29.915H49.4414V32.0576H48.4132V25.8737H50.3994C51.0322 25.8737 51.5507 26.0682 51.955 26.4573ZM51.2343 28.6608C51.4453 28.4576 51.5507 28.2021 51.5507 27.8944C51.5507 27.5866 51.4453 27.334 51.2343 27.1366C51.0293 26.9334 50.748 26.8318 50.3906 26.8318H49.4414V28.957H50.3906C50.748 28.957 51.0293 28.8582 51.2343 28.6608Z"
        fill="#1F2124"/>
  <path fill-rule="evenodd" clip-rule="evenodd"
        d="M55.2975 32.1447C55.9478 32.1447 56.4927 31.927 56.9322 31.4915C57.3774 31.0502 57.6001 30.5131 57.6001 29.8802C57.6001 29.2473 57.3774 28.7131 56.9322 28.2776C56.4927 27.8363 55.9478 27.6157 55.2975 27.6157C54.6471 27.6157 54.0993 27.8363 53.654 28.2776C53.2145 28.7131 52.9948 29.2473 52.9948 29.8802C52.9948 30.5131 53.2145 31.0502 53.654 31.4915C54.0993 31.927 54.6471 32.1447 55.2975 32.1447ZM56.2379 30.8644C55.9918 31.1257 55.6783 31.2563 55.2975 31.2563C54.9108 31.2563 54.5914 31.1257 54.3395 30.8644C54.0934 30.5973 53.9704 30.2692 53.9704 29.8802C53.9704 29.4911 54.0934 29.166 54.3395 28.9047C54.5914 28.6376 54.9108 28.504 55.2975 28.504C55.6783 28.504 55.9918 28.6376 56.2379 28.9047C56.4898 29.166 56.6158 29.4911 56.6158 29.8802C56.6158 30.2692 56.4898 30.5973 56.2379 30.8644Z"
        fill="#1F2124"/>
  <path
    d="M61.3153 29.2444L62.2821 32.0576H63.1961L64.6726 27.7028H63.6443L62.6776 30.7076L61.6844 27.7028H60.9462L59.9355 30.7076L58.9863 27.7028H57.9668L59.4433 32.0576H60.3573L61.3153 29.2444Z"
    fill="#1F2124"/>
  <path fill-rule="evenodd" clip-rule="evenodd"
        d="M65.6953 31.5089C66.1289 31.9328 66.6796 32.1447 67.3476 32.1447C68.2616 32.1447 68.9295 31.8079 69.3514 31.1344L68.6132 30.6118C68.3378 31.0531 67.9188 31.2737 67.3564 31.2737C66.9814 31.2737 66.6679 31.1663 66.416 30.9515C66.164 30.7308 66.0264 30.4434 66.0029 30.0892H69.4569C69.4627 29.9963 69.4657 29.8918 69.4657 29.7757C69.4657 29.1021 69.2635 28.5737 68.8592 28.1905C68.4608 27.8073 67.9569 27.6157 67.3476 27.6157C66.6855 27.6157 66.1377 27.8334 65.7041 28.2689C65.2705 28.6986 65.0537 29.2357 65.0537 29.8802C65.0537 30.5421 65.2676 31.085 65.6953 31.5089ZM68.4901 29.3924H66.0469C66.1113 29.0847 66.2607 28.8466 66.4951 28.6782C66.7353 28.5099 67.0078 28.4257 67.3124 28.4257C67.6054 28.4257 67.8603 28.5128 68.077 28.687C68.2997 28.8553 68.4374 29.0905 68.4901 29.3924Z"
        fill="#1F2124"/>
  <path
    d="M71.4262 27.7028H70.4595V32.0576H71.4262V29.9324C71.4262 29.5144 71.5288 29.1892 71.7338 28.957C71.9389 28.7189 72.1879 28.5999 72.4809 28.5999C72.6625 28.5999 72.8236 28.626 72.9642 28.6782V27.694C72.8646 27.6708 72.7387 27.6592 72.5863 27.6592C72.3344 27.6592 72.0971 27.7347 71.8745 27.8857C71.6577 28.0366 71.5082 28.234 71.4262 28.4779V27.7028Z"
    fill="#1F2124"/>
  <path fill-rule="evenodd" clip-rule="evenodd"
        d="M75.6299 32.1447C74.962 32.1447 74.4112 31.9328 73.9776 31.5089C73.5499 31.085 73.3361 30.5421 73.3361 29.8802C73.3361 29.2357 73.5528 28.6986 73.9864 28.2689C74.42 27.8334 74.9678 27.6157 75.6299 27.6157C76.2393 27.6157 76.7431 27.8073 77.1416 28.1905C77.5458 28.5737 77.748 29.1021 77.748 29.7757C77.748 29.8918 77.745 29.9963 77.7392 30.0892H74.2852C74.3087 30.4434 74.4464 30.7308 74.6983 30.9515C74.9502 31.1663 75.2637 31.2737 75.6387 31.2737C76.2012 31.2737 76.6201 31.0531 76.8955 30.6118L77.6337 31.1344C77.2119 31.8079 76.5439 32.1447 75.6299 32.1447ZM74.3292 29.3924H76.7724C76.7197 29.0905 76.582 28.8553 76.3594 28.687C76.1426 28.5128 75.8877 28.4257 75.5947 28.4257C75.2901 28.4257 75.0176 28.5099 74.7774 28.6782C74.543 28.8466 74.3936 29.0847 74.3292 29.3924Z"
        fill="#1F2124"/>
  <path fill-rule="evenodd" clip-rule="evenodd"
        d="M87.8414 31.9531C88.0992 32.0808 88.3775 32.1447 88.6763 32.1447C89.2739 32.1447 89.7749 31.9241 90.1792 31.4828C90.5893 31.0415 90.7944 30.5073 90.7944 29.8802C90.7944 29.2531 90.5893 28.7189 90.1792 28.2776C89.7749 27.8363 89.2739 27.6157 88.6763 27.6157C88.3775 27.6157 88.0992 27.6824 87.8414 27.816C87.5894 27.9437 87.3961 28.1005 87.2613 28.2863V25.5253H86.2946V32.0576H87.2613V31.4741C87.3961 31.6599 87.5894 31.8196 87.8414 31.9531ZM89.4409 30.8731C89.1948 31.1402 88.8814 31.2737 88.5005 31.2737C88.1138 31.2737 87.7974 31.1402 87.5514 30.8731C87.3053 30.606 87.1822 30.275 87.1822 29.8802C87.1822 29.4853 87.3053 29.1544 87.5514 28.8873C87.7974 28.6202 88.1138 28.4866 88.5005 28.4866C88.8814 28.4866 89.1948 28.6202 89.4409 28.8873C89.687 29.1544 89.8101 29.4853 89.8101 29.8802C89.8101 30.275 89.687 30.606 89.4409 30.8731Z"
        fill="#1F2124"/>
  <path
    d="M92.0187 33.878H93.0821L95.9033 27.7028H94.8311L93.4776 30.786L92.1329 27.7028H91.0695L92.9591 31.8225L92.0187 33.878Z"
    fill="#1F2124"/>
  <path
    d="M99.4145 27.7028H98.4477V32.0576H99.4145V29.9324C99.4145 29.5144 99.517 29.1892 99.7221 28.957C99.9271 28.7189 100.176 28.5999 100.469 28.5999C100.651 28.5999 100.812 28.626 100.952 28.6782V27.694C100.853 27.6708 100.727 27.6592 100.575 27.6592C100.323 27.6592 100.085 27.7347 99.8627 27.8857C99.6459 28.0366 99.4965 28.234 99.4145 28.4779V27.7028Z"
    fill="#1F2124"/>
  <path fill-rule="evenodd" clip-rule="evenodd"
        d="M101.93 31.4828C102.341 31.9241 102.845 32.1447 103.442 32.1447C103.741 32.1447 104.016 32.0808 104.268 31.9531C104.52 31.8196 104.714 31.6599 104.848 31.4741V32.0576H105.815V27.7028H104.848V28.2863C104.714 28.1005 104.52 27.9437 104.268 27.816C104.016 27.6824 103.741 27.6157 103.442 27.6157C102.845 27.6157 102.341 27.8363 101.93 28.2776C101.526 28.7189 101.324 29.2531 101.324 29.8802C101.324 30.5073 101.526 31.0415 101.93 31.4828ZM103.618 31.2737C103.237 31.2737 102.924 31.1402 102.678 30.8731C102.431 30.606 102.308 30.275 102.308 29.8802C102.308 29.4853 102.431 29.1544 102.678 28.8873C102.924 28.6202 103.237 28.4866 103.618 28.4866C103.999 28.4866 104.312 28.6202 104.558 28.8873C104.804 29.1544 104.927 29.4853 104.927 29.8802C104.927 30.275 104.804 30.606 104.558 30.8731C104.312 31.1402 103.999 31.2737 103.618 31.2737Z"
        fill="#1F2124"/>
  <path
    d="M108.092 27.7028H107.125V32.0576H108.092V29.9324C108.092 29.5144 108.194 29.1892 108.399 28.957C108.604 28.7189 108.853 28.5999 109.146 28.5999C109.328 28.5999 109.489 28.626 109.63 28.6782V27.694C109.53 27.6708 109.404 27.6592 109.252 27.6592C109 27.6592 108.762 27.7347 108.54 27.8857C108.323 28.0366 108.174 28.234 108.092 28.4779V27.7028Z"
    fill="#1F2124"/>
  <path
    d="M118.328 32.0576V29.6102C118.328 29.256 118.26 28.9802 118.126 28.7828C117.997 28.5853 117.803 28.4866 117.546 28.4866C117.235 28.4866 116.986 28.6057 116.798 28.8437C116.611 29.0818 116.511 29.4157 116.5 29.8453V32.0576H115.533V29.6102C115.533 29.256 115.466 28.9802 115.331 28.7828C115.202 28.5853 115.009 28.4866 114.751 28.4866C114.428 28.4866 114.171 28.6115 113.977 28.8611C113.79 29.1108 113.696 29.4621 113.696 29.915V32.0576H112.729V27.7028H113.696V28.295C113.966 27.8421 114.382 27.6157 114.944 27.6157C115.606 27.6157 116.06 27.9031 116.306 28.4779C116.429 28.205 116.617 27.9931 116.869 27.8421C117.127 27.6911 117.408 27.6157 117.713 27.6157C118.205 27.6157 118.591 27.7811 118.873 28.1121C119.154 28.4431 119.294 28.8902 119.294 29.4534V32.0576H118.328Z"
    fill="#1F2124"/>
  <path d="M110.463 32.0576V27.7028H111.43V32.0576H110.463Z" fill="#1F2124"/>
  <path fill-rule="evenodd" clip-rule="evenodd"
        d="M124.152 31.4915C123.713 31.927 123.168 32.1447 122.517 32.1447C121.867 32.1447 121.319 31.927 120.874 31.4915C120.434 31.0502 120.215 30.5131 120.215 29.8802C120.215 29.2473 120.434 28.7131 120.874 28.2776C121.319 27.8363 121.867 27.6157 122.517 27.6157C123.168 27.6157 123.713 27.8363 124.152 28.2776C124.597 28.7131 124.82 29.2473 124.82 29.8802C124.82 30.5131 124.597 31.0502 124.152 31.4915ZM122.517 31.2563C122.898 31.2563 123.212 31.1257 123.458 30.8644C123.71 30.5973 123.836 30.2692 123.836 29.8802C123.836 29.4911 123.71 29.166 123.458 28.9047C123.212 28.6376 122.898 28.504 122.517 28.504C122.131 28.504 121.811 28.6376 121.559 28.9047C121.313 29.166 121.19 29.4911 121.19 29.8802C121.19 30.2692 121.313 30.5973 121.559 30.8644C121.811 31.1257 122.131 31.2563 122.517 31.2563Z"
        fill="#1F2124"/>
</svg>
