<svg width="20" height="20" viewBox="0 0 20 20" fill="none" xmlns="http://www.w3.org/2000/svg">
  <mask id="mask0_114_2211" style="mask-type:alpha" maskUnits="userSpaceOnUse" x="0" y="0" width="20" height="20">
    <rect width="20" height="20" fill="currentColor"/>
  </mask>
  <g mask="url(#mask0_114_2211)">
    <path
      d="M7.49984 13.6668L4.27067 16.9168C4.104 17.0835 3.90956 17.1668 3.68734 17.1668C3.46512 17.1668 3.27067 17.0835 3.104 16.9168C2.93734 16.7502 2.854 16.5522 2.854 16.3231C2.854 16.0939 2.93734 15.896 3.104 15.7293L6.33317 12.5002H4.99984C4.76373 12.5002 4.56581 12.4203 4.40609 12.2606C4.24637 12.1009 4.1665 11.9029 4.1665 11.6668C4.1665 11.4307 4.24637 11.2328 4.40609 11.0731C4.56581 10.9134 4.76373 10.8335 4.99984 10.8335H8.33317C8.56928 10.8335 8.7672 10.9134 8.92692 11.0731C9.08664 11.2328 9.1665 11.4307 9.1665 11.6668V15.0002C9.1665 15.2363 9.08664 15.4342 8.92692 15.5939C8.7672 15.7536 8.56928 15.8335 8.33317 15.8335C8.09706 15.8335 7.89914 15.7536 7.73942 15.5939C7.5797 15.4342 7.49984 15.2363 7.49984 15.0002V13.6668ZM13.6665 7.50016H14.9998C15.2359 7.50016 15.4339 7.58002 15.5936 7.73975C15.7533 7.89947 15.8332 8.09738 15.8332 8.3335C15.8332 8.56961 15.7533 8.76752 15.5936 8.92725C15.4339 9.08697 15.2359 9.16683 14.9998 9.16683H11.6665C11.4304 9.16683 11.2325 9.08697 11.0728 8.92725C10.913 8.76752 10.8332 8.56961 10.8332 8.3335V5.00016C10.8332 4.76405 10.913 4.56613 11.0728 4.40641C11.2325 4.24669 11.4304 4.16683 11.6665 4.16683C11.9026 4.16683 12.1005 4.24669 12.2603 4.40641C12.42 4.56613 12.4998 4.76405 12.4998 5.00016V6.3335L15.729 3.0835C15.8957 2.91683 16.0901 2.8335 16.3123 2.8335C16.5346 2.8335 16.729 2.91683 16.8957 3.0835C17.0623 3.25016 17.1457 3.44808 17.1457 3.67725C17.1457 3.90641 17.0623 4.10433 16.8957 4.271L13.6665 7.50016Z"
      fill="#687281"/>
  </g>
</svg>
