<svg width="103" height="101" viewBox="0 0 103 101" fill="none" xmlns="http://www.w3.org/2000/svg">
  <path d="M51.4997 13.0625L101.732 42.1394V58.3064L51.4997 87.3834L1.26709 58.3064V42.1396L51.4997 13.0625Z"
        fill="#EDFAF5"/>
  <path
    d="M101.732 42.1394L51.4997 13.0625L1.26709 42.1396M101.732 42.1394L51.4997 71.2166M101.732 42.1394V42.0032C101.732 42.0486 101.732 42.0939 101.732 42.1394ZM101.732 42.1394V58.3064L51.4997 87.3834M51.4997 71.2166L1.26709 42.1396M51.4997 71.2166V87.3834M1.26709 42.1396V58.3064L51.4997 87.3834"
    stroke="#4E9E7F" stroke-width="2" stroke-linejoin="round"/>
  <path d="M1.26709 42.1406V58.3074L51.4997 87.3844V71.2176L1.26709 42.1406Z" fill="white" stroke="#4E9E7F"
        stroke-width="2" stroke-linejoin="round"/>
  <path
    d="M101.733 42.1392L51.5 71.2163V87.3831L101.733 58.3061V42.1392C101.733 42.0937 101.733 42.0483 101.733 42.0029V42.1392Z"
    fill="white"/>
  <path
    d="M101.733 42.1392L51.5 71.2163V87.3831L101.733 58.3061V42.1392ZM101.733 42.1392V42.0029C101.733 42.0483 101.733 42.0937 101.733 42.1392Z"
    stroke="#4E9E7F" stroke-width="2" stroke-linejoin="round"/>
  <path d="M101.732 42.1395L51.4997 13.0625L1.26709 42.1396L51.4997 71.2166L101.732 42.1395Z" fill="#FAFDFB"
        stroke="#4E9E7F" stroke-width="2" stroke-linejoin="round"/>
  <mask id="mask0_7728_3169" style="mask-type:alpha" maskUnits="userSpaceOnUse" x="30" y="29" width="43" height="26">
    <rect width="24.6069" height="24.6069" transform="matrix(0.866062 0.499937 -0.866062 0.499937 51.4009 29.7256)"
          fill="#D9D9D9"/>
  </mask>
  <g mask="url(#mask0_7728_3169)">
    <path
      d="M51.4009 42.0245C50.4241 41.4607 49.9357 40.7772 49.9357 39.9742C49.9357 39.1711 50.4241 38.4877 51.4009 37.9239C52.3776 37.36 53.5616 37.0781 54.9527 37.0781C56.3439 37.0781 57.5278 37.36 58.5046 37.9239C59.4813 38.4877 59.9697 39.1711 59.9697 39.9742C59.9697 40.7772 59.4813 41.4607 58.5046 42.0245C57.5278 42.5883 56.3439 42.8703 54.9527 42.8703C53.5616 42.8703 52.3776 42.5883 51.4009 42.0245ZM37.1935 42.0245L39.6798 40.5893C40.183 40.2988 40.7749 40.1066 41.4557 40.0126C42.1365 39.9187 42.8025 39.9315 43.4536 40.0511C44.83 40.3159 46.1064 40.6555 47.283 41.0698C48.4595 41.4842 49.5362 41.9732 50.5129 42.5371C51.4897 43.1009 52.3369 43.7224 53.0547 44.4016C53.7725 45.0807 54.3607 45.8176 54.8195 46.6121C55.0267 46.988 55.0489 47.3724 54.8861 47.7654C54.7233 48.1584 54.3903 48.5001 53.8872 48.7905L51.4009 50.2258L37.1935 42.0245Z"
      fill="#4E9E7F"/>
  </g>
</svg>
