<svg width="32" height="32" viewBox="0 0 32 32" fill="none" xmlns="http://www.w3.org/2000/svg">
  <mask id="mask0_363_18709" style="mask-type:alpha" maskUnits="userSpaceOnUse" x="0" y="0" width="32" height="32">
    <rect width="32" height="32" fill="currentColor"/>
  </mask>
  <g mask="url(#mask0_363_18709)">
    <path
      d="M25.8343 22.0853L23.5712 19.7715C24.4335 19.5324 25.1505 19.0708 25.722 18.3867C26.2935 17.7026 26.5792 16.9072 26.5792 16.0005C26.5792 14.9159 26.2009 13.9941 25.4444 13.2349C24.6879 12.4757 23.7674 12.0961 22.6828 12.0961H18.8981C18.4725 12.0961 18.1133 11.9498 17.8205 11.657C17.5278 11.3643 17.3814 11.0051 17.3814 10.5795C17.3814 10.1539 17.5278 9.79466 17.8205 9.50191C18.1133 9.20915 18.4725 9.06277 18.8981 9.06277H22.6749C24.5937 9.06277 26.2297 9.73935 27.5828 11.0925C28.936 12.4456 29.6125 14.0816 29.6125 16.0005C29.6125 17.2937 29.2702 18.487 28.5854 19.5802C27.9006 20.6734 26.9835 21.5085 25.8343 22.0853ZM20.977 17.1853L18.4111 14.6034H19.9285C20.3541 14.6034 20.7133 14.7498 21.006 15.0425C21.2988 15.3353 21.4452 15.6944 21.4452 16.12C21.4452 16.3423 21.4034 16.5436 21.3198 16.724C21.2362 16.9045 21.122 17.0582 20.977 17.1853ZM27.206 29.1526C26.9456 29.413 26.6199 29.5432 26.2288 29.5432C25.8378 29.5432 25.5121 29.413 25.2517 29.1526L2.75238 6.66134C2.49201 6.40096 2.36182 6.07524 2.36182 5.68417C2.36182 5.29311 2.49201 4.96738 2.75238 4.707C3.01278 4.4466 3.33851 4.31641 3.72955 4.31641C4.12062 4.31641 4.44635 4.4466 4.70675 4.707L27.206 27.2063C27.4664 27.4667 27.5966 27.7911 27.5966 28.1795C27.5966 28.5679 27.4664 28.8923 27.206 29.1526ZM9.32558 22.9382C7.40674 22.9382 5.77075 22.2616 4.41762 20.9084C3.06446 19.5553 2.38788 17.9193 2.38788 16.0005C2.38788 14.4565 2.84525 13.0726 3.75998 11.8487C4.67472 10.6248 5.86542 9.79468 7.33208 9.35844L10.0698 12.0961H9.32558C8.24105 12.0961 7.31919 12.4757 6.56002 13.2349C5.80082 13.9941 5.42122 14.9159 5.42122 16.0005C5.42122 17.085 5.80082 18.0069 6.56002 18.766C7.31919 19.5252 8.24105 19.9048 9.32558 19.9048H13.0227C13.4483 19.9048 13.8075 20.0512 14.1002 20.3439C14.393 20.6367 14.5394 20.9959 14.5394 21.4215C14.5394 21.8471 14.393 22.2063 14.1002 22.499C13.8075 22.7918 13.4483 22.9382 13.0227 22.9382H9.32558ZM11.9524 17.3976C11.5587 17.3976 11.2274 17.2632 10.9586 16.9943C10.6897 16.7255 10.5553 16.3942 10.5553 16.0005C10.5553 15.6068 10.6897 15.2755 10.9586 15.0066C11.2274 14.7378 11.5587 14.6034 11.9524 14.6034H12.6901L15.451 17.3976H11.9524Z"
      fill="currentColor"/>
  </g>
</svg>
