<svg width="20" height="20" viewBox="0 0 20 20" fill="none" xmlns="http://www.w3.org/2000/svg">
  <g clip-path="url(#clip0_944_3339)">
    <path
      d="M11.595 12.1503C11.4614 12.1829 11.3269 12.2118 11.1917 12.237C10.4578 12.3751 9.70443 12.3723 8.97167 12.2287C8.84333 12.2037 8.66167 12.1595 8.4275 12.097L7.66 13.0945C5.76583 13.0337 5.04583 11.7645 5.04583 11.7645C5.04583 8.94699 6.28 6.66283 6.28 6.66283C7.51417 5.71866 8.68833 5.74449 8.68833 5.74449L9.02417 6.18199C9.05512 6.17765 9.08627 6.17487 9.1175 6.17366C9.75767 6.0888 10.4064 6.09161 11.0458 6.18199L11.4142 5.74449C11.4142 5.74449 12.5892 5.71866 13.8225 6.66366C13.8225 6.66366 15.0575 8.94699 15.0575 11.7645C15.0575 11.7645 14.3283 13.0328 12.4342 13.0945L11.595 12.1503ZM8.39667 9.16699C7.89583 9.16699 7.5 9.54199 7.5 10.0003C7.5 10.4587 7.90417 10.8337 8.39667 10.8337C8.89667 10.8337 9.2925 10.4587 9.2925 10.0003C9.30083 9.54199 8.8975 9.16699 8.39667 9.16699ZM11.6033 9.16699C11.1033 9.16699 10.7075 9.54199 10.7075 10.0003C10.7075 10.4587 11.1117 10.8337 11.6033 10.8337C12.1042 10.8337 12.5 10.4587 12.5 10.0003C12.5 9.54199 12.1042 9.16699 11.6033 9.16699ZM17.5 19.167L13.3417 15.0003H15.8333V3.33366H4.16667V15.0003H13.3358L13.8108 16.667H4.16667C3.72464 16.667 3.30072 16.4914 2.98816 16.1788C2.67559 15.8663 2.5 15.4424 2.5 15.0003V3.33366C2.5 2.89163 2.67559 2.46771 2.98816 2.15515C3.30072 1.84259 3.72464 1.66699 4.16667 1.66699H15.8333C16.2754 1.66699 16.6993 1.84259 17.0118 2.15515C17.3244 2.46771 17.5 2.89163 17.5 3.33366V19.167Z"
      fill="currentColor"/>
  </g>
  <defs>
    <clipPath id="clip0_944_3339">
      <rect width="20" height="20" fill="white"/>
    </clipPath>
  </defs>
</svg>
