<svg width="20" height="20" viewBox="0 0 20 20" fill="none" xmlns="http://www.w3.org/2000/svg">
<g id="keyboard_return">
<mask id="mask0_339_7222" style="mask-type:alpha" maskUnits="userSpaceOnUse" x="0" y="0" width="20" height="20">
<rect id="Bounding box" width="20" height="20" fill="#D9D9D9"/>
</mask>
<g mask="url(#mask0_339_7222)">
<path id="keyboard_return_2" d="M5.6665 10.8337L8.08317 13.2503C8.23595 13.4031 8.31234 13.5975 8.31234 13.8337C8.31234 14.0698 8.23595 14.2642 8.08317 14.417C7.93039 14.5698 7.73595 14.6462 7.49984 14.6462C7.26373 14.6462 7.06928 14.5698 6.9165 14.417L3.08317 10.5837C2.99984 10.5003 2.94081 10.41 2.90609 10.3128C2.87137 10.2156 2.854 10.1114 2.854 10.0003C2.854 9.88921 2.87137 9.78505 2.90609 9.68783C2.94081 9.5906 2.99984 9.50033 3.08317 9.41699L6.9165 5.58366C7.06928 5.43088 7.26373 5.35449 7.49984 5.35449C7.73595 5.35449 7.93039 5.43088 8.08317 5.58366C8.23595 5.73644 8.31234 5.93088 8.31234 6.16699C8.31234 6.4031 8.23595 6.59755 8.08317 6.75033L5.6665 9.16699H15.8332V6.66699C15.8332 6.43088 15.913 6.23296 16.0728 6.07324C16.2325 5.91352 16.4304 5.83366 16.6665 5.83366C16.9026 5.83366 17.1005 5.91352 17.2603 6.07324C17.42 6.23296 17.4998 6.43088 17.4998 6.66699V9.16699C17.4998 9.62533 17.3366 10.0177 17.0103 10.3441C16.6839 10.6705 16.2915 10.8337 15.8332 10.8337H5.6665Z" fill="#687281"/>
</g>
</g>
</svg>
