<svg width="18" height="16" viewBox="0 0 18 16" fill="none" xmlns="http://www.w3.org/2000/svg">
<g id="Group 6">
<path id="Vector" d="M16.5038 0.176758L10.0005 5.02703L11.2031 2.16544L16.5038 0.176758Z" fill="#E2761B"/>
<path id="Vector_2" d="M1.49047 0.176758L7.94145 5.07298L6.79766 2.16544L1.49047 0.176758ZM14.1637 11.4197L12.4317 14.0844L16.1375 15.1083L17.2029 11.4788L14.1637 11.4197ZM0.804199 11.4788L1.86302 15.1083L5.56891 14.0844L3.83688 11.4197L0.804199 11.4788Z" fill="#E4761B"/>
<path id="Vector_3" d="M5.35983 6.91684L4.32715 8.48547L8.00689 8.64955L7.87617 4.67876L5.35983 6.91684ZM12.6343 6.91684L10.0853 4.63281L10.0004 8.64955L13.6736 8.48547L12.6343 6.91684ZM5.56898 14.084L7.77813 13.001L5.86963 11.5046L5.56898 14.084ZM10.216 13.001L12.4317 14.084L12.1245 11.5046L10.216 13.001Z" fill="#E4761B"/>
<path id="Vector_4" d="M12.4316 14.0849L10.2159 13.002L10.3924 14.4524L10.3728 15.0628L12.4316 14.0849ZM5.56885 14.0849L7.62767 15.0628L7.6146 14.4524L7.778 13.002L5.56885 14.0849Z" fill="#D7C1B3"/>
<path id="Vector_5" d="M7.66052 10.5463L5.81738 10.0016L7.11804 9.4043L7.66052 10.5463ZM10.3337 10.5463L10.8762 9.4043L12.1834 10.0016L10.3337 10.5463Z" fill="#233447"/>
<path id="Vector_6" d="M5.56894 14.0838L5.88267 11.4191L3.83691 11.4782L5.56894 14.0838ZM12.118 11.4191L12.4317 14.0838L14.1637 11.4782L12.118 11.4191ZM13.6735 8.48535L10.0003 8.64943L10.3402 10.5462L10.8827 9.40421L12.1899 10.0015L13.6735 8.48535ZM5.81731 10.0015L7.1245 9.40421L7.66044 10.5462L8.00685 8.64943L4.32711 8.48535L5.81731 10.0015Z" fill="#CD6116"/>
<path id="Vector_7" d="M4.32715 8.48535L5.86963 11.5045L5.81734 10.0015L4.32715 8.48535ZM12.1899 10.0015L12.1245 11.5045L13.6736 8.48535L12.1899 10.0015ZM8.00689 8.64943L7.66048 10.5462L8.09185 12.7843L8.18989 9.83739L8.00689 8.64943ZM10.0004 8.64943L9.82388 9.83083L9.90231 12.7843L10.3402 10.5462L10.0004 8.64943Z" fill="#E4751F"/>
<path id="Vector_8" d="M10.3403 10.5467L9.90235 12.7848L10.2161 13.0014L12.1246 11.5049L12.1899 10.002L10.3403 10.5467ZM5.81738 10.002L5.86967 11.5049L7.77817 13.0014L8.09189 12.7848L7.66052 10.5467L5.81738 10.002Z" fill="#F6851B"/>
<path id="Vector_9" d="M10.3728 15.0629L10.3924 14.4525L10.229 14.3081H7.76493L7.6146 14.4525L7.62767 15.0629L5.56885 14.085L6.2878 14.6757L7.74532 15.693H10.2486L11.7126 14.6757L12.4316 14.085L10.3728 15.0629Z" fill="#C0AD9E"/>
<path id="Vector_10" d="M10.2161 13.0017L9.90233 12.7852H8.09187L7.77814 13.0017L7.61475 14.4522L7.76507 14.3078H10.2291L10.3925 14.4522L10.2161 13.0017Z" fill="#161616"/>
<path id="Vector_11" d="M16.7781 5.34207L17.3337 2.66425L16.5036 0.176758L10.216 4.86295L12.6343 6.91726L16.0526 7.92145L16.8108 7.0354L16.484 6.79912L17.0069 6.32L16.6016 6.00496L17.1245 5.6046L16.7781 5.34207ZM0.666992 2.66425L1.22255 5.34207L0.869607 5.6046L1.39248 6.00496L0.99379 6.32L1.51667 6.79912L1.18987 7.0354L1.9415 7.92145L5.3598 6.91726L7.7781 4.86295L1.49052 0.176758L0.666992 2.66425Z" fill="#763D16"/>
<path id="Vector_12" d="M16.0526 7.92202L12.6343 6.91784L13.6735 8.48647L12.1245 11.5056L14.1637 11.4793H17.2029L16.0526 7.92202ZM5.35976 6.91784L1.94145 7.92202L0.804199 11.4793H3.83688L5.86956 11.5056L4.32708 8.48647L5.35976 6.91784ZM10.0003 8.65055L10.216 4.86353L11.2094 2.16602H6.79766L7.77806 4.86353L8.00681 8.65055L8.08525 9.84507L8.09178 12.7854H9.90224L9.91531 9.84507L10.0003 8.65055Z" fill="#F6851B"/>
</g>
</svg>
