<svg width="20" height="20" viewBox="0 0 20 20" fill="none" xmlns="http://www.w3.org/2000/svg">
  <g id="logos">
    <rect width="20" height="20" rx="10" fill="#EAE0D7"/>
    <g id="Group 6">
      <path id="Vector" d="M15.5774 4.16406L10.7432 7.76956L11.6371 5.64237L15.5774 4.16406Z" fill="#E2761B"/>
      <path id="Vector_2"
            d="M4.41738 4.16406L9.21278 7.80372L8.36253 5.64237L4.41738 4.16406ZM13.8381 12.5216L12.5506 14.5024L15.3054 15.2635L16.0974 12.5655L13.8381 12.5216ZM3.90723 12.5655L4.69431 15.2635L7.44912 14.5024L6.1616 12.5216L3.90723 12.5655Z"
            fill="#E4761B"/>
      <path id="Vector_3"
            d="M7.29329 9.17442L6.52563 10.3405L9.261 10.4624L9.16383 7.51071L7.29329 9.17442ZM12.7009 9.17442L10.806 7.47656L10.7429 10.4624L13.4734 10.3405L12.7009 9.17442ZM7.44876 14.5022L9.09096 13.6971L7.67226 12.5848L7.44876 14.5022ZM10.9032 13.6971L12.5503 14.5022L12.3219 12.5848L10.9032 13.6971Z"
            fill="#E4761B"/>
      <path id="Vector_4"
            d="M12.5505 14.5003L10.9034 13.6953L11.0346 14.7735L11.02 15.2273L12.5505 14.5003ZM7.44897 14.5003L8.97942 15.2273L8.9697 14.7735L9.09117 13.6953L7.44897 14.5003Z"
            fill="#D7C1B3"/>
      <path id="Vector_5"
            d="M9.00366 11.8724L7.63354 11.4674L8.6004 11.0234L9.00366 11.8724ZM10.9908 11.8724L11.3941 11.0234L12.3658 11.4674L10.9908 11.8724Z"
            fill="#233447"/>
      <path id="Vector_6"
            d="M7.4489 14.5054L7.68211 12.5246L6.16138 12.5685L7.4489 14.5054ZM12.3172 12.5246L12.5504 14.5054L13.8379 12.5685L12.3172 12.5246ZM13.4735 10.3438L10.743 10.4657L10.9956 11.8757L11.3989 11.0268L12.3706 11.4708L13.4735 10.3438ZM7.63352 11.4708L8.60523 11.0268L9.00364 11.8757L9.26114 10.4657L6.52577 10.3438L7.63352 11.4708Z"
            fill="#CD6116"/>
      <path id="Vector_7"
            d="M6.52563 10.3438L7.67226 12.588L7.63339 11.4708L6.52563 10.3438ZM12.3705 11.4708L12.3219 12.588L13.4734 10.3438L12.3705 11.4708ZM9.261 10.4657L9.0035 11.8757L9.32417 13.5394L9.39704 11.3488L9.261 10.4657ZM10.7429 10.4657L10.6117 11.3439L10.67 13.5394L10.9955 11.8757L10.7429 10.4657Z"
            fill="#E4751F"/>
      <path id="Vector_8"
            d="M10.9957 11.8737L10.6701 13.5374L10.9034 13.6984L12.3221 12.586L12.3706 11.4688L10.9957 11.8737ZM7.63354 11.4688L7.67241 12.586L9.09111 13.6984L9.32432 13.5374L9.00366 11.8737L7.63354 11.4688Z"
            fill="#F6851B"/>
      <path id="Vector_9"
            d="M11.02 15.227L11.0346 14.7732L10.9131 14.6659H9.08145L8.9697 14.7732L8.97942 15.227L7.44897 14.5L7.98342 14.9391L9.06688 15.6953H10.9277L12.016 14.9391L12.5505 14.5L11.02 15.227Z"
            fill="#C0AD9E"/>
      <path id="Vector_10"
            d="M10.9032 13.6923L10.67 13.5312H9.32416L9.09095 13.6923L8.96948 14.7705L9.08123 14.6632H10.9129L11.0344 14.7705L10.9032 13.6923Z"
            fill="#131313" fill-opacity="0.67"/>
      <path id="Vector_11"
            d="M15.7813 8.00375L16.1943 6.01316L15.5772 4.16406L10.9033 7.64759L12.701 9.17468L15.242 9.92115L15.8056 9.2625L15.5627 9.08686L15.9513 8.7307L15.6501 8.49652L16.0388 8.19891L15.7813 8.00375ZM3.80493 6.01316L4.21791 8.00375L3.95555 8.19891L4.34423 8.49652L4.04786 8.7307L4.43654 9.08686L4.19362 9.2625L4.75235 9.92115L7.29338 9.17468L9.09105 7.64759L4.41711 4.16406L3.80493 6.01316Z"
            fill="#763D16"/>
      <path id="Vector_12"
            d="M15.2423 9.91941L12.7012 9.17294L13.4737 10.339L12.3223 12.5833L13.8381 12.5638H16.0974L15.2423 9.91941ZM7.29364 9.17294L4.75262 9.91941L3.90723 12.5638H6.1616L7.67261 12.5833L6.52599 10.339L7.29364 9.17294ZM10.7432 10.461L10.9036 7.64585L11.6421 5.64062H8.36253L9.09131 7.64585L9.26136 10.461L9.31966 11.3489L9.32452 13.5347H10.6703L10.6801 11.3489L10.7432 10.461Z"
            fill="#F6851B"/>
    </g>
  </g>
</svg>
