<svg width="24" height="24" viewBox="0 0 24 24" fill="none" xmlns="http://www.w3.org/2000/svg">
  <path fill-rule="evenodd" clip-rule="evenodd"
        d="M10.954 21.3148C6.34129 20.3922 3.02098 16.3422 3.021 11.6381V8.4325C3.021 5.67384 5.25734 3.4375 8.016 3.4375H16.008C18.7666 3.4375 21.0031 5.67384 21.0031 8.4325V11.638C21.0029 16.342 17.6828 20.392 13.0703 21.3146H13.07C12.3716 21.4545 11.6524 21.4545 10.954 21.3148Z"
        fill="white"/>
  <path fill-rule="evenodd" clip-rule="evenodd"
        d="M9.01468 10.8711C9.32293 10.8711 9.57282 11.121 9.57282 11.4292V14.4262C9.57282 14.7345 9.32293 14.9844 9.01468 14.9844C8.70643 14.9844 8.45654 14.7345 8.45654 14.4262V11.4292C8.45654 11.121 8.70643 10.8711 9.01468 10.8711Z"
        fill="#52b69a"/>
  <path fill-rule="evenodd" clip-rule="evenodd"
        d="M12.0122 10.7881C12.3205 10.7881 12.5704 11.038 12.5704 11.3462V14.4265C12.5704 14.7347 12.3205 14.9846 12.0122 14.9846C11.704 14.9846 11.4541 14.7347 11.4541 14.4265V11.3462C11.4541 11.038 11.704 10.7881 12.0122 10.7881Z"
        fill="#52b69a"/>
  <path fill-rule="evenodd" clip-rule="evenodd"
        d="M12.0099 7.87452L12.012 7.87451C13.9754 7.87451 15.5671 9.46622 15.5671 11.4297V14.4267C15.5671 14.7349 15.3172 14.9848 15.0089 14.9848C14.7007 14.9848 14.4508 14.7349 14.4508 14.4267V11.4297C14.4508 10.083 13.3595 8.99136 12.013 8.99079C11.5677 8.99266 11.1316 9.11777 10.753 9.35226C10.4909 9.51458 10.1469 9.43372 9.9846 9.17166C9.82229 8.9096 9.90315 8.56558 10.1652 8.40327C10.7194 8.05999 11.358 7.87697 12.0099 7.87452Z"
        fill="#52b69a"/>
</svg>
