<svg width="56" height="56" viewBox="0 0 56 56" fill="none" xmlns="http://www.w3.org/2000/svg">
  <rect x="0.214355" y="0.536133" width="54.8572" height="54.8532" rx="27.4266" fill="#2CA74B"/>
  <path fill-rule="evenodd" clip-rule="evenodd"
        d="M26.2179 39.8227C20.0058 38.5914 15.5342 33.1861 15.5342 26.9078V22.6294C15.5342 18.9476 18.546 15.9629 22.2612 15.9629H33.0244C36.7395 15.9629 39.7514 18.9476 39.7514 22.6294V26.9077C39.7513 33.1859 35.2796 38.5912 29.0676 39.8225C28.127 40.0091 27.1585 40.0091 26.2179 39.8227ZM23.6065 25.8844C24.0216 25.8844 24.3582 26.218 24.3582 26.6294V30.6293C24.3582 31.0407 24.0216 31.3742 23.6065 31.3742C23.1914 31.3742 22.8548 31.0407 22.8548 30.6293V26.6294C22.8548 26.218 23.1914 25.8844 23.6065 25.8844ZM28.3946 26.5184C28.3946 26.107 28.0581 25.7735 27.6429 25.7735C27.2278 25.7735 26.8913 26.107 26.8913 26.5184V30.6295C26.8913 31.0409 27.2278 31.3744 27.6429 31.3744C28.0581 31.3744 28.3946 31.0409 28.3946 30.6295V26.5184ZM27.6401 21.8845L27.643 21.8845C30.2873 21.8845 32.4308 24.0089 32.4308 26.6294V30.6293C32.4308 31.0407 32.0942 31.3742 31.6791 31.3742C31.264 31.3742 30.9274 31.0407 30.9274 30.6293V26.6294C30.9274 24.8321 29.4577 23.3751 27.6444 23.3744C27.0447 23.3769 26.4573 23.5438 25.9474 23.8568C25.5945 24.0734 25.1312 23.9655 24.9126 23.6158C24.694 23.266 24.8029 22.8069 25.1558 22.5902C25.9022 22.1321 26.7622 21.8878 27.6401 21.8845Z"
        fill="white"/>
</svg>
