<svg width="36" height="36" viewBox="0 0 36 36" fill="none" xmlns="http://www.w3.org/2000/svg">
    <path d="M32.4401 16.4296H29.0775V13.4831C29.0775 11.5763 27.5175 10.0164 25.6108 10.0164H18.6775V6.48035C20.168 6.13359 21.1041 4.64302 20.7576 3.15223C20.4109 1.66169 18.9203 0.725628 17.4295 1.07211C15.9389 1.41887 15.0029 2.90944 15.3493 4.40023C15.5921 5.3709 16.32 6.16817 17.2907 6.4455L17.2909 10.0164H10.3575C8.45079 10.0164 6.89086 11.5763 6.89086 13.4831V16.4299L3.66699 16.4296V24.4029H6.89086V30.8163H29.0775V24.4029H32.4402L32.4401 16.4296ZM16.6668 3.77629C16.6668 3.01363 17.2907 2.38975 18.0533 2.38975C18.816 2.38975 19.4399 3.01363 19.4399 3.77629C19.4399 4.53896 18.816 5.16283 18.0533 5.16283C17.2907 5.16283 16.6668 4.53896 16.6668 3.77629ZM5.05348 23.0163V17.8163H6.89079V23.0163H5.05348ZM22.4908 29.4296H18.6773V24.9231H22.4908V29.4296ZM17.2908 29.4296H13.4773V24.9231H17.2908V29.4296ZM27.6908 29.4296H23.8773V23.5363H12.0907V29.4296H8.27726V13.4829C8.27726 12.3389 9.21333 11.4029 10.3573 11.4029H25.6107C26.7547 11.4029 27.6908 12.3389 27.6908 13.4829V29.4296ZM31.0535 23.0163H29.0773V17.8163H31.0535V23.0163Z"
          fill="currentColor"/>
    <path d="M13.8935 14.8698C12.3681 14.8698 11.1201 16.1178 11.1201 17.6432C11.1201 19.1686 12.3681 20.4166 13.8935 20.4166C15.4189 20.4166 16.6669 19.1686 16.6669 17.6432C16.6669 16.1178 15.4189 14.8698 13.8935 14.8698ZM13.8935 19.0297C13.1308 19.0297 12.507 18.4058 12.507 17.6432C12.507 16.8805 13.1308 16.2566 13.8935 16.2566C14.6562 16.2566 15.28 16.8805 15.28 17.6432C15.28 18.4058 14.6562 19.0297 13.8935 19.0297Z"
          fill="currentColor"/>
    <path d="M22.2129 14.8698C20.6875 14.8698 19.4395 16.1178 19.4395 17.6432C19.4395 19.1686 20.6875 20.4166 22.2129 20.4166C23.7383 20.4166 24.9863 19.1686 24.9863 17.6432C24.9863 16.1178 23.7383 14.8698 22.2129 14.8698ZM22.2129 19.0297C21.4502 19.0297 20.8263 18.4058 20.8263 17.6432C20.8263 16.8805 21.4502 16.2566 22.2129 16.2566C22.9755 16.2566 23.5994 16.8805 23.5994 17.6432C23.5996 18.4058 22.9755 19.0297 22.2129 19.0297Z"
          fill="currentColor"/>
    <path d="M30.0531 6.90881L4.71973 32.2421" stroke="currentColor" stroke-width="3" stroke-linecap="round"/>
</svg>
