<svg width="36" height="37" viewBox="0 0 36 37" fill="none" xmlns="http://www.w3.org/2000/svg">
    <g clip-path="url(#clip0_7584_389)">
        <path d="M18.577 7.7402C20.3443 7.7402 21.777 6.29849 21.777 4.52006C21.777 2.74163 20.3443 1.29993 18.577 1.29993C16.8096 1.29993 15.377 2.74163 15.377 4.52006C15.377 6.29849 16.8096 7.7402 18.577 7.7402Z"
              fill="white" stroke="white" stroke-width="1.6"/>
        <path d="M12.2461 15.2321C12.2461 11.7358 15.0804 8.90149 18.5767 8.90149C22.0731 8.90149 24.9075 11.7358 24.9075 15.2321V22.8992H12.2461V15.2321Z"
              fill="white" stroke="white" stroke-width="1.6"/>
        <path d="M8.1834 13.2121C9.95071 13.2121 11.3834 11.7704 11.3834 9.99199C11.3834 8.21355 9.95071 6.77185 8.1834 6.77185C6.41609 6.77185 4.9834 8.21355 4.9834 9.99199C4.9834 11.7704 6.41609 13.2121 8.1834 13.2121Z"
              fill="white" stroke="white" stroke-width="1.6"/>
        <path d="M1.85254 20.7041C1.85254 17.2077 4.68688 14.3734 8.18321 14.3734C11.6795 14.3734 14.5138 17.2077 14.5138 20.7041V28.3712H1.85254V20.7041Z"
              fill="white" stroke="white" stroke-width="1.6"/>
        <path d="M28.9588 13.2121C30.7261 13.2121 32.1588 11.7704 32.1588 9.99199C32.1588 8.21355 30.7261 6.77185 28.9588 6.77185C27.1915 6.77185 25.7588 8.21355 25.7588 9.99199C25.7588 11.7704 27.1915 13.2121 28.9588 13.2121Z"
              fill="white" stroke="white" stroke-width="1.6"/>
        <path d="M22.6279 20.7041C22.6279 17.2077 25.4622 14.3734 28.9586 14.3734C32.455 14.3734 35.2893 17.2077 35.2893 20.7041V28.3712H22.6279V20.7041Z"
              fill="white" stroke="white" stroke-width="1.6"/>

        <path d="M18.577 18.5402C20.3443 18.5402 21.777 17.0985 21.777 15.3201C21.777 13.5417 20.3443 12.1 18.577 12.1C16.8096 12.1 15.377 13.5417 15.377 15.3201C15.377 17.0985 16.8096 18.5402 18.577 18.5402Z"
              fill="white" stroke="white" stroke-width="1.6"/>
        <path d="M12.2461 26.0322C12.2461 22.5359 15.0804 19.7015 18.5767 19.7015C22.0731 19.7015 24.9075 22.5359 24.9075 26.0322V33.6993H12.2461V26.0322Z"
              fill="white" stroke="white" stroke-width="1.6"/>
    </g>
</svg>
