<svg width="20" height="20" viewBox="0 0 20 20" fill="none" xmlns="http://www.w3.org/2000/svg">
  <g id="person">
    <mask id="mask0_4990_9609" style="mask-type:alpha" maskUnits="userSpaceOnUse" x="0" y="0" width="20" height="20">
      <rect id="Bounding box" width="20" height="20" fill="#D9D9D9"/>
    </mask>
    <g mask="url(#mask0_4990_9609)">
      <path id="person_2"
            d="M9.99992 10.0026C9.08325 10.0026 8.29853 9.67622 7.64575 9.02344C6.99297 8.37066 6.66659 7.58594 6.66659 6.66927C6.66659 5.7526 6.99297 4.96788 7.64575 4.3151C8.29853 3.66233 9.08325 3.33594 9.99992 3.33594C10.9166 3.33594 11.7013 3.66233 12.3541 4.3151C13.0069 4.96788 13.3333 5.7526 13.3333 6.66927C13.3333 7.58594 13.0069 8.37066 12.3541 9.02344C11.7013 9.67622 10.9166 10.0026 9.99992 10.0026ZM3.33325 16.6693V14.3359C3.33325 13.8637 3.45478 13.4297 3.69784 13.0339C3.94089 12.638 4.26381 12.3359 4.66659 12.1276C5.5277 11.697 6.4027 11.3741 7.29159 11.1589C8.18047 10.9436 9.08325 10.8359 9.99992 10.8359C10.9166 10.8359 11.8194 10.9436 12.7083 11.1589C13.5971 11.3741 14.4721 11.697 15.3333 12.1276C15.736 12.3359 16.0589 12.638 16.302 13.0339C16.5451 13.4297 16.6666 13.8637 16.6666 14.3359V16.6693H3.33325ZM4.99992 15.0026H14.9999V14.3359C14.9999 14.1832 14.9617 14.0443 14.8853 13.9193C14.8089 13.7943 14.7083 13.697 14.5833 13.6276C13.8333 13.2526 13.0763 12.9714 12.3124 12.7839C11.5485 12.5964 10.7777 12.5026 9.99992 12.5026C9.22214 12.5026 8.45131 12.5964 7.68742 12.7839C6.92353 12.9714 6.16659 13.2526 5.41659 13.6276C5.29159 13.697 5.19089 13.7943 5.1145 13.9193C5.03811 14.0443 4.99992 14.1832 4.99992 14.3359V15.0026ZM9.99992 8.33594C10.4583 8.33594 10.8506 8.17274 11.177 7.84635C11.5034 7.51997 11.6666 7.1276 11.6666 6.66927C11.6666 6.21094 11.5034 5.81858 11.177 5.49219C10.8506 5.1658 10.4583 5.0026 9.99992 5.0026C9.54158 5.0026 9.14922 5.1658 8.82284 5.49219C8.49645 5.81858 8.33325 6.21094 8.33325 6.66927C8.33325 7.1276 8.49645 7.51997 8.82284 7.84635C9.14922 8.17274 9.54158 8.33594 9.99992 8.33594Z"
            fill="currentColor"/>
    </g>
  </g>
</svg>
