<svg width="20" height="20" viewBox="0 0 20 20" fill="none" xmlns="http://www.w3.org/2000/svg">
<g id="key">
<mask id="mask0_3913_3112" style="mask-type:alpha" maskUnits="userSpaceOnUse" x="0" y="0" width="20" height="20">
<rect id="Bounding box" width="20" height="20" fill="#D9D9D9"/>
</mask>
<g mask="url(#mask0_3913_3112)">
<path id="key_2" d="M5.8335 11.6667C5.37516 11.6667 4.9828 11.5035 4.65641 11.1771C4.33002 10.8507 4.16683 10.4583 4.16683 10C4.16683 9.54167 4.33002 9.14931 4.65641 8.82292C4.9828 8.49653 5.37516 8.33333 5.8335 8.33333C6.29183 8.33333 6.68419 8.49653 7.01058 8.82292C7.33697 9.14931 7.50016 9.54167 7.50016 10C7.50016 10.4583 7.33697 10.8507 7.01058 11.1771C6.68419 11.5035 6.29183 11.6667 5.8335 11.6667ZM5.8335 15C4.44461 15 3.26405 14.5139 2.29183 13.5417C1.31961 12.5694 0.833496 11.3889 0.833496 10C0.833496 8.61111 1.31961 7.43056 2.29183 6.45833C3.26405 5.48611 4.44461 5 5.8335 5C6.76405 5 7.6078 5.22917 8.36475 5.6875C9.12169 6.14583 9.72238 6.75 10.1668 7.5H17.5002L20.0002 10L16.2502 13.75L14.5835 12.5L12.9168 13.75L11.146 12.5H10.1668C9.72238 13.25 9.12169 13.8542 8.36475 14.3125C7.6078 14.7708 6.76405 15 5.8335 15ZM5.8335 13.3333C6.61127 13.3333 7.2953 13.0972 7.88558 12.625C8.47586 12.1528 8.86822 11.5556 9.06266 10.8333H11.6668L12.8752 11.6875L14.5835 10.4167L16.0627 11.5625L17.6252 10L16.7918 9.16667H9.06266C8.86822 8.44444 8.47586 7.84722 7.88558 7.375C7.2953 6.90278 6.61127 6.66667 5.8335 6.66667C4.91683 6.66667 4.13211 6.99306 3.47933 7.64583C2.82655 8.29861 2.50016 9.08333 2.50016 10C2.50016 10.9167 2.82655 11.7014 3.47933 12.3542C4.13211 13.0069 4.91683 13.3333 5.8335 13.3333Z" fill="#1F2124"/>
</g>
</g>
</svg>
