<svg width="362" height="296" viewBox="0 0 362 296" fill="none" xmlns="http://www.w3.org/2000/svg">
  <mask id="mask0_675_5556" style="mask-type:alpha" maskUnits="userSpaceOnUse" x="0" y="0" width="362" height="296">
    <rect width="362" height="296" fill="url(#paint0_linear_675_5556)"/>
  </mask>
  <g mask="url(#mask0_675_5556)">
    <g filter="url(#filter0_ddd_675_5556)">
      <rect x="29" width="280" height="278" rx="8" fill="white" fill-opacity="0.7" shape-rendering="crispEdges"/>
      <rect x="29.5" y="0.5" width="279" height="277" rx="7.5" stroke="url(#paint1_linear_675_5556)"
            shape-rendering="crispEdges"/>
    </g>
    <g filter="url(#filter1_ddd_675_5556)">
      <path d="M29 8C29 3.58172 32.5817 0 37 0H301C305.418 0 309 3.58172 309 8V26H29V8Z" fill="white" fill-opacity="0.7"
            shape-rendering="crispEdges"/>
    </g>
    <circle cx="40" cy="13" r="3" fill="#EC6A5E"/>
    <circle cx="48" cy="13" r="3" fill="#F5BF4F"/>
    <circle cx="56" cy="13" r="3" fill="#61C554"/>
    <rect opacity="0.05" x="53" y="149" width="232" height="19" rx="9.5" fill="#1F2124"/>
    <rect opacity="0.05" x="53" y="183" width="175" height="19" rx="9.5" fill="#1F2124"/>
    <mask id="mask1_675_5556" style="mask-type:alpha" maskUnits="userSpaceOnUse" x="158" y="50" width="24" height="24">
      <rect x="158" y="50" width="24" height="24" rx="12" fill="url(#paint2_linear_675_5556)"/>
    </mask>
    <g mask="url(#mask1_675_5556)">
      <path
        d="M162.487 64.775C163.021 66.1972 164.789 66.3368 166.193 65.7573C166.36 65.6887 166.528 65.6238 166.7 65.5625C167.75 65.1875 168.85 65 170 65C171.15 65 172.25 65.1875 173.3 65.5625C173.472 65.6238 173.64 65.6887 173.807 65.7573C175.211 66.3368 176.979 66.1972 177.513 64.775C177.838 63.9083 178 62.9833 178 62C178 59.7833 177.221 57.8958 175.663 56.3375C174.104 54.7792 172.217 54 170 54C167.783 54 165.896 54.7792 164.338 56.3375C162.779 57.8958 162 59.7833 162 62C162 62.9833 162.162 63.9083 162.487 64.775ZM170 63C169.017 63 168.188 62.6625 167.513 61.9875C166.838 61.3125 166.5 60.4833 166.5 59.5C166.5 58.5167 166.838 57.6875 167.513 57.0125C168.188 56.3375 169.017 56 170 56C170.983 56 171.812 56.3375 172.488 57.0125C173.163 57.6875 173.5 58.5167 173.5 59.5C173.5 60.4833 173.163 61.3125 172.488 61.9875C171.812 62.6625 170.983 63 170 63ZM170 72C168.617 72 167.317 71.7375 166.1 71.2125C164.883 70.6875 163.825 69.975 162.925 69.075C162.025 68.175 161.312 67.1167 160.788 65.9C160.262 64.6833 160 63.3833 160 62C160 60.6167 160.262 59.3167 160.788 58.1C161.312 56.8833 162.025 55.825 162.925 54.925C163.825 54.025 164.883 53.3125 166.1 52.7875C167.317 52.2625 168.617 52 170 52C171.383 52 172.683 52.2625 173.9 52.7875C175.117 53.3125 176.175 54.025 177.075 54.925C177.975 55.825 178.688 56.8833 179.212 58.1C179.737 59.3167 180 60.6167 180 62C180 63.3833 179.737 64.6833 179.212 65.9C178.688 67.1167 177.975 68.175 177.075 69.075C176.175 69.975 175.117 70.6875 173.9 71.2125C172.683 71.7375 171.383 72 170 72Z"
        fill="url(#paint3_linear_675_5556)"/>
    </g>
    <rect x="53" y="124" width="234" height="1" fill="black" fill-opacity="0.05"/>
    <circle cx="63" cy="244" r="9" fill="#F3EFF3" stroke="#FDF9FE" stroke-width="2"/>
    <circle cx="79" cy="244" r="9" fill="#F3EFF3" stroke="#FDF9FE" stroke-width="2"/>
    <circle cx="95" cy="244" r="9" fill="#F3EFF3" stroke="#FDF9FE" stroke-width="2"/>
    <rect opacity="0.05" x="206" y="235" width="81" height="17" rx="8.5" fill="#1F2124"/>
    <rect x="6.2373" y="226.136" width="125.525" height="71.7288" rx="12.4746" fill="url(#paint4_linear_675_5556)"
          fill-opacity="0.3"/>
    <rect y="232.373" width="125.525" height="71.7288" rx="12.4746" fill="url(#paint5_linear_675_5556)"
          fill-opacity="0.1"/>
    <rect x="12.4746" y="219.898" width="125.525" height="71.7288" rx="12.4746" fill="url(#paint6_linear_675_5556)"/>
    <path
      d="M54.5972 263.509L61.0003 248.652H63.6996L70.1236 263.509H66.943L65.4992 260.119H59.1589L57.736 263.509H54.5972ZM62.3395 252.649L60.2888 257.461H64.3692L62.3395 252.649ZM74.153 260.035C74.6692 260.537 75.2969 260.789 76.0363 260.789C76.7756 260.789 77.4034 260.537 77.9195 260.035C78.4357 259.533 78.6938 258.891 78.6938 258.11C78.6938 257.329 78.4357 256.687 77.9195 256.185C77.4034 255.683 76.7756 255.432 76.0363 255.432C75.2969 255.432 74.6692 255.683 74.153 256.185C73.6369 256.687 73.3788 257.329 73.3788 258.11C73.3788 258.891 73.6369 259.533 74.153 260.035ZM75.7015 268.091C73.609 268.091 71.9838 267.533 70.8259 266.417L72.3953 264.283C73.2742 265.148 74.3623 265.58 75.6596 265.58C76.4966 265.58 77.1732 265.315 77.6894 264.785C78.2055 264.255 78.4636 263.565 78.4636 262.714V262.002C78.1706 262.407 77.7521 262.742 77.2081 263.007C76.664 263.258 76.0712 263.383 75.4295 263.383C74.0624 263.383 72.8975 262.874 71.935 261.856C70.9724 260.823 70.4911 259.575 70.4911 258.11C70.4911 256.631 70.9724 255.383 71.935 254.365C72.8975 253.332 74.0624 252.816 75.4295 252.816C76.0851 252.816 76.678 252.949 77.2081 253.214C77.7521 253.465 78.1706 253.8 78.4636 254.218V253.046H81.3303V262.693C81.3303 264.492 80.8142 265.838 79.7819 266.731C78.7496 267.638 77.3894 268.091 75.7015 268.091ZM88.951 263.739C87.3607 263.739 86.0354 263.237 84.9752 262.232C83.929 261.228 83.4058 259.91 83.4058 258.278C83.4058 256.715 83.929 255.418 84.9752 254.385C86.0215 253.339 87.3328 252.816 88.9091 252.816C90.3599 252.816 91.5806 253.269 92.571 254.176C93.5615 255.069 94.0567 256.331 94.0567 257.964C94.0567 258.424 94.0428 258.752 94.0149 258.947H86.1889C86.2726 259.631 86.5725 260.168 87.0887 260.558C87.6188 260.935 88.2465 261.123 88.9719 261.123C90.1995 261.123 91.0993 260.684 91.6713 259.805L93.8056 261.395C92.7315 262.958 91.1133 263.739 88.951 263.739ZM86.2935 257.001H91.19C91.0644 256.401 90.7785 255.948 90.332 255.641C89.8996 255.334 89.3974 255.181 88.8254 255.181C88.2395 255.181 87.7025 255.334 87.2142 255.641C86.726 255.948 86.4191 256.401 86.2935 257.001Z"
      fill="white"/>
    <rect x="255.661" y="181.949" width="73.678" height="42.1017" rx="7.32203" fill="url(#paint7_linear_675_5556)"
          fill-opacity="0.3"/>
    <rect x="252" y="185.61" width="73.678" height="42.1017" rx="7.32203" fill="url(#paint8_linear_675_5556)"
          fill-opacity="0.1"/>
    <rect x="259" y="178" width="73.678" height="42.1017" rx="7.32203" fill="url(#paint9_linear_675_5556)"/>
    <path
      d="M289.239 203.559L287.323 198.928L285.407 203.559H283.736L281.636 194.838H283.527L284.854 200.635L287.323 194.691L289.791 200.635L291.118 194.838H293.009L290.909 203.559H289.239ZM298.634 202.773C298.003 203.387 297.242 203.694 296.349 203.694C295.457 203.694 294.695 203.387 294.065 202.773C293.434 202.15 293.119 201.389 293.119 200.488C293.119 199.596 293.434 198.838 294.065 198.216C294.695 197.594 295.457 197.282 296.349 197.282C297.242 197.282 298.003 197.594 298.634 198.216C299.264 198.838 299.579 199.596 299.579 200.488C299.579 201.389 299.264 202.15 298.634 202.773ZM296.349 202.122C296.783 202.122 297.143 201.97 297.43 201.667C297.725 201.356 297.872 200.963 297.872 200.488C297.872 200.013 297.725 199.624 297.43 199.321C297.143 199.01 296.783 198.855 296.349 198.855C295.907 198.855 295.538 199.01 295.244 199.321C294.957 199.624 294.814 200.013 294.814 200.488C294.814 200.963 294.957 201.356 295.244 201.667C295.538 201.97 295.907 202.122 296.349 202.122ZM300.793 203.559V197.418H302.475V198.4C302.582 198.097 302.774 197.847 303.053 197.651C303.339 197.446 303.654 197.344 303.998 197.344C304.211 197.344 304.4 197.368 304.563 197.418V199.125C304.293 199.035 304.039 198.99 303.802 198.99C303.401 198.99 303.077 199.137 302.831 199.432C302.594 199.718 302.475 200.116 302.475 200.623V203.559H300.793ZM309.827 203.559L307.321 200.734V203.559H305.638V194.347H307.321V199.677L309.311 197.418H311.337L308.905 200.181L311.902 203.559H309.827Z"
      fill="white"/>
    <rect x="15" y="102" width="54" height="42" rx="7.32203" fill="url(#paint10_linear_675_5556)" fill-opacity="0.3"/>
    <rect x="12" y="106" width="55" height="42" rx="7.32203" fill="url(#paint11_linear_675_5556)" fill-opacity="0.1"/>
    <rect x="17" y="98" width="55" height="42" rx="7.32203" fill="url(#paint12_linear_675_5556)"/>
    <mask id="mask2_675_5556" style="mask-type:alpha" maskUnits="userSpaceOnUse" x="33" y="107" width="24" height="24">
      <rect x="33" y="107" width="24" height="24" fill="#D9D9D9"/>
    </mask>
    <g mask="url(#mask2_675_5556)">
      <path
        d="M39 121C38.45 121 37.9792 120.804 37.5875 120.413C37.1958 120.021 37 119.55 37 119C37 118.45 37.1958 117.979 37.5875 117.588C37.9792 117.196 38.45 117 39 117C39.55 117 40.0208 117.196 40.4125 117.588C40.8042 117.979 41 118.45 41 119C41 119.55 40.8042 120.021 40.4125 120.413C40.0208 120.804 39.55 121 39 121ZM45 121C44.45 121 43.9792 120.804 43.5875 120.413C43.1958 120.021 43 119.55 43 119C43 118.45 43.1958 117.979 43.5875 117.588C43.9792 117.196 44.45 117 45 117C45.55 117 46.0208 117.196 46.4125 117.588C46.8042 117.979 47 118.45 47 119C47 119.55 46.8042 120.021 46.4125 120.413C46.0208 120.804 45.55 121 45 121ZM51 121C50.45 121 49.9792 120.804 49.5875 120.413C49.1958 120.021 49 119.55 49 119C49 118.45 49.1958 117.979 49.5875 117.588C49.9792 117.196 50.45 117 51 117C51.55 117 52.0208 117.196 52.4125 117.588C52.8042 117.979 53 118.45 53 119C53 119.55 52.8042 120.021 52.4125 120.413C52.0208 120.804 51.55 121 51 121Z"
        fill="white"/>
    </g>
  </g>
  <defs>
    <filter id="filter0_ddd_675_5556" x="5" y="-18" width="328" height="326" filterUnits="userSpaceOnUse"
            color-interpolation-filters="sRGB">
      <feFlood flood-opacity="0" result="BackgroundImageFix"/>
      <feColorMatrix in="SourceAlpha" type="matrix" values="0 0 0 0 0 0 0 0 0 0 0 0 0 0 0 0 0 0 127 0"
                     result="hardAlpha"/>
      <feOffset dy="5.09117"/>
      <feGaussianBlur stdDeviation="6.78823"/>
      <feComposite in2="hardAlpha" operator="out"/>
      <feColorMatrix type="matrix" values="0 0 0 0 0 0 0 0 0 0 0 0 0 0 0 0 0 0 0.04 0"/>
      <feBlend mode="normal" in2="BackgroundImageFix" result="effect1_dropShadow_675_5556"/>
      <feColorMatrix in="SourceAlpha" type="matrix" values="0 0 0 0 0 0 0 0 0 0 0 0 0 0 0 0 0 0 127 0"
                     result="hardAlpha"/>
      <feOffset dy="1"/>
      <feGaussianBlur stdDeviation="0.5"/>
      <feComposite in2="hardAlpha" operator="out"/>
      <feColorMatrix type="matrix" values="0 0 0 0 0 0 0 0 0 0 0 0 0 0 0 0 0 0 0.05 0"/>
      <feBlend mode="normal" in2="effect1_dropShadow_675_5556" result="effect2_dropShadow_675_5556"/>
      <feColorMatrix in="SourceAlpha" type="matrix" values="0 0 0 0 0 0 0 0 0 0 0 0 0 0 0 0 0 0 127 0"
                     result="hardAlpha"/>
      <feOffset dy="6"/>
      <feGaussianBlur stdDeviation="12"/>
      <feComposite in2="hardAlpha" operator="out"/>
      <feColorMatrix type="matrix" values="0 0 0 0 0 0 0 0 0 0 0 0 0 0 0 0 0 0 0.03 0"/>
      <feBlend mode="normal" in2="effect2_dropShadow_675_5556" result="effect3_dropShadow_675_5556"/>
      <feBlend mode="normal" in="SourceGraphic" in2="effect3_dropShadow_675_5556" result="shape"/>
    </filter>
    <filter id="filter1_ddd_675_5556" x="5" y="-18" width="328" height="74" filterUnits="userSpaceOnUse"
            color-interpolation-filters="sRGB">
      <feFlood flood-opacity="0" result="BackgroundImageFix"/>
      <feColorMatrix in="SourceAlpha" type="matrix" values="0 0 0 0 0 0 0 0 0 0 0 0 0 0 0 0 0 0 127 0"
                     result="hardAlpha"/>
      <feOffset dy="5.09117"/>
      <feGaussianBlur stdDeviation="6.78823"/>
      <feComposite in2="hardAlpha" operator="out"/>
      <feColorMatrix type="matrix" values="0 0 0 0 0 0 0 0 0 0 0 0 0 0 0 0 0 0 0.04 0"/>
      <feBlend mode="normal" in2="BackgroundImageFix" result="effect1_dropShadow_675_5556"/>
      <feColorMatrix in="SourceAlpha" type="matrix" values="0 0 0 0 0 0 0 0 0 0 0 0 0 0 0 0 0 0 127 0"
                     result="hardAlpha"/>
      <feOffset dy="1"/>
      <feGaussianBlur stdDeviation="0.5"/>
      <feComposite in2="hardAlpha" operator="out"/>
      <feColorMatrix type="matrix" values="0 0 0 0 0 0 0 0 0 0 0 0 0 0 0 0 0 0 0.05 0"/>
      <feBlend mode="normal" in2="effect1_dropShadow_675_5556" result="effect2_dropShadow_675_5556"/>
      <feColorMatrix in="SourceAlpha" type="matrix" values="0 0 0 0 0 0 0 0 0 0 0 0 0 0 0 0 0 0 127 0"
                     result="hardAlpha"/>
      <feOffset dy="6"/>
      <feGaussianBlur stdDeviation="12"/>
      <feComposite in2="hardAlpha" operator="out"/>
      <feColorMatrix type="matrix" values="0 0 0 0 0 0 0 0 0 0 0 0 0 0 0 0 0 0 0.03 0"/>
      <feBlend mode="normal" in2="effect2_dropShadow_675_5556" result="effect3_dropShadow_675_5556"/>
      <feBlend mode="normal" in="SourceGraphic" in2="effect3_dropShadow_675_5556" result="shape"/>
    </filter>
    <linearGradient id="paint0_linear_675_5556" x1="181" y1="0" x2="181" y2="281.5" gradientUnits="userSpaceOnUse">
      <stop stop-color="white"/>
      <stop offset="0.781944" stop-color="white" stop-opacity="0.86"/>
      <stop offset="1" stop-color="white" stop-opacity="0"/>
    </linearGradient>
    <linearGradient id="paint1_linear_675_5556" x1="2" y1="308.779" x2="121.79" y2="208.152"
                    gradientUnits="userSpaceOnUse">
      <stop stop-color="#3044FE"/>
      <stop offset="1" stop-color="white" stop-opacity="0"/>
    </linearGradient>
    <linearGradient id="paint2_linear_675_5556" x1="160.038" y1="62.7059" x2="182" y2="62.7059"
                    gradientUnits="userSpaceOnUse">
      <stop stop-color="#4870FA"/>
      <stop offset="1" stop-color="#E4B6F9"/>
    </linearGradient>
    <linearGradient id="paint3_linear_675_5556" x1="161.698" y1="62.5882" x2="180" y2="62.5882"
                    gradientUnits="userSpaceOnUse">
      <stop stop-color="#4870FA"/>
      <stop offset="1" stop-color="#E4B6F9"/>
    </linearGradient>
    <linearGradient id="paint4_linear_675_5556" x1="16.8951" y1="264.11" x2="131.763" y2="264.11"
                    gradientUnits="userSpaceOnUse">
      <stop stop-color="#4870FA"/>
      <stop offset="1" stop-color="#E4B6F9"/>
    </linearGradient>
    <linearGradient id="paint5_linear_675_5556" x1="10.6578" y1="270.347" x2="125.525" y2="270.347"
                    gradientUnits="userSpaceOnUse">
      <stop stop-color="#4870FA"/>
      <stop offset="1" stop-color="#E4B6F9"/>
    </linearGradient>
    <linearGradient id="paint6_linear_675_5556" x1="23.1324" y1="257.872" x2="138" y2="257.872"
                    gradientUnits="userSpaceOnUse">
      <stop stop-color="#4870FA"/>
      <stop offset="1" stop-color="#E4B6F9"/>
    </linearGradient>
    <linearGradient id="paint7_linear_675_5556" x1="261.917" y1="204.238" x2="329.339" y2="204.238"
                    gradientUnits="userSpaceOnUse">
      <stop stop-color="#4870FA"/>
      <stop offset="1" stop-color="#E4B6F9"/>
    </linearGradient>
    <linearGradient id="paint8_linear_675_5556" x1="258.256" y1="207.899" x2="325.678" y2="207.899"
                    gradientUnits="userSpaceOnUse">
      <stop stop-color="#4870FA"/>
      <stop offset="1" stop-color="#E4B6F9"/>
    </linearGradient>
    <linearGradient id="paint9_linear_675_5556" x1="265.255" y1="200.289" x2="332.678" y2="200.289"
                    gradientUnits="userSpaceOnUse">
      <stop stop-color="#4870FA"/>
      <stop offset="1" stop-color="#E4B6F9"/>
    </linearGradient>
    <linearGradient id="paint10_linear_675_5556" x1="19.5849" y1="124.235" x2="69" y2="124.235"
                    gradientUnits="userSpaceOnUse">
      <stop stop-color="#4870FA"/>
      <stop offset="1" stop-color="#E4B6F9"/>
    </linearGradient>
    <linearGradient id="paint11_linear_675_5556" x1="16.6698" y1="128.235" x2="67" y2="128.235"
                    gradientUnits="userSpaceOnUse">
      <stop stop-color="#4870FA"/>
      <stop offset="1" stop-color="#E4B6F9"/>
    </linearGradient>
    <linearGradient id="paint12_linear_675_5556" x1="21.6698" y1="120.235" x2="72" y2="120.235"
                    gradientUnits="userSpaceOnUse">
      <stop stop-color="#4870FA"/>
      <stop offset="1" stop-color="#E4B6F9"/>
    </linearGradient>
  </defs>
</svg>
