<svg width="362" height="296" viewBox="0 0 362 296" fill="none" xmlns="http://www.w3.org/2000/svg">
  <mask id="mask0_675_5556" style="mask-type:alpha" maskUnits="userSpaceOnUse" x="0" y="0" width="362" height="296">
    <rect width="362" height="296" fill="url(#paint0_linear_675_5556)"/>
  </mask>
  <g mask="url(#mask0_675_5556)">
    <g filter="url(#filter0_ddd_675_5556)">
      <rect x="29" width="280" height="278" rx="8" fill="white" fill-opacity="0.7" shape-rendering="crispEdges"/>
      <rect x="29.5" y="0.5" width="279" height="277" rx="7.5" stroke="url(#paint1_linear_675_5556)"
            shape-rendering="crispEdges"/>
    </g>
    <g filter="url(#filter1_ddd_675_5556)">
      <path d="M29 8C29 3.58172 32.5817 0 37 0H301C305.418 0 309 3.58172 309 8V26H29V8Z" fill="white" fill-opacity="0.7"
            shape-rendering="crispEdges"/>
    </g>
    <circle cx="40" cy="13" r="3" fill="#EC6A5E"/>
    <circle cx="48" cy="13" r="3" fill="#F5BF4F"/>
    <circle cx="56" cy="13" r="3" fill="#61C554"/>
    <rect opacity="0.05" x="53" y="149" width="232" height="19" rx="9.5" fill="#1F2124"/>
    <rect opacity="0.05" x="53" y="183" width="175" height="19" rx="9.5" fill="#1F2124"/>
    <path
      d="M56.936 66.192C55.912 66.192 55.0533 65.8987 54.36 65.312C53.6667 64.7147 53.32 63.856 53.32 62.736H55.608C55.608 63.152 55.7307 63.472 55.976 63.696C56.232 63.92 56.552 64.032 56.936 64.032C57.32 64.032 57.6347 63.9253 57.88 63.712C58.136 63.488 58.264 63.1627 58.264 62.736V54.64H60.568V62.896C60.568 63.984 60.2213 64.8053 59.528 65.36C58.8347 65.9147 57.9707 66.192 56.936 66.192ZM65.8821 66.176C64.8261 66.176 63.9355 65.7653 63.2101 64.944C62.4848 64.1227 62.1221 63.1413 62.1221 62C62.1221 60.8587 62.4848 59.8773 63.2101 59.056C63.9355 58.2347 64.8261 57.824 65.8821 57.824C66.3941 57.824 66.8528 57.9307 67.2581 58.144C67.6635 58.3573 67.9728 58.608 68.1861 58.896V58H70.3781V66H68.1861V65.104C67.9728 65.392 67.6635 65.6427 67.2581 65.856C66.8528 66.0693 66.3941 66.176 65.8821 66.176ZM64.8741 63.568C65.2475 63.9733 65.7381 64.176 66.3461 64.176C66.9541 64.176 67.4395 63.9733 67.8021 63.568C68.1755 63.1627 68.3621 62.64 68.3621 62C68.3621 61.36 68.1755 60.8373 67.8021 60.432C67.4395 60.0267 66.9541 59.824 66.3461 59.824C65.7381 59.824 65.2475 60.0267 64.8741 60.432C64.5115 60.8373 64.3301 61.36 64.3301 62C64.3301 62.64 64.5115 63.1627 64.8741 63.568ZM82.5891 66V61.728C82.5891 60.4587 82.1731 59.824 81.3411 59.824C80.8611 59.824 80.4771 60.0053 80.1891 60.368C79.9118 60.7307 79.7625 61.2693 79.7411 61.984V66H77.5491V61.728C77.5491 60.4587 77.1331 59.824 76.3011 59.824C75.8105 59.824 75.4211 60.016 75.1331 60.4C74.8451 60.784 74.7011 61.3493 74.7011 62.096V66H72.5091V58H74.7011V58.912C75.2025 58.1867 75.9118 57.824 76.8291 57.824C77.9491 57.824 78.7758 58.3147 79.3091 59.296C79.5438 58.8373 79.8958 58.48 80.3651 58.224C80.8345 57.9573 81.3091 57.824 81.7891 57.824C82.7385 57.824 83.4745 58.1387 83.9971 58.768C84.5198 59.3973 84.7811 60.2613 84.7811 61.36V66H82.5891ZM90.5184 66.176C89.3024 66.176 88.289 65.792 87.4784 65.024C86.6784 64.256 86.2784 63.248 86.2784 62C86.2784 60.8053 86.6784 59.8133 87.4784 59.024C88.2784 58.224 89.281 57.824 90.4864 57.824C91.5957 57.824 92.529 58.1707 93.2864 58.864C94.0437 59.5467 94.4224 60.512 94.4224 61.76C94.4224 62.112 94.4117 62.3627 94.3904 62.512H88.4064C88.4704 63.0347 88.6997 63.4453 89.0944 63.744C89.4997 64.032 89.9797 64.176 90.5344 64.176C91.473 64.176 92.161 63.84 92.5984 63.168L94.2304 64.384C93.409 65.5787 92.1717 66.176 90.5184 66.176ZM88.4864 61.024H92.2304C92.1344 60.5653 91.9157 60.2187 91.5744 59.984C91.2437 59.7493 90.8597 59.632 90.4224 59.632C89.9744 59.632 89.5637 59.7493 89.1904 59.984C88.817 60.2187 88.5824 60.5653 88.4864 61.024ZM98.7284 66.176C97.2137 66.176 96.115 65.664 95.4324 64.64L96.9364 63.36C97.3204 63.9787 97.9177 64.288 98.7284 64.288C98.9737 64.288 99.1817 64.24 99.3524 64.144C99.523 64.048 99.6084 63.904 99.6084 63.712C99.6084 63.5413 99.5337 63.4027 99.3844 63.296C99.2457 63.1787 98.963 63.0613 98.5364 62.944L97.9444 62.8C97.2084 62.608 96.6484 62.288 96.2644 61.84C95.891 61.392 95.715 60.8587 95.7364 60.24C95.7577 59.5147 96.0457 58.9333 96.6004 58.496C97.1657 58.048 97.8804 57.824 98.7444 57.824C99.971 57.824 100.894 58.272 101.512 59.168L100.072 60.336C99.699 59.8667 99.2457 59.632 98.7124 59.632C98.499 59.632 98.3124 59.68 98.1524 59.776C97.9924 59.872 97.9124 60.0053 97.9124 60.176C97.9124 60.496 98.1737 60.7253 98.6964 60.864L99.4484 61.088C100.995 61.504 101.768 62.3307 101.768 63.568C101.768 64.3253 101.48 64.9493 100.904 65.44C100.328 65.9307 99.603 66.176 98.7284 66.176ZM105.485 66L110.381 54.64H112.445L117.357 66H114.925L113.821 63.408H108.973L107.885 66H105.485ZM111.405 57.696L109.837 61.376H112.957L111.405 57.696ZM118.415 66V58H120.607V59.28C120.746 58.8853 120.997 58.56 121.359 58.304C121.733 58.0373 122.143 57.904 122.591 57.904C122.869 57.904 123.114 57.936 123.327 58V60.224C122.975 60.1067 122.645 60.048 122.335 60.048C121.813 60.048 121.391 60.24 121.071 60.624C120.762 60.9973 120.607 61.5147 120.607 62.176V66H118.415ZM128.175 66.176C126.98 66.176 125.972 65.7813 125.151 64.992C124.34 64.192 123.935 63.1947 123.935 62C123.935 60.8053 124.34 59.8133 125.151 59.024C125.972 58.224 126.98 57.824 128.175 57.824C128.996 57.824 129.743 58.0373 130.415 58.464C131.097 58.88 131.615 59.4347 131.967 60.128L130.063 61.152C129.892 60.768 129.641 60.4587 129.311 60.224C128.991 59.9893 128.612 59.872 128.175 59.872C127.599 59.872 127.113 60.0747 126.719 60.48C126.335 60.8853 126.143 61.392 126.143 62C126.143 62.608 126.335 63.1147 126.719 63.52C127.113 63.9253 127.599 64.128 128.175 64.128C128.612 64.128 128.991 64.0107 129.311 63.776C129.641 63.5413 129.892 63.232 130.063 62.848L131.967 63.872C131.615 64.5653 131.097 65.1253 130.415 65.552C129.743 65.968 128.996 66.176 128.175 66.176ZM136.617 66.176C135.561 66.176 134.67 65.7653 133.945 64.944C133.219 64.1227 132.857 63.1413 132.857 62C132.857 60.8587 133.219 59.8773 133.945 59.056C134.67 58.2347 135.561 57.824 136.617 57.824C137.129 57.824 137.587 57.9307 137.993 58.144C138.398 58.3573 138.707 58.608 138.921 58.896V58H141.113V66H138.921V65.104C138.707 65.392 138.398 65.6427 137.993 65.856C137.587 66.0693 137.129 66.176 136.617 66.176ZM135.609 63.568C135.982 63.9733 136.473 64.176 137.081 64.176C137.689 64.176 138.174 63.9733 138.537 63.568C138.91 63.1627 139.097 62.64 139.097 62C139.097 61.36 138.91 60.8373 138.537 60.432C138.174 60.0267 137.689 59.824 137.081 59.824C136.473 59.824 135.982 60.0267 135.609 60.432C135.246 60.8373 135.065 61.36 135.065 62C135.065 62.64 135.246 63.1627 135.609 63.568ZM143.243 66V58H145.436V58.912C145.926 58.1867 146.689 57.824 147.724 57.824C148.684 57.824 149.436 58.144 149.98 58.784C150.534 59.4133 150.812 60.256 150.812 61.312V66H148.62V61.68C148.62 61.0933 148.497 60.64 148.252 60.32C148.006 59.9893 147.66 59.824 147.212 59.824C146.678 59.824 146.246 60.016 145.916 60.4C145.596 60.784 145.436 61.3493 145.436 62.096V66H143.243ZM156.07 66.176C155.014 66.176 154.123 65.7653 153.398 64.944C152.672 64.1227 152.31 63.1413 152.31 62C152.31 60.8587 152.672 59.8773 153.398 59.056C154.123 58.2347 155.014 57.824 156.07 57.824C156.582 57.824 157.04 57.9307 157.446 58.144C157.851 58.3573 158.16 58.608 158.374 58.896V54H160.566V66H158.374V65.104C158.16 65.392 157.851 65.6427 157.446 65.856C157.04 66.0693 156.582 66.176 156.07 66.176ZM155.062 63.568C155.435 63.9733 155.926 64.176 156.534 64.176C157.142 64.176 157.627 63.9733 157.99 63.568C158.363 63.1627 158.55 62.64 158.55 62C158.55 61.36 158.363 60.8373 157.99 60.432C157.627 60.0267 157.142 59.824 156.534 59.824C155.926 59.824 155.435 60.0267 155.062 60.432C154.699 60.8373 154.518 61.36 154.518 62C154.518 62.64 154.699 63.1627 155.062 63.568Z"
      fill="#1F2124"/>
    <rect opacity="0.05" x="53" y="86" width="106" height="17" rx="8.5" fill="#1F2124"/>
    <mask id="mask1_675_5556" style="mask-type:alpha" maskUnits="userSpaceOnUse" x="263" y="50" width="24" height="24">
      <rect x="263" y="50" width="24" height="24" rx="12" fill="url(#paint2_linear_675_5556)"/>
    </mask>
    <g mask="url(#mask1_675_5556)">
      <path
        d="M267.487 64.775C268.021 66.1972 269.789 66.3368 271.193 65.7573C271.36 65.6887 271.528 65.6238 271.7 65.5625C272.75 65.1875 273.85 65 275 65C276.15 65 277.25 65.1875 278.3 65.5625C278.472 65.6238 278.64 65.6887 278.807 65.7573C280.211 66.3368 281.979 66.1972 282.513 64.775C282.838 63.9083 283 62.9833 283 62C283 59.7833 282.221 57.8958 280.663 56.3375C279.104 54.7792 277.217 54 275 54C272.783 54 270.896 54.7792 269.338 56.3375C267.779 57.8958 267 59.7833 267 62C267 62.9833 267.162 63.9083 267.487 64.775ZM275 63C274.017 63 273.188 62.6625 272.513 61.9875C271.838 61.3125 271.5 60.4833 271.5 59.5C271.5 58.5167 271.838 57.6875 272.513 57.0125C273.188 56.3375 274.017 56 275 56C275.983 56 276.812 56.3375 277.488 57.0125C278.163 57.6875 278.5 58.5167 278.5 59.5C278.5 60.4833 278.163 61.3125 277.488 61.9875C276.812 62.6625 275.983 63 275 63ZM275 72C273.617 72 272.317 71.7375 271.1 71.2125C269.883 70.6875 268.825 69.975 267.925 69.075C267.025 68.175 266.312 67.1167 265.788 65.9C265.262 64.6833 265 63.3833 265 62C265 60.6167 265.262 59.3167 265.788 58.1C266.312 56.8833 267.025 55.825 267.925 54.925C268.825 54.025 269.883 53.3125 271.1 52.7875C272.317 52.2625 273.617 52 275 52C276.383 52 277.683 52.2625 278.9 52.7875C280.117 53.3125 281.175 54.025 282.075 54.925C282.975 55.825 283.688 56.8833 284.212 58.1C284.737 59.3167 285 60.6167 285 62C285 63.3833 284.737 64.6833 284.212 65.9C283.688 67.1167 282.975 68.175 282.075 69.075C281.175 69.975 280.117 70.6875 278.9 71.2125C277.683 71.7375 276.383 72 275 72Z"
        fill="url(#paint3_linear_675_5556)"/>
    </g>
    <rect x="53" y="124" width="234" height="1" fill="black" fill-opacity="0.05"/>
    <circle cx="63" cy="244" r="9" fill="#F3EFF3" stroke="#FDF9FE" stroke-width="2"/>
    <circle cx="79" cy="244" r="9" fill="#F3EFF3" stroke="#FDF9FE" stroke-width="2"/>
    <circle cx="95" cy="244" r="9" fill="#F3EFF3" stroke="#FDF9FE" stroke-width="2"/>
    <rect opacity="0.05" x="206" y="235" width="81" height="17" rx="8.5" fill="#1F2124"/>
    <rect x="6.2373" y="226.136" width="125.525" height="71.7288" rx="12.4746" fill="url(#paint4_linear_675_5556)"
          fill-opacity="0.3"/>
    <rect y="232.373" width="125.525" height="71.7288" rx="12.4746" fill="url(#paint5_linear_675_5556)"
          fill-opacity="0.1"/>
    <rect x="12.4746" y="219.898" width="125.525" height="71.7288" rx="12.4746" fill="url(#paint6_linear_675_5556)"/>
    <path
      d="M54.5972 263.509L61.0003 248.652H63.6996L70.1236 263.509H66.943L65.4992 260.119H59.1589L57.736 263.509H54.5972ZM62.3395 252.649L60.2888 257.461H64.3692L62.3395 252.649ZM74.153 260.035C74.6692 260.537 75.2969 260.789 76.0363 260.789C76.7756 260.789 77.4034 260.537 77.9195 260.035C78.4357 259.533 78.6938 258.891 78.6938 258.11C78.6938 257.329 78.4357 256.687 77.9195 256.185C77.4034 255.683 76.7756 255.432 76.0363 255.432C75.2969 255.432 74.6692 255.683 74.153 256.185C73.6369 256.687 73.3788 257.329 73.3788 258.11C73.3788 258.891 73.6369 259.533 74.153 260.035ZM75.7015 268.091C73.609 268.091 71.9838 267.533 70.8259 266.417L72.3953 264.283C73.2742 265.148 74.3623 265.58 75.6596 265.58C76.4966 265.58 77.1732 265.315 77.6894 264.785C78.2055 264.255 78.4636 263.565 78.4636 262.714V262.002C78.1706 262.407 77.7521 262.742 77.2081 263.007C76.664 263.258 76.0712 263.383 75.4295 263.383C74.0624 263.383 72.8975 262.874 71.935 261.856C70.9724 260.823 70.4911 259.575 70.4911 258.11C70.4911 256.631 70.9724 255.383 71.935 254.365C72.8975 253.332 74.0624 252.816 75.4295 252.816C76.0851 252.816 76.678 252.949 77.2081 253.214C77.7521 253.465 78.1706 253.8 78.4636 254.218V253.046H81.3303V262.693C81.3303 264.492 80.8142 265.838 79.7819 266.731C78.7496 267.638 77.3894 268.091 75.7015 268.091ZM88.951 263.739C87.3607 263.739 86.0354 263.237 84.9752 262.232C83.929 261.228 83.4058 259.91 83.4058 258.278C83.4058 256.715 83.929 255.418 84.9752 254.385C86.0215 253.339 87.3328 252.816 88.9091 252.816C90.3599 252.816 91.5806 253.269 92.571 254.176C93.5615 255.069 94.0567 256.331 94.0567 257.964C94.0567 258.424 94.0428 258.752 94.0149 258.947H86.1889C86.2726 259.631 86.5725 260.168 87.0887 260.558C87.6188 260.935 88.2465 261.123 88.9719 261.123C90.1995 261.123 91.0993 260.684 91.6713 259.805L93.8056 261.395C92.7315 262.958 91.1133 263.739 88.951 263.739ZM86.2935 257.001H91.19C91.0644 256.401 90.7785 255.948 90.332 255.641C89.8996 255.334 89.3974 255.181 88.8254 255.181C88.2395 255.181 87.7025 255.334 87.2142 255.641C86.726 255.948 86.4191 256.401 86.2935 257.001Z"
      fill="white"/>
    <rect x="255.661" y="181.949" width="73.678" height="42.1017" rx="7.32203" fill="url(#paint7_linear_675_5556)"
          fill-opacity="0.3"/>
    <rect x="252" y="185.61" width="73.678" height="42.1017" rx="7.32203" fill="url(#paint8_linear_675_5556)"
          fill-opacity="0.1"/>
    <rect x="259" y="178" width="73.678" height="42.1017" rx="7.32203" fill="url(#paint9_linear_675_5556)"/>
    <path
      d="M289.239 203.559L287.323 198.928L285.407 203.559H283.736L281.636 194.838H283.527L284.854 200.635L287.323 194.691L289.791 200.635L291.118 194.838H293.009L290.909 203.559H289.239ZM298.634 202.773C298.003 203.387 297.242 203.694 296.349 203.694C295.457 203.694 294.695 203.387 294.065 202.773C293.434 202.15 293.119 201.389 293.119 200.488C293.119 199.596 293.434 198.838 294.065 198.216C294.695 197.594 295.457 197.282 296.349 197.282C297.242 197.282 298.003 197.594 298.634 198.216C299.264 198.838 299.579 199.596 299.579 200.488C299.579 201.389 299.264 202.15 298.634 202.773ZM296.349 202.122C296.783 202.122 297.143 201.97 297.43 201.667C297.725 201.356 297.872 200.963 297.872 200.488C297.872 200.013 297.725 199.624 297.43 199.321C297.143 199.01 296.783 198.855 296.349 198.855C295.907 198.855 295.538 199.01 295.244 199.321C294.957 199.624 294.814 200.013 294.814 200.488C294.814 200.963 294.957 201.356 295.244 201.667C295.538 201.97 295.907 202.122 296.349 202.122ZM300.793 203.559V197.418H302.475V198.4C302.582 198.097 302.774 197.847 303.053 197.651C303.339 197.446 303.654 197.344 303.998 197.344C304.211 197.344 304.4 197.368 304.563 197.418V199.125C304.293 199.035 304.039 198.99 303.802 198.99C303.401 198.99 303.077 199.137 302.831 199.432C302.594 199.718 302.475 200.116 302.475 200.623V203.559H300.793ZM309.827 203.559L307.321 200.734V203.559H305.638V194.347H307.321V199.677L309.311 197.418H311.337L308.905 200.181L311.902 203.559H309.827Z"
      fill="white"/>
    <rect x="15" y="102" width="54" height="42" rx="7.32203" fill="url(#paint10_linear_675_5556)" fill-opacity="0.3"/>
    <rect x="12" y="106" width="55" height="42" rx="7.32203" fill="url(#paint11_linear_675_5556)" fill-opacity="0.1"/>
    <rect x="17" y="98" width="55" height="42" rx="7.32203" fill="url(#paint12_linear_675_5556)"/>
    <mask id="mask2_675_5556" style="mask-type:alpha" maskUnits="userSpaceOnUse" x="33" y="107" width="24" height="24">
      <rect x="33" y="107" width="24" height="24" fill="#D9D9D9"/>
    </mask>
    <g mask="url(#mask2_675_5556)">
      <path
        d="M39 121C38.45 121 37.9792 120.804 37.5875 120.413C37.1958 120.021 37 119.55 37 119C37 118.45 37.1958 117.979 37.5875 117.588C37.9792 117.196 38.45 117 39 117C39.55 117 40.0208 117.196 40.4125 117.588C40.8042 117.979 41 118.45 41 119C41 119.55 40.8042 120.021 40.4125 120.413C40.0208 120.804 39.55 121 39 121ZM45 121C44.45 121 43.9792 120.804 43.5875 120.413C43.1958 120.021 43 119.55 43 119C43 118.45 43.1958 117.979 43.5875 117.588C43.9792 117.196 44.45 117 45 117C45.55 117 46.0208 117.196 46.4125 117.588C46.8042 117.979 47 118.45 47 119C47 119.55 46.8042 120.021 46.4125 120.413C46.0208 120.804 45.55 121 45 121ZM51 121C50.45 121 49.9792 120.804 49.5875 120.413C49.1958 120.021 49 119.55 49 119C49 118.45 49.1958 117.979 49.5875 117.588C49.9792 117.196 50.45 117 51 117C51.55 117 52.0208 117.196 52.4125 117.588C52.8042 117.979 53 118.45 53 119C53 119.55 52.8042 120.021 52.4125 120.413C52.0208 120.804 51.55 121 51 121Z"
        fill="white"/>
    </g>
  </g>
  <defs>
    <filter id="filter0_ddd_675_5556" x="5" y="-18" width="328" height="326" filterUnits="userSpaceOnUse"
            color-interpolation-filters="sRGB">
      <feFlood flood-opacity="0" result="BackgroundImageFix"/>
      <feColorMatrix in="SourceAlpha" type="matrix" values="0 0 0 0 0 0 0 0 0 0 0 0 0 0 0 0 0 0 127 0"
                     result="hardAlpha"/>
      <feOffset dy="5.09117"/>
      <feGaussianBlur stdDeviation="6.78823"/>
      <feComposite in2="hardAlpha" operator="out"/>
      <feColorMatrix type="matrix" values="0 0 0 0 0 0 0 0 0 0 0 0 0 0 0 0 0 0 0.04 0"/>
      <feBlend mode="normal" in2="BackgroundImageFix" result="effect1_dropShadow_675_5556"/>
      <feColorMatrix in="SourceAlpha" type="matrix" values="0 0 0 0 0 0 0 0 0 0 0 0 0 0 0 0 0 0 127 0"
                     result="hardAlpha"/>
      <feOffset dy="1"/>
      <feGaussianBlur stdDeviation="0.5"/>
      <feComposite in2="hardAlpha" operator="out"/>
      <feColorMatrix type="matrix" values="0 0 0 0 0 0 0 0 0 0 0 0 0 0 0 0 0 0 0.05 0"/>
      <feBlend mode="normal" in2="effect1_dropShadow_675_5556" result="effect2_dropShadow_675_5556"/>
      <feColorMatrix in="SourceAlpha" type="matrix" values="0 0 0 0 0 0 0 0 0 0 0 0 0 0 0 0 0 0 127 0"
                     result="hardAlpha"/>
      <feOffset dy="6"/>
      <feGaussianBlur stdDeviation="12"/>
      <feComposite in2="hardAlpha" operator="out"/>
      <feColorMatrix type="matrix" values="0 0 0 0 0 0 0 0 0 0 0 0 0 0 0 0 0 0 0.03 0"/>
      <feBlend mode="normal" in2="effect2_dropShadow_675_5556" result="effect3_dropShadow_675_5556"/>
      <feBlend mode="normal" in="SourceGraphic" in2="effect3_dropShadow_675_5556" result="shape"/>
    </filter>
    <filter id="filter1_ddd_675_5556" x="5" y="-18" width="328" height="74" filterUnits="userSpaceOnUse"
            color-interpolation-filters="sRGB">
      <feFlood flood-opacity="0" result="BackgroundImageFix"/>
      <feColorMatrix in="SourceAlpha" type="matrix" values="0 0 0 0 0 0 0 0 0 0 0 0 0 0 0 0 0 0 127 0"
                     result="hardAlpha"/>
      <feOffset dy="5.09117"/>
      <feGaussianBlur stdDeviation="6.78823"/>
      <feComposite in2="hardAlpha" operator="out"/>
      <feColorMatrix type="matrix" values="0 0 0 0 0 0 0 0 0 0 0 0 0 0 0 0 0 0 0.04 0"/>
      <feBlend mode="normal" in2="BackgroundImageFix" result="effect1_dropShadow_675_5556"/>
      <feColorMatrix in="SourceAlpha" type="matrix" values="0 0 0 0 0 0 0 0 0 0 0 0 0 0 0 0 0 0 127 0"
                     result="hardAlpha"/>
      <feOffset dy="1"/>
      <feGaussianBlur stdDeviation="0.5"/>
      <feComposite in2="hardAlpha" operator="out"/>
      <feColorMatrix type="matrix" values="0 0 0 0 0 0 0 0 0 0 0 0 0 0 0 0 0 0 0.05 0"/>
      <feBlend mode="normal" in2="effect1_dropShadow_675_5556" result="effect2_dropShadow_675_5556"/>
      <feColorMatrix in="SourceAlpha" type="matrix" values="0 0 0 0 0 0 0 0 0 0 0 0 0 0 0 0 0 0 127 0"
                     result="hardAlpha"/>
      <feOffset dy="6"/>
      <feGaussianBlur stdDeviation="12"/>
      <feComposite in2="hardAlpha" operator="out"/>
      <feColorMatrix type="matrix" values="0 0 0 0 0 0 0 0 0 0 0 0 0 0 0 0 0 0 0.03 0"/>
      <feBlend mode="normal" in2="effect2_dropShadow_675_5556" result="effect3_dropShadow_675_5556"/>
      <feBlend mode="normal" in="SourceGraphic" in2="effect3_dropShadow_675_5556" result="shape"/>
    </filter>
    <linearGradient id="paint0_linear_675_5556" x1="181" y1="0" x2="181" y2="281.5" gradientUnits="userSpaceOnUse">
      <stop stop-color="white"/>
      <stop offset="0.781944" stop-color="white" stop-opacity="0.86"/>
      <stop offset="1" stop-color="white" stop-opacity="0"/>
    </linearGradient>
    <linearGradient id="paint1_linear_675_5556" x1="2" y1="308.779" x2="121.79" y2="208.152"
                    gradientUnits="userSpaceOnUse">
      <stop stop-color="#3044FE"/>
      <stop offset="1" stop-color="white" stop-opacity="0"/>
    </linearGradient>
    <linearGradient id="paint2_linear_675_5556" x1="265.038" y1="62.7059" x2="287" y2="62.7059"
                    gradientUnits="userSpaceOnUse">
      <stop stop-color="#4870FA"/>
      <stop offset="1" stop-color="#E4B6F9"/>
    </linearGradient>
    <linearGradient id="paint3_linear_675_5556" x1="266.698" y1="62.5882" x2="285" y2="62.5882"
                    gradientUnits="userSpaceOnUse">
      <stop stop-color="#4870FA"/>
      <stop offset="1" stop-color="#E4B6F9"/>
    </linearGradient>
    <linearGradient id="paint4_linear_675_5556" x1="16.8951" y1="264.11" x2="131.763" y2="264.11"
                    gradientUnits="userSpaceOnUse">
      <stop stop-color="#4870FA"/>
      <stop offset="1" stop-color="#E4B6F9"/>
    </linearGradient>
    <linearGradient id="paint5_linear_675_5556" x1="10.6578" y1="270.347" x2="125.525" y2="270.347"
                    gradientUnits="userSpaceOnUse">
      <stop stop-color="#4870FA"/>
      <stop offset="1" stop-color="#E4B6F9"/>
    </linearGradient>
    <linearGradient id="paint6_linear_675_5556" x1="23.1324" y1="257.872" x2="138" y2="257.872"
                    gradientUnits="userSpaceOnUse">
      <stop stop-color="#4870FA"/>
      <stop offset="1" stop-color="#E4B6F9"/>
    </linearGradient>
    <linearGradient id="paint7_linear_675_5556" x1="261.917" y1="204.238" x2="329.339" y2="204.238"
                    gradientUnits="userSpaceOnUse">
      <stop stop-color="#4870FA"/>
      <stop offset="1" stop-color="#E4B6F9"/>
    </linearGradient>
    <linearGradient id="paint8_linear_675_5556" x1="258.256" y1="207.899" x2="325.678" y2="207.899"
                    gradientUnits="userSpaceOnUse">
      <stop stop-color="#4870FA"/>
      <stop offset="1" stop-color="#E4B6F9"/>
    </linearGradient>
    <linearGradient id="paint9_linear_675_5556" x1="265.255" y1="200.289" x2="332.678" y2="200.289"
                    gradientUnits="userSpaceOnUse">
      <stop stop-color="#4870FA"/>
      <stop offset="1" stop-color="#E4B6F9"/>
    </linearGradient>
    <linearGradient id="paint10_linear_675_5556" x1="19.5849" y1="124.235" x2="69" y2="124.235"
                    gradientUnits="userSpaceOnUse">
      <stop stop-color="#4870FA"/>
      <stop offset="1" stop-color="#E4B6F9"/>
    </linearGradient>
    <linearGradient id="paint11_linear_675_5556" x1="16.6698" y1="128.235" x2="67" y2="128.235"
                    gradientUnits="userSpaceOnUse">
      <stop stop-color="#4870FA"/>
      <stop offset="1" stop-color="#E4B6F9"/>
    </linearGradient>
    <linearGradient id="paint12_linear_675_5556" x1="21.6698" y1="120.235" x2="72" y2="120.235"
                    gradientUnits="userSpaceOnUse">
      <stop stop-color="#4870FA"/>
      <stop offset="1" stop-color="#E4B6F9"/>
    </linearGradient>
  </defs>
</svg>
