<svg width="338" height="271" viewBox="0 0 338 271" fill="none" xmlns="http://www.w3.org/2000/svg">
  <g filter="url(#filter0_ddd_710_7215)">
    <rect x="28" y="11" width="280" height="250" rx="8" fill="white" fill-opacity="0.7" shape-rendering="crispEdges"/>
    <rect x="28.5" y="11.5" width="279" height="249" rx="7.5" stroke="url(#paint0_linear_710_7215)"
          shape-rendering="crispEdges"/>
  </g>
  <mask id="mask0_710_7215" style="mask-type:alpha" maskUnits="userSpaceOnUse" x="152" y="61" width="32" height="32">
    <rect x="152" y="61" width="32" height="32" rx="16" fill="url(#paint1_linear_710_7215)"/>
  </mask>
  <g mask="url(#mask0_710_7215)">
    <path
      d="M157.984 80.7003C158.695 82.5966 161.053 82.7827 162.925 82.01C163.146 81.9186 163.372 81.832 163.6 81.7503C165 81.2503 166.467 81.0003 168 81.0003C169.534 81.0003 171 81.2503 172.4 81.7503C172.629 81.832 172.854 81.9186 173.076 82.01C174.948 82.7827 177.306 82.5966 178.017 80.7003C178.45 79.5448 178.667 78.3114 178.667 77.0003C178.667 74.0448 177.628 71.5281 175.55 69.4503C173.473 67.3725 170.956 66.3337 168 66.3337C165.045 66.3337 162.528 67.3725 160.45 69.4503C158.373 71.5281 157.334 74.0448 157.334 77.0003C157.334 78.3114 157.55 79.5448 157.984 80.7003ZM168 78.3337C166.689 78.3337 165.584 77.8837 164.684 76.9837C163.784 76.0837 163.334 74.9781 163.334 73.667C163.334 72.3559 163.784 71.2503 164.684 70.3503C165.584 69.4503 166.689 69.0003 168 69.0003C169.311 69.0003 170.417 69.4503 171.317 70.3503C172.217 71.2503 172.667 72.3559 172.667 73.667C172.667 74.9781 172.217 76.0837 171.317 76.9837C170.417 77.8837 169.311 78.3337 168 78.3337ZM168 90.3337C166.156 90.3337 164.423 89.9837 162.8 89.2837C161.178 88.5837 159.767 87.6337 158.567 86.4337C157.367 85.2337 156.417 83.8225 155.717 82.2003C155.017 80.5781 154.667 78.8448 154.667 77.0003C154.667 75.1559 155.017 73.4225 155.717 71.8003C156.417 70.1781 157.367 68.767 158.567 67.567C159.767 66.367 161.178 65.417 162.8 64.717C164.423 64.017 166.156 63.667 168 63.667C169.845 63.667 171.578 64.017 173.2 64.717C174.823 65.417 176.234 66.367 177.434 67.567C178.634 68.767 179.584 70.1781 180.284 71.8003C180.984 73.4225 181.334 75.1559 181.334 77.0003C181.334 78.8448 180.984 80.5781 180.284 82.2003C179.584 83.8225 178.634 85.2337 177.434 86.4337C176.234 87.6337 174.823 88.5837 173.2 89.2837C171.578 89.9837 169.845 90.3337 168 90.3337Z"
      fill="url(#paint2_linear_710_7215)"/>
  </g>
  <path
    d="M117.616 117.192C116.592 117.192 115.733 116.899 115.04 116.312C114.346 115.715 114 114.856 114 113.736H116.288C116.288 114.152 116.41 114.472 116.656 114.696C116.912 114.92 117.232 115.032 117.616 115.032C118 115.032 118.314 114.925 118.56 114.712C118.816 114.488 118.944 114.163 118.944 113.736V105.64H121.248V113.896C121.248 114.984 120.901 115.805 120.208 116.36C119.514 116.915 118.65 117.192 117.616 117.192ZM126.562 117.176C125.506 117.176 124.615 116.765 123.89 115.944C123.164 115.123 122.802 114.141 122.802 113C122.802 111.859 123.164 110.877 123.89 110.056C124.615 109.235 125.506 108.824 126.562 108.824C127.074 108.824 127.532 108.931 127.938 109.144C128.343 109.357 128.652 109.608 128.866 109.896V109H131.058V117H128.866V116.104C128.652 116.392 128.343 116.643 127.938 116.856C127.532 117.069 127.074 117.176 126.562 117.176ZM125.554 114.568C125.927 114.973 126.418 115.176 127.026 115.176C127.634 115.176 128.119 114.973 128.482 114.568C128.855 114.163 129.042 113.64 129.042 113C129.042 112.36 128.855 111.837 128.482 111.432C128.119 111.027 127.634 110.824 127.026 110.824C126.418 110.824 125.927 111.027 125.554 111.432C125.191 111.837 125.01 112.36 125.01 113C125.01 113.64 125.191 114.163 125.554 114.568ZM143.269 117V112.728C143.269 111.459 142.853 110.824 142.021 110.824C141.541 110.824 141.157 111.005 140.869 111.368C140.591 111.731 140.442 112.269 140.421 112.984V117H138.229V112.728C138.229 111.459 137.813 110.824 136.981 110.824C136.49 110.824 136.101 111.016 135.813 111.4C135.525 111.784 135.381 112.349 135.381 113.096V117H133.189V109H135.381V109.912C135.882 109.187 136.591 108.824 137.509 108.824C138.629 108.824 139.455 109.315 139.989 110.296C140.223 109.837 140.575 109.48 141.045 109.224C141.514 108.957 141.989 108.824 142.469 108.824C143.418 108.824 144.154 109.139 144.677 109.768C145.199 110.397 145.461 111.261 145.461 112.36V117H143.269ZM151.198 117.176C149.982 117.176 148.969 116.792 148.158 116.024C147.358 115.256 146.958 114.248 146.958 113C146.958 111.805 147.358 110.813 148.158 110.024C148.958 109.224 149.961 108.824 151.166 108.824C152.275 108.824 153.209 109.171 153.966 109.864C154.723 110.547 155.102 111.512 155.102 112.76C155.102 113.112 155.091 113.363 155.07 113.512H149.086C149.15 114.035 149.379 114.445 149.774 114.744C150.179 115.032 150.659 115.176 151.214 115.176C152.153 115.176 152.841 114.84 153.278 114.168L154.91 115.384C154.089 116.579 152.851 117.176 151.198 117.176ZM149.166 112.024H152.91C152.814 111.565 152.595 111.219 152.254 110.984C151.923 110.749 151.539 110.632 151.102 110.632C150.654 110.632 150.243 110.749 149.87 110.984C149.497 111.219 149.262 111.565 149.166 112.024ZM159.408 117.176C157.893 117.176 156.795 116.664 156.112 115.64L157.616 114.36C158 114.979 158.597 115.288 159.408 115.288C159.653 115.288 159.861 115.24 160.032 115.144C160.203 115.048 160.288 114.904 160.288 114.712C160.288 114.541 160.213 114.403 160.064 114.296C159.925 114.179 159.643 114.061 159.216 113.944L158.624 113.8C157.888 113.608 157.328 113.288 156.944 112.84C156.571 112.392 156.395 111.859 156.416 111.24C156.437 110.515 156.725 109.933 157.28 109.496C157.845 109.048 158.56 108.824 159.424 108.824C160.651 108.824 161.573 109.272 162.192 110.168L160.752 111.336C160.379 110.867 159.925 110.632 159.392 110.632C159.179 110.632 158.992 110.68 158.832 110.776C158.672 110.872 158.592 111.005 158.592 111.176C158.592 111.496 158.853 111.725 159.376 111.864L160.128 112.088C161.675 112.504 162.448 113.331 162.448 114.568C162.448 115.325 162.16 115.949 161.584 116.44C161.008 116.931 160.283 117.176 159.408 117.176ZM166.164 117L171.06 105.64H173.124L178.036 117H175.604L174.5 114.408H169.652L168.564 117H166.164ZM172.084 108.696L170.516 112.376H173.636L172.084 108.696ZM179.095 117V109H181.287V110.28C181.426 109.885 181.676 109.56 182.039 109.304C182.412 109.037 182.823 108.904 183.271 108.904C183.548 108.904 183.794 108.936 184.007 109V111.224C183.655 111.107 183.324 111.048 183.015 111.048C182.492 111.048 182.071 111.24 181.751 111.624C181.442 111.997 181.287 112.515 181.287 113.176V117H179.095ZM188.854 117.176C187.66 117.176 186.652 116.781 185.83 115.992C185.02 115.192 184.614 114.195 184.614 113C184.614 111.805 185.02 110.813 185.83 110.024C186.652 109.224 187.66 108.824 188.854 108.824C189.676 108.824 190.422 109.037 191.094 109.464C191.777 109.88 192.294 110.435 192.646 111.128L190.742 112.152C190.572 111.768 190.321 111.459 189.99 111.224C189.67 110.989 189.292 110.872 188.854 110.872C188.278 110.872 187.793 111.075 187.398 111.48C187.014 111.885 186.822 112.392 186.822 113C186.822 113.608 187.014 114.115 187.398 114.52C187.793 114.925 188.278 115.128 188.854 115.128C189.292 115.128 189.67 115.011 189.99 114.776C190.321 114.541 190.572 114.232 190.742 113.848L192.646 114.872C192.294 115.565 191.777 116.125 191.094 116.552C190.422 116.968 189.676 117.176 188.854 117.176ZM197.296 117.176C196.24 117.176 195.35 116.765 194.624 115.944C193.899 115.123 193.536 114.141 193.536 113C193.536 111.859 193.899 110.877 194.624 110.056C195.35 109.235 196.24 108.824 197.296 108.824C197.808 108.824 198.267 108.931 198.672 109.144C199.078 109.357 199.387 109.608 199.6 109.896V109H201.792V117H199.6V116.104C199.387 116.392 199.078 116.643 198.672 116.856C198.267 117.069 197.808 117.176 197.296 117.176ZM196.288 114.568C196.662 114.973 197.152 115.176 197.76 115.176C198.368 115.176 198.854 114.973 199.216 114.568C199.59 114.163 199.776 113.64 199.776 113C199.776 112.36 199.59 111.837 199.216 111.432C198.854 111.027 198.368 110.824 197.76 110.824C197.152 110.824 196.662 111.027 196.288 111.432C195.926 111.837 195.744 112.36 195.744 113C195.744 113.64 195.926 114.163 196.288 114.568ZM203.923 117V109H206.115V109.912C206.606 109.187 207.369 108.824 208.403 108.824C209.363 108.824 210.115 109.144 210.659 109.784C211.214 110.413 211.491 111.256 211.491 112.312V117H209.299V112.68C209.299 112.093 209.177 111.64 208.931 111.32C208.686 110.989 208.339 110.824 207.891 110.824C207.358 110.824 206.926 111.016 206.595 111.4C206.275 111.784 206.115 112.349 206.115 113.096V117H203.923ZM216.749 117.176C215.693 117.176 214.803 116.765 214.077 115.944C213.352 115.123 212.989 114.141 212.989 113C212.989 111.859 213.352 110.877 214.077 110.056C214.803 109.235 215.693 108.824 216.749 108.824C217.261 108.824 217.72 108.931 218.125 109.144C218.531 109.357 218.84 109.608 219.053 109.896V105H221.245V117H219.053V116.104C218.84 116.392 218.531 116.643 218.125 116.856C217.72 117.069 217.261 117.176 216.749 117.176ZM215.741 114.568C216.115 114.973 216.605 115.176 217.213 115.176C217.821 115.176 218.307 114.973 218.669 114.568C219.043 114.163 219.229 113.64 219.229 113C219.229 112.36 219.043 111.837 218.669 111.432C218.307 111.027 217.821 110.824 217.213 110.824C216.605 110.824 216.115 111.027 215.741 111.432C215.379 111.837 215.197 112.36 215.197 113C215.197 113.64 215.379 114.163 215.741 114.568Z"
    fill="#1F2124"/>
  <rect opacity="0.05" x="113.5" y="137" width="106" height="17" rx="8.5" fill="#1F2124"/>
  <rect x="52" y="178" width="232" height="1" fill="black" fill-opacity="0.05"/>
  <rect opacity="0.05" x="52" y="203" width="232" height="12" rx="6" fill="#1F2124"/>
  <rect opacity="0.05" x="89.6748" y="225" width="155.658" height="12" rx="6" fill="#1F2124"/>
  <g filter="url(#filter1_ddd_710_7215)">
    <path d="M28 19C28 14.5817 31.5817 11 36 11H300C304.418 11 308 14.5817 308 19V37H28V19Z" fill="white"
          fill-opacity="0.7" shape-rendering="crispEdges"/>
  </g>
  <circle cx="39" cy="24" r="3" fill="#EC6A5E"/>
  <circle cx="47" cy="24" r="3" fill="#F5BF4F"/>
  <circle cx="55" cy="24" r="3" fill="#61C554"/>
  <rect x="3" y="145" width="54" height="42" rx="7.32203" fill="url(#paint3_linear_710_7215)" fill-opacity="0.3"/>
  <rect y="149" width="55" height="42" rx="7.32203" fill="url(#paint4_linear_710_7215)" fill-opacity="0.1"/>
  <rect x="5" y="141" width="55" height="42" rx="7.32203" fill="url(#paint5_linear_710_7215)"/>
  <mask id="mask1_710_7215" style="mask-type:alpha" maskUnits="userSpaceOnUse" x="21" y="150" width="24" height="24">
    <rect x="21" y="150" width="24" height="24" fill="#D9D9D9"/>
  </mask>
  <g mask="url(#mask1_710_7215)">
    <path
      d="M33 172C31.6167 172 30.3167 171.737 29.1 171.212C27.8833 170.688 26.825 169.975 25.925 169.075C25.025 168.175 24.3125 167.117 23.7875 165.9C23.2625 164.683 23 163.383 23 162C23 160.617 23.2625 159.317 23.7875 158.1C24.3125 156.883 25.025 155.825 25.925 154.925C26.825 154.025 27.8833 153.312 29.1 152.788C30.3167 152.262 31.6167 152 33 152C34.3833 152 35.6833 152.262 36.9 152.788C38.1167 153.312 39.175 154.025 40.075 154.925C40.975 155.825 41.6875 156.883 42.2125 158.1C42.7375 159.317 43 160.617 43 162C43 163.383 42.7375 164.683 42.2125 165.9C41.6875 167.117 40.975 168.175 40.075 169.075C39.175 169.975 38.1167 170.688 36.9 171.212C35.6833 171.737 34.3833 172 33 172ZM33 170C35.2333 170 37.125 169.225 38.675 167.675C40.225 166.125 41 164.233 41 162C41 161.883 40.9958 161.762 40.9875 161.637C40.9792 161.512 40.975 161.408 40.975 161.325C40.8917 161.808 40.6667 162.208 40.3 162.525C39.9333 162.842 39.5 163 39 163H37C36.45 163 35.9792 162.804 35.5875 162.413C35.1958 162.021 35 161.55 35 161V160H31V158C31 157.45 31.1958 156.979 31.5875 156.588C31.9792 156.196 32.45 156 33 156H34C34 155.617 34.1042 155.279 34.3125 154.987C34.5208 154.696 34.775 154.458 35.075 154.275C34.7417 154.192 34.4042 154.125 34.0625 154.075C33.7208 154.025 33.3667 154 33 154C30.7667 154 28.875 154.775 27.325 156.325C25.775 157.875 25 159.767 25 162H30C31.1 162 32.0417 162.392 32.825 163.175C33.6083 163.958 34 164.9 34 166V167H31V169.75C31.3333 169.833 31.6625 169.896 31.9875 169.938C32.3125 169.979 32.65 170 33 170Z"
      fill="white"/>
  </g>
  <rect x="281" y="191" width="54" height="42" rx="7.32203" fill="url(#paint6_linear_710_7215)" fill-opacity="0.3"/>
  <rect x="278" y="195" width="55" height="42" rx="7.32203" fill="url(#paint7_linear_710_7215)" fill-opacity="0.1"/>
  <rect x="283" y="187" width="55" height="42" rx="7.32203" fill="url(#paint8_linear_710_7215)"/>
  <mask id="mask2_710_7215" style="mask-type:alpha" maskUnits="userSpaceOnUse" x="299" y="196" width="24" height="24">
    <rect x="299" y="196" width="24" height="24" fill="#D9D9D9"/>
  </mask>
  <g mask="url(#mask2_710_7215)">
    <path
      d="M308.4 215.55C308.1 215 307.838 214.429 307.613 213.838C307.388 213.246 307.2 212.633 307.05 212H304.1C304.583 212.833 305.188 213.558 305.912 214.175C306.637 214.792 307.467 215.25 308.4 215.55ZM303.25 210H306.65C306.6 209.667 306.562 209.337 306.537 209.012C306.512 208.688 306.5 208.35 306.5 208C306.5 207.65 306.512 207.312 306.537 206.988C306.562 206.663 306.6 206.333 306.65 206H303.25C303.167 206.333 303.104 206.663 303.062 206.988C303.021 207.312 303 207.65 303 208C303 208.35 303.021 208.688 303.062 209.012C303.104 209.337 303.167 209.667 303.25 210ZM304.1 204H307.05C307.2 203.367 307.388 202.754 307.613 202.162C307.838 201.571 308.1 201 308.4 200.45C307.467 200.75 306.637 201.208 305.912 201.825C305.188 202.442 304.583 203.167 304.1 204ZM309.1 204H312.9C312.7 203.267 312.442 202.575 312.125 201.925C311.808 201.275 311.433 200.65 311 200.05C310.567 200.65 310.192 201.275 309.875 201.925C309.558 202.575 309.3 203.267 309.1 204ZM314.95 204H317.9C317.417 203.167 316.813 202.442 316.088 201.825C315.363 201.208 314.533 200.75 313.6 200.45C313.9 201 314.162 201.571 314.387 202.162C314.613 202.754 314.8 203.367 314.95 204ZM311 218C309.633 218 308.342 217.737 307.125 217.212C305.908 216.688 304.846 215.971 303.938 215.062C303.029 214.154 302.312 213.092 301.788 211.875C301.262 210.658 301 209.367 301 208C301 206.617 301.262 205.321 301.788 204.113C302.312 202.904 303.029 201.846 303.938 200.938C304.846 200.029 305.908 199.312 307.125 198.788C308.342 198.262 309.633 198 311 198C312.383 198 313.679 198.262 314.887 198.788C316.096 199.312 317.154 200.029 318.062 200.938C318.971 201.846 319.688 202.904 320.212 204.113C320.737 205.321 321 206.617 321 208C321 208.167 320.996 208.333 320.988 208.5C320.979 208.667 320.967 208.833 320.95 209H318.925C318.958 208.833 318.979 208.671 318.988 208.512C318.996 208.354 319 208.183 319 208C319 207.65 318.979 207.312 318.938 206.988C318.896 206.663 318.833 206.333 318.75 206H315.35C315.4 206.333 315.438 206.663 315.463 206.988C315.488 207.312 315.5 207.65 315.5 208V208.512C315.5 208.671 315.492 208.833 315.475 209H313.475C313.492 208.833 313.5 208.671 313.5 208.512V208C313.5 207.65 313.488 207.312 313.463 206.988C313.438 206.663 313.4 206.333 313.35 206H308.65C308.6 206.333 308.562 206.663 308.537 206.988C308.512 207.312 308.5 207.65 308.5 208C308.5 208.35 308.512 208.688 308.537 209.012C308.562 209.337 308.6 209.667 308.65 210H312V212H309.1C309.3 212.733 309.558 213.425 309.875 214.075C310.192 214.725 310.567 215.35 311 215.95C311.183 215.683 311.358 215.413 311.525 215.138C311.692 214.863 311.85 214.583 312 214.3V217.95C311.833 217.967 311.671 217.979 311.512 217.988C311.354 217.996 311.183 218 311 218ZM316 214.425V215.65C316 215.933 315.904 216.171 315.713 216.363C315.521 216.554 315.283 216.65 315 216.65C314.717 216.65 314.479 216.554 314.288 216.363C314.096 216.171 314 215.933 314 215.65V212C314 211.717 314.096 211.479 314.288 211.288C314.479 211.096 314.717 211 315 211H318.65C318.933 211 319.171 211.096 319.363 211.288C319.554 211.479 319.65 211.717 319.65 212C319.65 212.283 319.554 212.521 319.363 212.713C319.171 212.904 318.933 213 318.65 213H317.4L319.65 215.25C319.833 215.433 319.925 215.663 319.925 215.938C319.925 216.212 319.833 216.45 319.65 216.65C319.45 216.85 319.212 216.95 318.938 216.95C318.663 216.95 318.425 216.85 318.225 216.65L316 214.425Z"
      fill="white"/>
  </g>
  <defs>
    <filter id="filter0_ddd_710_7215" x="4" y="-7" width="328" height="298" filterUnits="userSpaceOnUse"
            color-interpolation-filters="sRGB">
      <feFlood flood-opacity="0" result="BackgroundImageFix"/>
      <feColorMatrix in="SourceAlpha" type="matrix" values="0 0 0 0 0 0 0 0 0 0 0 0 0 0 0 0 0 0 127 0"
                     result="hardAlpha"/>
      <feOffset dy="5.09117"/>
      <feGaussianBlur stdDeviation="6.78823"/>
      <feComposite in2="hardAlpha" operator="out"/>
      <feColorMatrix type="matrix" values="0 0 0 0 0 0 0 0 0 0 0 0 0 0 0 0 0 0 0.04 0"/>
      <feBlend mode="normal" in2="BackgroundImageFix" result="effect1_dropShadow_710_7215"/>
      <feColorMatrix in="SourceAlpha" type="matrix" values="0 0 0 0 0 0 0 0 0 0 0 0 0 0 0 0 0 0 127 0"
                     result="hardAlpha"/>
      <feOffset dy="1"/>
      <feGaussianBlur stdDeviation="0.5"/>
      <feComposite in2="hardAlpha" operator="out"/>
      <feColorMatrix type="matrix" values="0 0 0 0 0 0 0 0 0 0 0 0 0 0 0 0 0 0 0.05 0"/>
      <feBlend mode="normal" in2="effect1_dropShadow_710_7215" result="effect2_dropShadow_710_7215"/>
      <feColorMatrix in="SourceAlpha" type="matrix" values="0 0 0 0 0 0 0 0 0 0 0 0 0 0 0 0 0 0 127 0"
                     result="hardAlpha"/>
      <feOffset dy="6"/>
      <feGaussianBlur stdDeviation="12"/>
      <feComposite in2="hardAlpha" operator="out"/>
      <feColorMatrix type="matrix" values="0 0 0 0 0 0 0 0 0 0 0 0 0 0 0 0 0 0 0.03 0"/>
      <feBlend mode="normal" in2="effect2_dropShadow_710_7215" result="effect3_dropShadow_710_7215"/>
      <feBlend mode="normal" in="SourceGraphic" in2="effect3_dropShadow_710_7215" result="shape"/>
    </filter>
    <filter id="filter1_ddd_710_7215" x="4" y="-7" width="328" height="74" filterUnits="userSpaceOnUse"
            color-interpolation-filters="sRGB">
      <feFlood flood-opacity="0" result="BackgroundImageFix"/>
      <feColorMatrix in="SourceAlpha" type="matrix" values="0 0 0 0 0 0 0 0 0 0 0 0 0 0 0 0 0 0 127 0"
                     result="hardAlpha"/>
      <feOffset dy="5.09117"/>
      <feGaussianBlur stdDeviation="6.78823"/>
      <feComposite in2="hardAlpha" operator="out"/>
      <feColorMatrix type="matrix" values="0 0 0 0 0 0 0 0 0 0 0 0 0 0 0 0 0 0 0.04 0"/>
      <feBlend mode="normal" in2="BackgroundImageFix" result="effect1_dropShadow_710_7215"/>
      <feColorMatrix in="SourceAlpha" type="matrix" values="0 0 0 0 0 0 0 0 0 0 0 0 0 0 0 0 0 0 127 0"
                     result="hardAlpha"/>
      <feOffset dy="1"/>
      <feGaussianBlur stdDeviation="0.5"/>
      <feComposite in2="hardAlpha" operator="out"/>
      <feColorMatrix type="matrix" values="0 0 0 0 0 0 0 0 0 0 0 0 0 0 0 0 0 0 0.05 0"/>
      <feBlend mode="normal" in2="effect1_dropShadow_710_7215" result="effect2_dropShadow_710_7215"/>
      <feColorMatrix in="SourceAlpha" type="matrix" values="0 0 0 0 0 0 0 0 0 0 0 0 0 0 0 0 0 0 127 0"
                     result="hardAlpha"/>
      <feOffset dy="6"/>
      <feGaussianBlur stdDeviation="12"/>
      <feComposite in2="hardAlpha" operator="out"/>
      <feColorMatrix type="matrix" values="0 0 0 0 0 0 0 0 0 0 0 0 0 0 0 0 0 0 0.03 0"/>
      <feBlend mode="normal" in2="effect2_dropShadow_710_7215" result="effect3_dropShadow_710_7215"/>
      <feBlend mode="normal" in="SourceGraphic" in2="effect3_dropShadow_710_7215" result="shape"/>
    </filter>
    <linearGradient id="paint0_linear_710_7215" x1="0.999999" y1="288.679" x2="110.113" y2="186.756"
                    gradientUnits="userSpaceOnUse">
      <stop stop-color="#3044FE"/>
      <stop offset="1" stop-color="white" stop-opacity="0"/>
    </linearGradient>
    <linearGradient id="paint1_linear_710_7215" x1="154.717" y1="77.9412" x2="184" y2="77.9412"
                    gradientUnits="userSpaceOnUse">
      <stop stop-color="#4870FA"/>
      <stop offset="1" stop-color="#E4B6F9"/>
    </linearGradient>
    <linearGradient id="paint2_linear_710_7215" x1="156.931" y1="77.7846" x2="181.334" y2="77.7846"
                    gradientUnits="userSpaceOnUse">
      <stop stop-color="#4870FA"/>
      <stop offset="1" stop-color="#E4B6F9"/>
    </linearGradient>
    <linearGradient id="paint3_linear_710_7215" x1="7.58491" y1="167.235" x2="57" y2="167.235"
                    gradientUnits="userSpaceOnUse">
      <stop stop-color="#4870FA"/>
      <stop offset="1" stop-color="#E4B6F9"/>
    </linearGradient>
    <linearGradient id="paint4_linear_710_7215" x1="4.66981" y1="171.235" x2="55" y2="171.235"
                    gradientUnits="userSpaceOnUse">
      <stop stop-color="#4870FA"/>
      <stop offset="1" stop-color="#E4B6F9"/>
    </linearGradient>
    <linearGradient id="paint5_linear_710_7215" x1="9.66981" y1="163.235" x2="60" y2="163.235"
                    gradientUnits="userSpaceOnUse">
      <stop stop-color="#4870FA"/>
      <stop offset="1" stop-color="#E4B6F9"/>
    </linearGradient>
    <linearGradient id="paint6_linear_710_7215" x1="285.585" y1="213.235" x2="335" y2="213.235"
                    gradientUnits="userSpaceOnUse">
      <stop stop-color="#4870FA"/>
      <stop offset="1" stop-color="#E4B6F9"/>
    </linearGradient>
    <linearGradient id="paint7_linear_710_7215" x1="282.67" y1="217.235" x2="333" y2="217.235"
                    gradientUnits="userSpaceOnUse">
      <stop stop-color="#4870FA"/>
      <stop offset="1" stop-color="#E4B6F9"/>
    </linearGradient>
    <linearGradient id="paint8_linear_710_7215" x1="287.67" y1="209.235" x2="338" y2="209.235"
                    gradientUnits="userSpaceOnUse">
      <stop stop-color="#4870FA"/>
      <stop offset="1" stop-color="#E4B6F9"/>
    </linearGradient>
  </defs>
</svg>
