<svg width="362" height="296" viewBox="0 0 362 296" fill="none" xmlns="http://www.w3.org/2000/svg">
  <mask id="mask0_675_5535" style="mask-type:alpha" maskUnits="userSpaceOnUse" x="0" y="0" width="362" height="296">
    <rect width="362" height="296" fill="url(#paint0_linear_675_5535)"/>
  </mask>
  <g mask="url(#mask0_675_5535)">
    <g opacity="0.1">
      <rect x="92.5237" y="3.2793" width="195" height="112" rx="11.8571" transform="rotate(6 92.5237 3.2793)"
            fill="url(#paint1_linear_675_5535)"/>
      <path
        d="M105.394 31.6014L106.274 23.229L108.149 23.426L107.269 31.7985L105.394 31.6014ZM111.098 32.3321C110.336 32.252 109.719 31.8812 109.248 31.2196C108.785 30.5589 108.597 29.808 108.686 28.9668C108.774 28.1257 109.114 27.4301 109.704 26.8801C110.302 26.331 110.983 26.0965 111.745 26.1766C112.421 26.2477 112.931 26.5436 113.273 27.0645L113.645 23.5268L115.426 23.714L114.496 32.5581L112.715 32.371L112.777 31.7814C112.334 32.2196 111.774 32.4032 111.098 32.3321ZM110.733 30.2432C110.956 30.5447 111.268 30.7166 111.669 30.7587C112.07 30.8009 112.407 30.6972 112.679 30.4477C112.96 30.1989 113.122 29.8623 113.167 29.4378C113.211 29.0133 113.122 28.6502 112.9 28.3486C112.685 28.0479 112.377 27.8764 111.976 27.8343C111.575 27.7921 111.235 27.8954 110.954 28.1441C110.681 28.3937 110.523 28.7307 110.478 29.1552C110.434 29.5797 110.519 29.9424 110.733 30.2432ZM118.731 33.1344C117.843 33.041 117.125 32.6834 116.578 32.0617C116.04 31.4328 115.82 30.6546 115.918 29.7269C116.01 28.8465 116.382 28.1463 117.033 27.6265C117.684 27.0989 118.454 26.8818 119.343 26.9751C120.168 27.0619 120.837 27.3866 121.35 27.9492C121.864 28.5118 122.072 29.2491 121.976 30.1611C121.952 30.389 121.919 30.5961 121.875 30.7823L117.595 30.3324C117.606 30.6754 117.74 30.9518 117.996 31.1615C118.253 31.3634 118.563 31.4833 118.924 31.5213C119.247 31.5552 119.54 31.5225 119.805 31.4231C120.071 31.3159 120.276 31.1746 120.422 30.9991L121.638 32.1285C121.313 32.4997 120.899 32.778 120.394 32.9634C119.891 33.141 119.336 33.198 118.731 33.1344ZM117.765 29.1699L120.265 29.4327C120.224 29.1344 120.098 28.8986 119.886 28.7252C119.674 28.5519 119.426 28.4504 119.143 28.4206C118.844 28.3892 118.565 28.4354 118.306 28.5592C118.047 28.675 117.867 28.8786 117.765 29.1699ZM122.768 33.4275L123.387 27.5314L125.168 27.7185L125.105 28.32C125.494 27.8681 126.066 27.6818 126.821 27.7611C127.536 27.8363 128.069 28.1347 128.419 28.6564C128.778 29.1789 128.916 29.8333 128.833 30.6194L128.475 34.0274L126.694 33.8402L127.02 30.7389C127.112 29.8662 126.839 29.3965 126.203 29.3295C125.849 29.2924 125.548 29.3919 125.301 29.6282C125.054 29.8645 124.903 30.2381 124.849 30.7491L124.548 33.6146L122.768 33.4275ZM132.792 34.5526C132.1 34.4799 131.55 34.2313 131.141 33.8069C130.742 33.3754 130.58 32.798 130.656 32.0748L130.886 29.8814L129.707 29.7575L129.869 28.2127L131.049 28.3366L131.221 26.6975L133.002 26.8847L132.829 28.5238L134.48 28.6973L134.318 30.2421L132.667 30.0686L132.475 31.8964C132.438 32.2501 132.489 32.5139 132.63 32.6876C132.771 32.8614 133.018 32.9669 133.372 33.004C133.639 33.0321 133.859 33.0195 134.031 32.9661L133.865 34.5462C133.598 34.5976 133.24 34.5997 132.792 34.5526ZM136.574 28.1067C136.275 28.0753 136.027 27.9419 135.829 27.7065C135.632 27.4632 135.55 27.1883 135.582 26.8817C135.614 26.5751 135.752 26.3273 135.994 26.1381C136.237 25.9411 136.508 25.8583 136.807 25.8897C137.122 25.9228 137.373 26.0605 137.563 26.303C137.76 26.5384 137.843 26.8094 137.811 27.116C137.779 27.4226 137.641 27.6743 137.398 27.8713C137.163 28.0613 136.889 28.1397 136.574 28.1067ZM134.986 34.7117L135.605 28.8156L137.386 29.0027L136.766 34.8988L134.986 34.7117ZM141.233 35.4398C140.541 35.3671 139.991 35.1185 139.582 34.6941C139.183 34.2626 139.021 33.6852 139.097 32.962L139.327 30.7686L138.148 30.6447L138.311 29.0999L139.49 29.2238L139.662 27.5847L141.443 27.7719L141.27 29.411L142.921 29.5845L142.759 31.1293L141.108 30.9558L140.916 32.7836C140.879 33.1373 140.93 33.4011 141.071 33.5748C141.212 33.7486 141.459 33.8541 141.813 33.8912C142.08 33.9193 142.3 33.9067 142.473 33.8533L142.306 35.4334C142.039 35.4848 141.681 35.4869 141.233 35.4398ZM145.585 38.3175L143.663 38.1155L145.184 35.4379L143.315 29.6259L145.261 29.8304L146.34 33.6279L148.174 30.1366L150.131 30.3423L145.585 38.3175Z"
        fill="white"/>
    </g>
    <g opacity="0.1">
      <rect x="76.4561" y="12.6514" width="225" height="129" rx="13.7143" transform="rotate(6 76.4561 12.6514)"
            fill="url(#paint2_linear_675_5535)"/>
      <path
        d="M91.373 42.5171L92.3908 32.8333L94.5594 33.0613L93.5416 42.7451L91.373 42.5171ZM97.9709 43.3623C97.0889 43.2696 96.3755 42.8407 95.8308 42.0755C95.2951 41.3114 95.0785 40.4428 95.1807 39.4699C95.283 38.497 95.6755 37.6925 96.3583 37.0563C97.0502 36.4212 97.8372 36.15 98.7192 36.2427C99.5011 36.3248 100.09 36.6672 100.487 37.2696L100.917 33.1779L102.976 33.3943L101.901 43.6237L99.8415 43.4072L99.9132 42.7253C99.4003 43.2321 98.7528 43.4445 97.9709 43.3623ZM97.5491 40.9461C97.8066 41.2949 98.1672 41.4937 98.631 41.5425C99.0947 41.5912 99.4842 41.4713 99.7996 41.1827C100.124 40.895 100.312 40.5057 100.364 40.0146C100.415 39.5236 100.312 39.1037 100.055 38.7549C99.8063 38.407 99.4502 38.2087 98.9865 38.16C98.5228 38.1112 98.1287 38.2307 97.8043 38.5183C97.4889 38.807 97.3055 39.1968 97.2539 39.6878C97.2023 40.1788 97.3007 40.5982 97.5491 40.9461ZM106.799 44.2902C105.772 44.1822 104.942 43.7686 104.31 43.0494C103.687 42.3221 103.433 41.422 103.545 40.3491C103.652 39.3307 104.082 38.5209 104.835 37.9197C105.589 37.3094 106.479 37.0583 107.507 37.1663C108.461 37.2666 109.235 37.6422 109.829 38.2929C110.423 38.9436 110.664 39.7964 110.553 40.8512C110.525 41.1149 110.486 41.3544 110.436 41.5697L105.485 41.0494C105.499 41.4461 105.653 41.7657 105.95 42.0083C106.247 42.2418 106.605 42.3805 107.023 42.4245C107.396 42.4637 107.735 42.4258 108.041 42.3109C108.349 42.1869 108.587 42.0235 108.755 41.8205L110.162 43.1268C109.786 43.5561 109.306 43.878 108.723 44.0925C108.141 44.2979 107.499 44.3638 106.799 44.2902ZM105.682 39.7048L108.573 40.0087C108.527 39.6637 108.381 39.3909 108.135 39.1905C107.89 38.99 107.603 38.8725 107.276 38.8381C106.93 38.8018 106.607 38.8552 106.307 38.9984C106.008 39.1324 105.8 39.3679 105.682 39.7048ZM111.468 44.6292L112.185 37.8096L114.244 38.0261L114.171 38.7217C114.621 38.199 115.283 37.9836 116.156 38.0753C116.983 38.1623 117.6 38.5075 118.005 39.1109C118.42 39.7152 118.579 40.472 118.484 41.3813L118.069 45.323L116.01 45.1066L116.387 41.5195C116.493 40.5102 116.178 39.9668 115.441 39.8894C115.032 39.8464 114.684 39.9616 114.398 40.2349C114.112 40.5082 113.938 40.9403 113.876 41.5314L113.527 44.8457L111.468 44.6292ZM123.062 45.9306C122.262 45.8465 121.626 45.5589 121.153 45.068C120.691 44.569 120.504 43.9012 120.592 43.0646L120.858 40.5277L119.494 40.3844L119.682 38.5977L121.046 38.741L121.245 36.8452L123.305 37.0616L123.106 38.9575L125.015 39.1582L124.827 40.9449L122.918 40.7442L122.696 42.8583C122.653 43.2674 122.713 43.5725 122.875 43.7735C123.038 43.9745 123.324 44.0964 123.733 44.1394C124.042 44.1719 124.297 44.1573 124.496 44.0955L124.304 45.9232C123.994 45.9826 123.581 45.985 123.062 45.9306ZM127.437 38.475C127.092 38.4387 126.804 38.2844 126.576 38.0121C126.348 37.7308 126.253 37.4128 126.29 37.0582C126.327 36.7036 126.486 36.4169 126.766 36.1981C127.048 35.9703 127.361 35.8745 127.707 35.9109C128.07 35.9491 128.362 36.1084 128.58 36.3888C128.809 36.6611 128.905 36.9745 128.868 37.3291C128.83 37.6837 128.671 37.975 128.39 38.2028C128.118 38.4225 127.801 38.5132 127.437 38.475ZM125.6 46.1145L126.317 39.295L128.376 39.5114L127.659 46.331L125.6 46.1145ZM132.825 46.9567C132.025 46.8726 131.389 46.5851 130.917 46.0942C130.454 45.5951 130.267 44.9273 130.355 44.0908L130.622 41.5539L129.258 41.4105L129.445 39.6238L130.809 39.7672L131.009 37.8713L133.068 38.0878L132.869 39.9836L134.778 40.1843L134.591 41.971L132.681 41.7704L132.459 43.8844C132.416 44.2936 132.476 44.5987 132.638 44.7996C132.801 45.0006 133.087 45.1226 133.496 45.1656C133.805 45.1981 134.06 45.1835 134.259 45.1217L134.067 46.9493C133.758 47.0087 133.344 47.0112 132.825 46.9567ZM137.86 50.2852L135.636 50.0515L137.396 46.9545L135.234 40.2322L137.485 40.4688L138.733 44.861L140.854 40.8229L143.118 41.0608L137.86 50.2852Z"
        fill="white"/>
    </g>
    <rect x="56.4104" y="21.6055" width="263" height="150" rx="16" transform="rotate(6 56.4104 21.6055)"
          fill="url(#paint3_linear_675_5535)"/>
    <path
      d="M74.0449 56.6403L75.2323 45.3426L77.7624 45.6085L76.575 56.9062L74.0449 56.6403ZM81.7424 57.6263C80.7134 57.5182 79.8811 57.0178 79.2456 56.1251C78.6207 55.2336 78.3679 54.2203 78.4872 53.0852C78.6065 51.9501 79.0645 51.0115 79.8611 50.2694C80.6683 49.5284 81.5864 49.2119 82.6154 49.3201C83.5277 49.416 84.2151 49.8153 84.6775 50.5182L85.1792 45.7445L87.582 45.997L86.3276 57.9313L83.9248 57.6787L84.0085 56.8831C83.41 57.4745 82.6547 57.7222 81.7424 57.6263ZM81.2503 54.8075C81.5508 55.2144 81.9715 55.4463 82.5125 55.5032C83.0535 55.5601 83.508 55.4201 83.8759 55.0834C84.2544 54.7478 84.4737 54.2936 84.5339 53.7207C84.5941 53.1479 84.474 52.658 84.1736 52.251C83.8837 51.8452 83.4683 51.6138 82.9273 51.5569C82.3863 51.5001 81.9265 51.6394 81.548 51.9751C81.1801 52.3118 80.9661 52.7666 80.9059 53.3394C80.8457 53.9123 80.9605 54.4016 81.2503 54.8075ZM92.0421 58.7089C90.8434 58.5829 89.8752 58.1004 89.1375 57.2613C88.4116 56.4128 88.1144 55.3627 88.246 54.1109C88.3708 52.9228 88.8723 51.978 89.7505 51.2766C90.6297 50.5646 91.6687 50.2716 92.8674 50.3976C93.9813 50.5147 94.8844 50.9528 95.5769 51.712C96.2693 52.4712 96.5509 53.4661 96.4215 54.6967C96.3892 55.0043 96.3437 55.2838 96.2851 55.535L90.509 54.9279C90.5247 55.3907 90.7053 55.7637 91.051 56.0467C91.3977 56.3191 91.8151 56.4809 92.3031 56.5322C92.738 56.5779 93.1341 56.5338 93.4915 56.3997C93.8499 56.2551 94.1273 56.0644 94.3238 55.8276L95.9655 57.3515C95.5268 57.8524 94.9671 58.228 94.2865 58.4782C93.6071 58.7178 92.859 58.7947 92.0421 58.7089ZM90.7382 53.3593L94.1116 53.7138C94.0574 53.3113 93.887 52.9931 93.6006 52.7592C93.3141 52.5253 92.98 52.3883 92.5981 52.3481C92.1949 52.3058 91.8184 52.3681 91.4683 52.5351C91.1194 52.6915 90.876 52.9662 90.7382 53.3593ZM97.489 59.1044L98.3252 51.1482L100.728 51.4008L100.643 52.2123C101.168 51.6025 101.94 51.3512 102.958 51.4582C103.924 51.5597 104.643 51.9624 105.116 52.6663C105.599 53.3714 105.785 54.2544 105.674 55.3152L105.191 59.9139L102.788 59.6613L103.228 55.4764C103.351 54.2989 102.984 53.665 102.124 53.5746C101.647 53.5245 101.241 53.6588 100.908 53.9777C100.574 54.2965 100.371 54.8007 100.298 55.4902L99.8918 59.3569L97.489 59.1044ZM111.016 60.6226C110.082 60.5245 109.34 60.1891 108.789 59.6163C108.249 59.0341 108.031 58.255 108.133 57.279L108.444 54.3193L106.853 54.1521L107.072 52.0676L108.664 52.2348L108.896 50.023L111.299 50.2755L111.066 52.4874L113.294 52.7215L113.075 54.806L110.847 54.5719L110.588 57.0383C110.538 57.5157 110.608 57.8716 110.798 58.106C110.987 58.3405 111.321 58.4828 111.798 58.533C112.159 58.5709 112.456 58.5538 112.689 58.4818L112.464 60.614C112.103 60.6833 111.62 60.6862 111.016 60.6226ZM116.12 51.9245C115.717 51.8821 115.382 51.7021 115.115 51.3845C114.849 51.0562 114.738 50.6853 114.781 50.2715C114.825 49.8578 115.01 49.5233 115.337 49.2681C115.665 49.0023 116.031 48.8906 116.434 48.933C116.858 48.9776 117.198 49.1634 117.453 49.4906C117.72 49.8082 117.832 50.1739 117.789 50.5876C117.745 51.0013 117.559 51.3411 117.231 51.6069C116.914 51.8632 116.544 51.9691 116.12 51.9245ZM113.976 60.8373L114.813 52.8811L117.215 53.1337L116.379 61.0898L113.976 60.8373ZM122.406 61.8198C121.473 61.7217 120.73 61.3863 120.179 60.8135C119.64 60.2313 119.421 59.4522 119.524 58.4762L119.835 55.5165L118.244 55.3493L118.463 53.2648L120.054 53.432L120.286 51.2202L122.689 51.4727L122.457 53.6845L124.684 53.9187L124.465 56.0032L122.238 55.7691L121.978 58.2355C121.928 58.7128 121.998 59.0688 122.188 59.3032C122.378 59.5377 122.711 59.68 123.189 59.7302C123.549 59.7681 123.846 59.751 124.079 59.679L123.855 61.8112C123.494 61.8805 123.011 61.8834 122.406 61.8198ZM128.279 65.703L125.685 65.4304L127.738 61.8172L125.216 53.9746L127.842 54.2505L129.298 59.3749L131.772 54.6636L134.414 54.9413L128.279 65.703Z"
      fill="white"/>
    <g filter="url(#filter0_bddd_675_5535)">
      <rect x="19" y="77" width="327" height="207" rx="12" fill="white" fill-opacity="0.8"
            shape-rendering="crispEdges"/>
      <rect x="19.5" y="77.5" width="326" height="206" rx="11.5" stroke="url(#paint4_linear_675_5535)"
            shape-rendering="crispEdges"/>
    </g>
    <path fill-rule="evenodd" clip-rule="evenodd"
          d="M58.029 255.631C51.6161 254.36 47 248.78 47 242.299V237.882C47 234.081 50.1091 231 53.9444 231H65.0555C68.8907 231 72 234.081 72 237.882V242.299C71.9998 248.78 67.3836 254.36 60.9709 255.631C59.9999 255.823 59 255.823 58.029 255.631ZM55.3332 241.242C55.7618 241.242 56.1092 241.587 56.1092 242.011V246.14C56.1092 246.565 55.7618 246.909 55.3332 246.909C54.9047 246.909 54.5573 246.565 54.5573 246.14V242.011C54.5573 241.587 54.9047 241.242 55.3332 241.242ZM60.2761 241.897C60.2761 241.472 59.9287 241.128 59.5001 241.128C59.0716 241.128 58.7242 241.472 58.7242 241.897V246.141C58.7242 246.565 59.0716 246.91 59.5001 246.91C59.9287 246.91 60.2761 246.565 60.2761 246.141V241.897ZM59.4972 237.113L59.5002 237.113C62.2299 237.113 64.4427 239.306 64.4427 242.011V246.14C64.4427 246.565 64.0953 246.909 63.6668 246.909C63.2382 246.909 62.8908 246.565 62.8908 246.14V242.011C62.8908 240.156 61.3736 238.652 59.5016 238.651C58.8825 238.654 58.2762 238.826 57.7498 239.149C57.3855 239.373 56.9072 239.261 56.6816 238.9C56.4559 238.539 56.5683 238.065 56.9326 237.842C57.7032 237.369 58.5909 237.116 59.4972 237.113Z"
          fill="#4E3261" fill-opacity="0.6"/>
    <rect x="27.5" y="84.5" width="310" height="192" rx="7.5" stroke="url(#paint5_linear_675_5535)" stroke-opacity="0.6"
          stroke-dasharray="3 3"/>
    <path
      d="M281 181C281 164.431 294.431 151 311 151H357.406C360.495 151 363 153.505 363 156.594V205.406C363 208.495 360.495 211 357.406 211H311C294.431 211 281 197.569 281 181Z"
      fill="url(#paint6_linear_675_5535)"/>
    <path
      d="M286 186C286 169.431 299.431 156 316 156H362.406C365.495 156 368 158.505 368 161.594V210.406C368 213.495 365.495 216 362.406 216H316C299.431 216 286 202.569 286 186Z"
      fill="url(#paint7_linear_675_5535)" fill-opacity="0.2"/>
    <path
      d="M285.5 181C285.5 180.52 285.513 180.043 285.539 179.569L285.04 179.541C285.095 178.56 285.203 177.592 285.364 176.643L285.857 176.726C286.017 175.778 286.229 174.847 286.491 173.938L286.01 173.799C286.28 172.859 286.602 171.941 286.973 171.048L287.435 171.239C287.802 170.354 288.217 169.495 288.677 168.663L288.24 168.421C288.712 167.568 289.231 166.744 289.794 165.954L290.201 166.243C290.754 165.465 291.351 164.719 291.986 164.008L291.613 163.675C292.261 162.95 292.95 162.261 293.675 161.613L294.008 161.986C294.719 161.35 295.465 160.754 296.243 160.201L295.954 159.794C296.744 159.231 297.568 158.712 298.421 158.24L298.663 158.677C299.495 158.217 300.354 157.802 301.239 157.435L301.048 156.973C301.941 156.602 302.859 156.28 303.799 156.01L303.938 156.491C304.847 156.229 305.778 156.017 306.726 155.857L306.643 155.364C307.592 155.203 308.56 155.095 309.541 155.04L309.569 155.539C310.043 155.513 310.52 155.5 311 155.5H312.534V155H315.602V155.5H318.67V155H321.738V155.5H324.806V155H327.874V155.5H330.942V155H334.01V155.5H337.078V155H340.146V155.5H343.214V155H346.281V155.5H349.349V155H352.417V155.5H353.951C354.569 155.5 355.157 155.623 355.692 155.845L355.884 155.383C357.118 155.895 358.105 156.882 358.617 158.116L358.155 158.308C358.377 158.843 358.5 159.431 358.5 160.049V161.545H359V164.538H358.5V167.531H359V170.524H358.5V173.517H359V176.51H358.5V179.503H359V182.497H358.5V185.49H359V188.483H358.5V191.476H359V194.469H358.5V197.462H359V200.455H358.5V201.951C358.5 202.569 358.377 203.157 358.155 203.692L358.617 203.884C358.105 205.118 357.118 206.105 355.884 206.617L355.692 206.155C355.157 206.377 354.569 206.5 353.951 206.5H352.417V207H349.349V206.5H346.281V207H343.214V206.5H340.146V207H337.078V206.5H334.01V207H330.942V206.5H327.874V207H324.806V206.5H321.738V207H318.67V206.5H315.602V207H312.534V206.5H311C310.52 206.5 310.043 206.487 309.569 206.461L309.541 206.96C308.56 206.905 307.592 206.797 306.643 206.636L306.726 206.143C305.778 205.983 304.847 205.771 303.938 205.509L303.799 205.99C302.859 205.72 301.941 205.398 301.048 205.027L301.239 204.565C300.354 204.198 299.495 203.783 298.663 203.323L298.421 203.76C297.568 203.288 296.744 202.769 295.954 202.206L296.243 201.799C295.465 201.246 294.719 200.649 294.008 200.014L293.675 200.387C292.95 199.739 292.261 199.05 291.613 198.325L291.986 197.992C291.351 197.281 290.754 196.535 290.201 195.757L289.794 196.046C289.231 195.256 288.712 194.432 288.24 193.579L288.677 193.337C288.217 192.505 287.802 191.646 287.435 190.761L286.973 190.952C286.602 190.059 286.28 189.141 286.01 188.201L286.491 188.062C286.229 187.153 286.017 186.222 285.857 185.274L285.364 185.357C285.203 184.408 285.095 183.44 285.04 182.459L285.539 182.431C285.513 181.957 285.5 181.48 285.5 181Z"
      stroke="white" stroke-opacity="0.4" stroke-dasharray="3 3"/>
    <circle cx="307" cy="181" r="13" fill="url(#paint8_linear_675_5535)"/>
  </g>
  <defs>
    <filter id="filter0_bddd_675_5535" x="-9" y="49" width="383" height="265" filterUnits="userSpaceOnUse"
            color-interpolation-filters="sRGB">
      <feFlood flood-opacity="0" result="BackgroundImageFix"/>
      <feGaussianBlur in="BackgroundImageFix" stdDeviation="14"/>
      <feComposite in2="SourceAlpha" operator="in" result="effect1_backgroundBlur_675_5535"/>
      <feColorMatrix in="SourceAlpha" type="matrix" values="0 0 0 0 0 0 0 0 0 0 0 0 0 0 0 0 0 0 127 0"
                     result="hardAlpha"/>
      <feOffset dy="5.09117"/>
      <feGaussianBlur stdDeviation="6.78823"/>
      <feComposite in2="hardAlpha" operator="out"/>
      <feColorMatrix type="matrix" values="0 0 0 0 0 0 0 0 0 0 0 0 0 0 0 0 0 0 0.04 0"/>
      <feBlend mode="normal" in2="effect1_backgroundBlur_675_5535" result="effect2_dropShadow_675_5535"/>
      <feColorMatrix in="SourceAlpha" type="matrix" values="0 0 0 0 0 0 0 0 0 0 0 0 0 0 0 0 0 0 127 0"
                     result="hardAlpha"/>
      <feOffset dy="1"/>
      <feGaussianBlur stdDeviation="0.5"/>
      <feComposite in2="hardAlpha" operator="out"/>
      <feColorMatrix type="matrix" values="0 0 0 0 0 0 0 0 0 0 0 0 0 0 0 0 0 0 0.05 0"/>
      <feBlend mode="normal" in2="effect2_dropShadow_675_5535" result="effect3_dropShadow_675_5535"/>
      <feColorMatrix in="SourceAlpha" type="matrix" values="0 0 0 0 0 0 0 0 0 0 0 0 0 0 0 0 0 0 127 0"
                     result="hardAlpha"/>
      <feOffset dy="6"/>
      <feGaussianBlur stdDeviation="12"/>
      <feComposite in2="hardAlpha" operator="out"/>
      <feColorMatrix type="matrix" values="0 0 0 0 0 0 0 0 0 0 0 0 0 0 0 0 0 0 0.03 0"/>
      <feBlend mode="normal" in2="effect3_dropShadow_675_5535" result="effect4_dropShadow_675_5535"/>
      <feBlend mode="normal" in="SourceGraphic" in2="effect4_dropShadow_675_5535" result="shape"/>
    </filter>
    <linearGradient id="paint0_linear_675_5535" x1="181" y1="0" x2="181" y2="281.5" gradientUnits="userSpaceOnUse">
      <stop stop-color="white"/>
      <stop offset="0.781944" stop-color="white" stop-opacity="0.86"/>
      <stop offset="1" stop-color="white" stop-opacity="0"/>
    </linearGradient>
    <linearGradient id="paint1_linear_675_5535" x1="109.08" y1="62.5734" x2="287.524" y2="62.5734"
                    gradientUnits="userSpaceOnUse">
      <stop stop-color="#4870FA"/>
      <stop offset="1" stop-color="#E4B6F9"/>
    </linearGradient>
    <linearGradient id="paint2_linear_675_5535" x1="95.5598" y1="80.9454" x2="301.456" y2="80.9454"
                    gradientUnits="userSpaceOnUse">
      <stop stop-color="#4870FA"/>
      <stop offset="1" stop-color="#E4B6F9"/>
    </linearGradient>
    <linearGradient id="paint3_linear_675_5535" x1="78.7406" y1="101.017" x2="319.41" y2="101.017"
                    gradientUnits="userSpaceOnUse">
      <stop stop-color="#4870FA"/>
      <stop offset="1" stop-color="#E4B6F9"/>
    </linearGradient>
    <linearGradient id="paint4_linear_675_5535" x1="-12" y1="187.5" x2="120.479" y2="170.931"
                    gradientUnits="userSpaceOnUse">
      <stop stop-color="#3044FE"/>
      <stop offset="1" stop-color="white" stop-opacity="0"/>
    </linearGradient>
    <linearGradient id="paint5_linear_675_5535" x1="27" y1="273.341" x2="327.817" y2="66.1776"
                    gradientUnits="userSpaceOnUse">
      <stop stop-color="#3044FE"/>
      <stop offset="1" stop-color="#687281" stop-opacity="0.39"/>
    </linearGradient>
    <linearGradient id="paint6_linear_675_5535" x1="287.962" y1="182.765" x2="363" y2="182.765"
                    gradientUnits="userSpaceOnUse">
      <stop stop-color="#4870FA"/>
      <stop offset="1" stop-color="#E4B6F9"/>
    </linearGradient>
    <linearGradient id="paint7_linear_675_5535" x1="292.962" y1="187.765" x2="368" y2="187.765"
                    gradientUnits="userSpaceOnUse">
      <stop stop-color="#4870FA"/>
      <stop offset="1" stop-color="#E4B6F9"/>
    </linearGradient>
    <linearGradient id="paint8_linear_675_5535" x1="323" y1="178" x2="289" y2="185" gradientUnits="userSpaceOnUse">
      <stop stop-color="#4870FA"/>
      <stop offset="1" stop-color="#E4B6F9"/>
    </linearGradient>
  </defs>
</svg>
