<svg width="362" height="260" viewBox="0 0 362 260" fill="none" xmlns="http://www.w3.org/2000/svg">
  <mask id="mask0_710_6163" style="mask-type:alpha" maskUnits="userSpaceOnUse" x="0" y="0" width="362" height="260">
    <rect width="362" height="260" fill="url(#paint0_linear_710_6163)"/>
  </mask>
  <g mask="url(#mask0_710_6163)">
    <g filter="url(#filter0_ddd_710_6163)">
      <rect x="29" y="42" width="280" height="211" rx="8" fill="white" fill-opacity="0.7" shape-rendering="crispEdges"/>
      <rect x="29.5" y="42.5" width="279" height="210" rx="7.5" stroke="url(#paint1_linear_710_6163)"
            shape-rendering="crispEdges"/>
    </g>
    <rect x="53" y="169" width="232" height="1" fill="#F5F1F2"/>
    <g filter="url(#filter1_ddd_710_6163)">
      <path d="M29 50C29 45.5817 32.5817 42 37 42H301C305.418 42 309 45.5817 309 50V68H29V50Z" fill="white"
            fill-opacity="0.7" shape-rendering="crispEdges"/>
    </g>
    <circle cx="40" cy="55" r="3" fill="#EC6A5E"/>
    <circle cx="48" cy="55" r="3" fill="#F5BF4F"/>
    <circle cx="56" cy="55" r="3" fill="#61C554"/>
    <path
      d="M59.464 108.192C57.8427 108.192 56.456 107.621 55.304 106.48C54.1627 105.328 53.592 103.941 53.592 102.32C53.592 100.699 54.1627 99.3173 55.304 98.176C56.456 97.024 57.8427 96.448 59.464 96.448C60.5947 96.448 61.6293 96.7253 62.568 97.28C63.5067 97.824 64.2213 98.5547 64.712 99.472L62.696 100.592C61.9493 99.3227 60.872 98.688 59.464 98.688C58.4827 98.688 57.6453 99.0453 56.952 99.76C56.2693 100.464 55.928 101.317 55.928 102.32C55.928 103.323 56.2693 104.181 56.952 104.896C57.6453 105.6 58.4827 105.952 59.464 105.952C60.872 105.952 61.9493 105.317 62.696 104.048L64.712 105.168C64.2213 106.096 63.512 106.832 62.584 107.376C61.656 107.92 60.616 108.192 59.464 108.192ZM66.1029 108V100H68.2949V101.28C68.4335 100.885 68.6842 100.56 69.0469 100.304C69.4202 100.037 69.8309 99.904 70.2789 99.904C70.5562 99.904 70.8015 99.936 71.0149 100V102.224C70.6629 102.107 70.3322 102.048 70.0229 102.048C69.5002 102.048 69.0789 102.24 68.7589 102.624C68.4495 102.997 68.2949 103.515 68.2949 104.176V108H66.1029ZM75.8621 108.176C74.6461 108.176 73.6328 107.792 72.8221 107.024C72.0221 106.256 71.6221 105.248 71.6221 104C71.6221 102.805 72.0221 101.813 72.8221 101.024C73.6221 100.224 74.6248 99.824 75.8301 99.824C76.9395 99.824 77.8728 100.171 78.6301 100.864C79.3875 101.547 79.7661 102.512 79.7661 103.76C79.7661 104.112 79.7555 104.363 79.7341 104.512H73.7501C73.8141 105.035 74.0435 105.445 74.4381 105.744C74.8435 106.032 75.3235 106.176 75.8781 106.176C76.8168 106.176 77.5048 105.84 77.9421 105.168L79.5741 106.384C78.7528 107.579 77.5155 108.176 75.8621 108.176ZM73.8301 103.024H77.5741C77.4781 102.565 77.2595 102.219 76.9181 101.984C76.5875 101.749 76.2035 101.632 75.7661 101.632C75.3181 101.632 74.9075 101.749 74.5341 101.984C74.1608 102.219 73.9261 102.565 73.8301 103.024ZM84.6321 108.176C83.5761 108.176 82.6855 107.765 81.9601 106.944C81.2348 106.123 80.8721 105.141 80.8721 104C80.8721 102.859 81.2348 101.877 81.9601 101.056C82.6855 100.235 83.5761 99.824 84.6321 99.824C85.1441 99.824 85.6028 99.9307 86.0081 100.144C86.4135 100.357 86.7228 100.608 86.9361 100.896V96H89.1281V108H86.9361V107.104C86.7228 107.392 86.4135 107.643 86.0081 107.856C85.6028 108.069 85.1441 108.176 84.6321 108.176ZM83.6241 105.568C83.9975 105.973 84.4881 106.176 85.0961 106.176C85.7041 106.176 86.1895 105.973 86.5521 105.568C86.9255 105.163 87.1121 104.64 87.1121 104C87.1121 103.36 86.9255 102.837 86.5521 102.432C86.1895 102.027 85.7041 101.824 85.0961 101.824C84.4881 101.824 83.9975 102.027 83.6241 102.432C83.2615 102.837 83.0801 103.36 83.0801 104C83.0801 104.64 83.2615 105.163 83.6241 105.568ZM94.9871 108.176C93.7711 108.176 92.7578 107.792 91.9471 107.024C91.1471 106.256 90.7471 105.248 90.7471 104C90.7471 102.805 91.1471 101.813 91.9471 101.024C92.7471 100.224 93.7498 99.824 94.9551 99.824C96.0645 99.824 96.9978 100.171 97.7551 100.864C98.5125 101.547 98.8911 102.512 98.8911 103.76C98.8911 104.112 98.8805 104.363 98.8591 104.512H92.8751C92.9391 105.035 93.1685 105.445 93.5631 105.744C93.9685 106.032 94.4485 106.176 95.0031 106.176C95.9418 106.176 96.6298 105.84 97.0671 105.168L98.6991 106.384C97.8778 107.579 96.6405 108.176 94.9871 108.176ZM92.9551 103.024H96.6991C96.6031 102.565 96.3845 102.219 96.0431 101.984C95.7125 101.749 95.3285 101.632 94.8911 101.632C94.4431 101.632 94.0325 101.749 93.6591 101.984C93.2858 102.219 93.0511 102.565 92.9551 103.024ZM100.509 108V100H102.701V100.912C103.192 100.187 103.954 99.824 104.989 99.824C105.949 99.824 106.701 100.144 107.245 100.784C107.8 101.413 108.077 102.256 108.077 103.312V108H105.885V103.68C105.885 103.093 105.762 102.64 105.517 102.32C105.272 101.989 104.925 101.824 104.477 101.824C103.944 101.824 103.512 102.016 103.181 102.4C102.861 102.784 102.701 103.349 102.701 104.096V108H100.509ZM113.866 108.096C112.97 108.096 112.234 107.851 111.658 107.36C111.092 106.859 110.81 106.139 110.81 105.2V101.92H109.194V100H110.81V97.776H113.002V100H115.258V101.92H113.002V104.768C113.002 105.259 113.108 105.611 113.322 105.824C113.535 106.027 113.882 106.128 114.362 106.128C114.703 106.128 115.002 106.08 115.258 105.984V107.92C114.874 108.037 114.41 108.096 113.866 108.096ZM117.91 98.688C117.536 98.688 117.211 98.5547 116.934 98.288C116.656 98.0107 116.518 97.68 116.518 97.296C116.518 96.912 116.656 96.5867 116.934 96.32C117.211 96.0427 117.536 95.904 117.91 95.904C118.304 95.904 118.635 96.0427 118.902 96.32C119.179 96.5867 119.318 96.912 119.318 97.296C119.318 97.68 119.179 98.0107 118.902 98.288C118.635 98.5547 118.304 98.688 117.91 98.688ZM116.822 108V100H119.014V108H116.822ZM124.367 108.176C123.311 108.176 122.42 107.765 121.695 106.944C120.969 106.123 120.607 105.141 120.607 104C120.607 102.859 120.969 101.877 121.695 101.056C122.42 100.235 123.311 99.824 124.367 99.824C124.879 99.824 125.337 99.9307 125.743 100.144C126.148 100.357 126.457 100.608 126.671 100.896V100H128.863V108H126.671V107.104C126.457 107.392 126.148 107.643 125.743 107.856C125.337 108.069 124.879 108.176 124.367 108.176ZM123.359 105.568C123.732 105.973 124.223 106.176 124.831 106.176C125.439 106.176 125.924 105.973 126.287 105.568C126.66 105.163 126.847 104.64 126.847 104C126.847 103.36 126.66 102.837 126.287 102.432C125.924 102.027 125.439 101.824 124.831 101.824C124.223 101.824 123.732 102.027 123.359 102.432C122.996 102.837 122.815 103.36 122.815 104C122.815 104.64 122.996 105.163 123.359 105.568ZM130.993 108V96H133.186V108H130.993Z"
      fill="#1F2124"/>
    <rect opacity="0.05" x="53" y="128" width="106" height="17" rx="8.5" fill="#1F2124"/>
    <mask id="mask1_710_6163" style="mask-type:alpha" maskUnits="userSpaceOnUse" x="263" y="92" width="24" height="24">
      <rect x="263" y="92" width="24" height="24" fill="#D9D9D9"/>
    </mask>
    <g mask="url(#mask1_710_6163)">
      <path
        d="M271 109H276C276.283 109 276.521 108.904 276.713 108.713C276.904 108.521 277 108.283 277 108C277 107.717 276.904 107.479 276.713 107.288C276.521 107.096 276.283 107 276 107H271C270.717 107 270.479 107.096 270.287 107.288C270.096 107.479 270 107.717 270 108C270 108.283 270.096 108.521 270.287 108.713C270.479 108.904 270.717 109 271 109ZM271 105H279C279.283 105 279.521 104.904 279.713 104.713C279.904 104.521 280 104.283 280 104C280 103.717 279.904 103.479 279.713 103.288C279.521 103.096 279.283 103 279 103H271C270.717 103 270.479 103.096 270.287 103.288C270.096 103.479 270 103.717 270 104C270 104.283 270.096 104.521 270.287 104.713C270.479 104.904 270.717 105 271 105ZM271 101H279C279.283 101 279.521 100.904 279.713 100.713C279.904 100.521 280 100.283 280 100C280 99.7167 279.904 99.4792 279.713 99.2875C279.521 99.0958 279.283 99 279 99H271C270.717 99 270.479 99.0958 270.287 99.2875C270.096 99.4792 270 99.7167 270 100C270 100.283 270.096 100.521 270.287 100.713C270.479 100.904 270.717 101 271 101ZM268 113C267.45 113 266.979 112.804 266.588 112.413C266.196 112.021 266 111.55 266 111V97C266 96.45 266.196 95.9792 266.588 95.5875C266.979 95.1958 267.45 95 268 95H282C282.55 95 283.021 95.1958 283.413 95.5875C283.804 95.9792 284 96.45 284 97V111C284 111.55 283.804 112.021 283.413 112.413C283.021 112.804 282.55 113 282 113H268Z"
        fill="url(#paint2_linear_710_6163)"/>
    </g>
    <rect x="7.5" y="155.5" width="317" height="79" rx="7.5" fill="url(#paint3_linear_710_6163)"
          stroke="url(#paint4_linear_710_6163)"/>
    <rect opacity="0.5" x="35.5" y="177.5" width="261" height="65" rx="7.5" fill="url(#paint5_linear_710_6163)"
          stroke="url(#paint6_linear_710_6163)"/>
    <circle opacity="0.3" cx="303" cy="209" r="10" fill="white"/>
    <circle opacity="0.3" cx="289" cy="209" r="10" fill="white"/>
    <rect opacity="0.3" x="23" y="171" width="175" height="20" rx="10" fill="white"/>
    <rect opacity="0.3" x="23" y="199" width="88" height="20" rx="10" fill="white"/>
  </g>
  <defs>
    <filter id="filter0_ddd_710_6163" x="5" y="24" width="328" height="259" filterUnits="userSpaceOnUse"
            color-interpolation-filters="sRGB">
      <feFlood flood-opacity="0" result="BackgroundImageFix"/>
      <feColorMatrix in="SourceAlpha" type="matrix" values="0 0 0 0 0 0 0 0 0 0 0 0 0 0 0 0 0 0 127 0"
                     result="hardAlpha"/>
      <feOffset dy="5.09117"/>
      <feGaussianBlur stdDeviation="6.78823"/>
      <feComposite in2="hardAlpha" operator="out"/>
      <feColorMatrix type="matrix" values="0 0 0 0 0 0 0 0 0 0 0 0 0 0 0 0 0 0 0.04 0"/>
      <feBlend mode="normal" in2="BackgroundImageFix" result="effect1_dropShadow_710_6163"/>
      <feColorMatrix in="SourceAlpha" type="matrix" values="0 0 0 0 0 0 0 0 0 0 0 0 0 0 0 0 0 0 127 0"
                     result="hardAlpha"/>
      <feOffset dy="1"/>
      <feGaussianBlur stdDeviation="0.5"/>
      <feComposite in2="hardAlpha" operator="out"/>
      <feColorMatrix type="matrix" values="0 0 0 0 0 0 0 0 0 0 0 0 0 0 0 0 0 0 0.05 0"/>
      <feBlend mode="normal" in2="effect1_dropShadow_710_6163" result="effect2_dropShadow_710_6163"/>
      <feColorMatrix in="SourceAlpha" type="matrix" values="0 0 0 0 0 0 0 0 0 0 0 0 0 0 0 0 0 0 127 0"
                     result="hardAlpha"/>
      <feOffset dy="6"/>
      <feGaussianBlur stdDeviation="12"/>
      <feComposite in2="hardAlpha" operator="out"/>
      <feColorMatrix type="matrix" values="0 0 0 0 0 0 0 0 0 0 0 0 0 0 0 0 0 0 0.03 0"/>
      <feBlend mode="normal" in2="effect2_dropShadow_710_6163" result="effect3_dropShadow_710_6163"/>
      <feBlend mode="normal" in="SourceGraphic" in2="effect3_dropShadow_710_6163" result="shape"/>
    </filter>
    <filter id="filter1_ddd_710_6163" x="5" y="24" width="328" height="74" filterUnits="userSpaceOnUse"
            color-interpolation-filters="sRGB">
      <feFlood flood-opacity="0" result="BackgroundImageFix"/>
      <feColorMatrix in="SourceAlpha" type="matrix" values="0 0 0 0 0 0 0 0 0 0 0 0 0 0 0 0 0 0 127 0"
                     result="hardAlpha"/>
      <feOffset dy="5.09117"/>
      <feGaussianBlur stdDeviation="6.78823"/>
      <feComposite in2="hardAlpha" operator="out"/>
      <feColorMatrix type="matrix" values="0 0 0 0 0 0 0 0 0 0 0 0 0 0 0 0 0 0 0.04 0"/>
      <feBlend mode="normal" in2="BackgroundImageFix" result="effect1_dropShadow_710_6163"/>
      <feColorMatrix in="SourceAlpha" type="matrix" values="0 0 0 0 0 0 0 0 0 0 0 0 0 0 0 0 0 0 127 0"
                     result="hardAlpha"/>
      <feOffset dy="1"/>
      <feGaussianBlur stdDeviation="0.5"/>
      <feComposite in2="hardAlpha" operator="out"/>
      <feColorMatrix type="matrix" values="0 0 0 0 0 0 0 0 0 0 0 0 0 0 0 0 0 0 0.05 0"/>
      <feBlend mode="normal" in2="effect1_dropShadow_710_6163" result="effect2_dropShadow_710_6163"/>
      <feColorMatrix in="SourceAlpha" type="matrix" values="0 0 0 0 0 0 0 0 0 0 0 0 0 0 0 0 0 0 127 0"
                     result="hardAlpha"/>
      <feOffset dy="6"/>
      <feGaussianBlur stdDeviation="12"/>
      <feComposite in2="hardAlpha" operator="out"/>
      <feColorMatrix type="matrix" values="0 0 0 0 0 0 0 0 0 0 0 0 0 0 0 0 0 0 0.03 0"/>
      <feBlend mode="normal" in2="effect2_dropShadow_710_6163" result="effect3_dropShadow_710_6163"/>
      <feBlend mode="normal" in="SourceGraphic" in2="effect3_dropShadow_710_6163" result="shape"/>
    </filter>
    <linearGradient id="paint0_linear_710_6163" x1="181" y1="0" x2="181" y2="247.264" gradientUnits="userSpaceOnUse">
      <stop stop-color="white"/>
      <stop offset="0.781944" stop-color="white" stop-opacity="0.86"/>
      <stop offset="1" stop-color="white" stop-opacity="0"/>
    </linearGradient>
    <linearGradient id="paint1_linear_710_6163" x1="2" y1="276.361" x2="93.8321" y2="174.724"
                    gradientUnits="userSpaceOnUse">
      <stop stop-color="#3044FE"/>
      <stop offset="1" stop-color="white" stop-opacity="0"/>
    </linearGradient>
    <linearGradient id="paint2_linear_710_6163" x1="267.528" y1="104.529" x2="284" y2="104.529"
                    gradientUnits="userSpaceOnUse">
      <stop stop-color="#4870FA"/>
      <stop offset="1" stop-color="#E4B6F9"/>
    </linearGradient>
    <linearGradient id="paint3_linear_710_6163" x1="34" y1="197.353" x2="325" y2="197.353"
                    gradientUnits="userSpaceOnUse">
      <stop stop-color="#4870FA"/>
      <stop offset="1" stop-color="#E4B6F9"/>
    </linearGradient>
    <linearGradient id="paint4_linear_710_6163" x1="34" y1="197.353" x2="325" y2="197.353"
                    gradientUnits="userSpaceOnUse">
      <stop stop-color="#4870FA"/>
      <stop offset="1" stop-color="#E4B6F9"/>
    </linearGradient>
    <linearGradient id="paint5_linear_710_6163" x1="57.2453" y1="211.941" x2="297" y2="211.941"
                    gradientUnits="userSpaceOnUse">
      <stop stop-color="#4870FA"/>
      <stop offset="1" stop-color="#E4B6F9"/>
    </linearGradient>
    <linearGradient id="paint6_linear_710_6163" x1="57.2453" y1="211.941" x2="297" y2="211.941"
                    gradientUnits="userSpaceOnUse">
      <stop stop-color="#4870FA"/>
      <stop offset="1" stop-color="#E4B6F9"/>
    </linearGradient>
  </defs>
</svg>
