<svg width="48" height="49" viewBox="0 0 48 49" fill="none" xmlns="http://www.w3.org/2000/svg">
  <rect y="0.493774" width="48.0001" height="47.9966" rx="23.9983" fill="#FB7C3F"/>
  <path
    d="M26.4454 22.6883C26.4454 21.3511 25.3606 20.2681 24.0252 20.2681C22.6897 20.2681 21.605 21.3528 21.605 22.6883C21.605 23.6233 22.1361 24.4346 22.9144 24.8369L22.0177 28.7161H26.038L25.1413 24.8369C25.9178 24.4346 26.4489 23.6233 26.4489 22.6883H26.4454Z"
    fill="white"/>
  <path
    d="M33.4926 27.5443C33.0225 31.1955 29.8971 34.0266 26.1205 34.0266H21.9278C17.8274 34.0266 14.4914 30.6906 14.4914 26.5901V22.3974C14.4914 18.297 17.8274 14.961 21.9278 14.961H26.1205C29.8971 14.961 33.0225 17.7921 33.4926 21.4433H35.9772C35.4949 16.4271 31.2587 12.4921 26.1188 12.4921H21.9261C16.4659 12.4921 12.0225 16.9355 12.0225 22.3957V26.5884C12.0225 32.0504 16.4659 36.4921 21.9261 36.4921H26.1188C31.2569 36.4921 35.4931 32.5571 35.9754 27.5426H33.4908L33.4926 27.5443Z"
    fill="white"/>
</svg>
