<svg width="48" height="49" viewBox="0 0 48 49" fill="none" xmlns="http://www.w3.org/2000/svg">
<rect y="0.992188" width="48.0001" height="47.9966" rx="23.9983" fill="#ED7458"/>
<path d="M32.3789 21.2715C32.3789 22.9171 31.04 24.2559 29.3944 24.2559H27.5918C26.1893 24.2559 25.0104 23.2833 24.6924 21.9773H23.0371C22.7742 23.0568 21.9228 23.908 20.8435 24.1709V25.8262C21.923 26.089 22.7741 26.9403 23.0371 28.0197H24.6924C25.0104 26.7137 26.1893 25.7411 27.5918 25.7411H29.3944C31.04 25.7411 32.3789 27.08 32.3789 28.7256V30.5281C32.3789 32.1738 31.04 33.5126 29.3944 33.5126H27.5918C26.1894 33.5126 25.0104 32.54 24.6924 31.234H23.0371C22.719 32.54 21.5401 33.5126 20.1376 33.5126H18.3351C16.6894 33.5126 15.3506 32.1738 15.3506 30.5281V28.7256C15.3506 27.3231 16.3232 26.1442 17.6291 25.8262V24.1708C16.3232 23.8528 15.3506 22.6739 15.3506 21.2715V19.4689C15.3506 17.8232 16.6894 16.4844 18.3351 16.4844H20.1376C21.5401 16.4844 22.719 17.457 23.0371 18.763H24.6924C25.0104 17.457 26.1894 16.4844 27.5918 16.4844H29.3944C31.04 16.4844 32.3789 17.8232 32.3789 19.4689V21.2715Z" fill="#ED7458"/>
<path d="M33.8644 21.2722V19.4697C33.8644 17.0051 31.8592 15 29.3947 15H27.5921C26.0374 15 24.6661 15.7984 23.865 17.0063C23.0641 15.7984 21.6927 15 20.138 15H18.3354C15.8708 15 13.8657 17.0051 13.8657 19.4697V21.2722C13.8657 22.827 14.6642 24.1982 15.8721 24.9993C14.6642 25.8003 13.8657 27.1715 13.8657 28.7263V30.5289C13.8657 32.9935 15.8708 34.9986 18.3354 34.9986H20.138C21.6927 34.9986 23.0641 34.2001 23.865 32.9922C24.6661 34.2001 26.0374 34.9986 27.5921 34.9986H29.3947C31.8592 34.9986 33.8644 32.9935 33.8644 30.5289V28.7263C33.8644 27.1715 33.0659 25.8003 31.858 24.9993C33.0659 24.1982 33.8644 22.827 33.8644 21.2722ZM32.3792 21.2722C32.3792 22.9179 31.0403 24.2567 29.3947 24.2567H27.5921C26.1897 24.2567 25.0107 23.2841 24.6927 21.9781H23.0373C22.7745 23.0577 21.9232 23.9088 20.8438 24.1716V25.8269C21.9234 26.0898 22.7745 26.9411 23.0374 28.0205H24.6927C25.0107 26.7145 26.1897 25.7418 27.5921 25.7418H29.3947C31.0403 25.7418 32.3792 27.0807 32.3792 28.7263V30.5289C32.3792 32.1745 31.0403 33.5134 29.3947 33.5134H27.5921C26.1897 33.5134 25.0107 32.5408 24.6927 31.2348H23.0373C22.7194 32.5408 21.5404 33.5134 20.138 33.5134H18.3354C16.6898 33.5134 15.3509 32.1745 15.3509 30.5289V28.7263C15.3509 27.3239 16.3235 26.145 17.6295 25.8269V24.1716C16.3235 23.8535 15.3509 22.6746 15.3509 21.2722V19.4697C15.3509 17.824 16.6898 16.4852 18.3354 16.4852H20.138C21.5404 16.4852 22.7194 17.4578 23.0373 18.7638H24.6927C25.0107 17.4578 26.1897 16.4852 27.5921 16.4852H29.3947C31.0403 16.4852 32.3792 17.824 32.3792 19.4697V21.2722Z" fill="#2C182F"/>
</svg>
