<svg width="48" height="49" viewBox="0 0 48 49" fill="none" xmlns="http://www.w3.org/2000/svg">
<rect y="0.984375" width="48.0001" height="47.9966" rx="23.9983" fill="#0C110F"/>
<g clip-path="url(#clip0_4960_9226)">
<path d="M19.3007 28.9568C18.5418 27.6426 18.5461 26.0995 19.1714 24.8362L16.1742 23.1066C16.1 23.0642 16.0321 23.0154 15.9601 22.9688C15.9219 23.2019 15.8965 23.4372 15.8965 23.681V30.6017C15.8965 33.0117 17.8487 34.9639 20.2588 34.9639C22.582 34.9639 24.477 33.1452 24.6084 30.8539C22.6455 31.5936 20.3796 30.8327 19.2964 28.9547L19.3007 28.9568Z" fill="#6F3FF5"/>
<path d="M20.2638 19.3302C21.7814 19.3302 23.1147 20.106 23.8969 21.2803L26.8941 19.5506C26.9683 19.5082 27.0446 19.4722 27.1209 19.434C26.9386 19.2857 26.7457 19.1458 26.5359 19.0228L20.5414 15.5614C18.4556 14.3575 15.787 15.0718 14.583 17.1575C13.4214 19.1691 14.0488 21.719 15.9671 22.9781C16.3084 20.9093 18.0995 19.3281 20.2659 19.3281L20.2638 19.3302Z" fill="#FFCC00"/>
<path d="M19.174 24.8321C19.5429 24.0881 20.1258 23.4394 20.8995 22.9944L23.8967 21.2626C23.1145 20.0883 21.7791 19.3125 20.2635 19.3125C18.0972 19.3125 16.304 20.8938 15.9648 22.9626C16.0348 23.0092 16.1047 23.0579 16.1789 23.1003L19.1762 24.83L19.174 24.8321Z" fill="#8C65F7"/>
<path d="M32.8526 21.1305C31.691 19.1189 29.1686 18.3876 27.1189 19.4178C28.7405 20.7468 29.2131 23.0912 28.1299 24.9671C27.3711 26.2812 26.0336 27.0485 24.624 27.1397V30.5989C24.624 30.6838 24.6156 30.7685 24.6113 30.8533C24.8317 30.7706 25.0501 30.6731 25.2599 30.5523L31.2544 27.0909C33.3401 25.887 34.0566 23.2183 32.8505 21.1326L32.8526 21.1305Z" fill="#02E2AC"/>
<path d="M24.6259 27.1499C23.7971 27.2029 22.945 27.0206 22.1713 26.5755L19.1741 24.8438C18.5466 26.1071 18.5445 27.6523 19.3034 28.9643C20.3865 30.8402 22.6525 31.6034 24.6153 30.8635C24.6195 30.7788 24.628 30.6961 24.628 30.6092V27.1499H24.6259Z" fill="#5BF1CD"/>
<path d="M23.8965 21.2702C24.3565 21.9612 24.6257 22.79 24.6257 23.6824V27.1438C26.0331 27.0547 27.3728 26.2853 28.1316 24.9711C29.2148 23.0952 28.7421 20.753 27.1205 19.4219C27.0442 19.46 26.9679 19.4939 26.8937 19.5385L23.8965 21.2681V21.2702Z" fill="#FFDB4C"/>
<path d="M23.8965 21.2734L20.8992 23.0052C20.1256 23.4524 19.5427 24.0989 19.1738 24.8429L22.1711 26.5747C22.9448 27.0219 23.7968 27.2021 24.6256 27.1491V23.6877C24.6256 22.7953 24.3565 21.9666 23.8965 21.2756V21.2734Z" fill="white" fill-opacity="0.84"/>
</g>
<defs>
<clipPath id="clip0_4960_9226">
<rect width="19.437" height="19.9986" fill="white" transform="translate(13.9995 14.9766)"/>
</clipPath>
</defs>
</svg>
