<svg width="48" height="49" viewBox="0 0 48 49" fill="none" xmlns="http://www.w3.org/2000/svg">
<rect y="0.984375" width="48.0001" height="47.9966" rx="23.9983" fill="#2E65F5"/>
<path d="M34.2286 16.3125V23.1208L14.23 31.1656L34.2286 16.3125Z" fill="#5BC6FA"/>
<path d="M30.4794 16.0234V27.7682C30.4794 29.4095 29.8209 30.9836 28.6488 32.1441C27.4767 33.3047 25.887 33.9567 24.2294 33.9567C22.5719 33.9567 20.9822 33.3047 19.8101 32.1441C18.638 30.9836 17.9795 29.4095 17.9795 27.7682V22.8193L21.7288 20.7762V27.7682C21.6937 28.0734 21.7241 28.3824 21.818 28.6751C21.912 28.9679 22.0672 29.2376 22.2738 29.4667C22.4804 29.6959 22.7334 29.8792 23.0165 30.0047C23.2996 30.1303 23.6063 30.1952 23.9165 30.1952C24.2266 30.1952 24.5333 30.1303 24.8164 30.0047C25.0995 29.8792 25.3526 29.6959 25.5591 29.4667C25.7657 29.2376 25.921 28.9679 26.0149 28.6751C26.1088 28.3824 26.1392 28.0734 26.1041 27.7682V18.3936L30.4794 16.0234Z" fill="white"/>
</svg>
