<svg width="48" height="49" viewBox="0 0 48 49" fill="none" xmlns="http://www.w3.org/2000/svg">
<rect y="0.992188" width="47.9966" height="47.9966" rx="23.9983" fill="black"/>
<path d="M33.1923 21.1053C32.6863 19.9176 31.971 18.8522 31.0461 17.9265C30.1214 17.0008 29.0745 16.2847 27.888 15.7782C26.6492 15.2542 25.3406 14.9922 23.997 14.9922C22.636 14.9922 21.3274 15.2542 20.106 15.7782C18.9195 16.2847 17.8551 17.0008 16.9304 17.9265C16.0056 18.8522 15.2902 19.9176 14.7842 21.1053C14.2608 22.3279 13.999 23.6379 13.999 25.0002C13.999 26.3451 14.2608 27.655 14.7842 28.8951C15.2902 30.0828 16.0056 31.1483 16.9304 32.0739C17.8551 32.9996 18.9195 33.7157 20.106 34.2048C21.3448 34.7287 22.6534 34.9908 23.997 34.9908C25.3406 34.9908 26.6492 34.7287 27.888 34.2048C29.0745 33.6983 30.1388 32.9822 31.0636 32.0565C31.9884 31.1307 32.7038 30.0653 33.2098 28.8776C33.7332 27.6376 33.995 26.3276 33.995 24.9828C33.995 23.6379 33.7158 22.3279 33.1923 21.1053ZM20.6818 24.057C21.0831 22.4502 22.5488 21.28 24.2762 21.28H31.2207C31.6743 22.1358 31.9535 23.0789 32.0582 24.057H20.6818ZM32.0582 25.9434C31.9535 26.9215 31.6569 27.8646 31.2207 28.7204H24.2762C22.5488 28.7204 21.1005 27.5328 20.6818 25.9434H32.0582ZM18.2564 19.2539C19.7919 17.7169 21.8334 16.8785 23.997 16.8785C26.1606 16.8785 28.2021 17.7169 29.7375 19.2539C29.7899 19.3063 29.8248 19.3412 29.8771 19.3936H24.2762C22.7756 19.3936 21.3797 19.97 20.3154 21.0354C19.4778 21.8738 18.9369 22.9217 18.7625 24.057H15.9358C16.1452 22.2406 16.9478 20.5638 18.2564 19.2539ZM23.997 33.1219C21.8334 33.1219 19.7919 32.2835 18.2564 30.7465C16.9478 29.4366 16.1452 27.7423 15.9358 25.9434H18.7625C18.9544 27.0787 19.4953 28.1266 20.3154 28.965C21.3797 30.0304 22.7756 30.6068 24.2762 30.6068H29.8771C29.8248 30.6592 29.7899 30.6941 29.7375 30.7465C28.2021 32.2835 26.1606 33.1219 23.997 33.1219Z" fill="white"/>
</svg>
